<svg xmlns="http://www.w3.org/2000/svg" width="400" height="300" viewBox="0 0 400 300"><rect width="100%" height="100%" fill="#cccccc"/><path fill="#333333" d="M91.27 154.065h9.89l-3.78-10.34q-.28-.69-.58-1.63-.3-.95-.6-2.05-.28 1.1-.58 2.06-.31.95-.59 1.66zm7.89-19.35 12.21 31.09h-4.47q-.75 0-1.22-.38-.48-.37-.71-.93l-2.32-6.34H89.77l-2.32 6.34q-.18.49-.67.9-.5.41-1.23.41h-4.51l12.23-31.09zm14.77 9.03h5.34v22.06h-5.34zm6.07-6.43q0 .69-.28 1.29t-.75 1.06q-.46.45-1.08.72-.62.26-1.33.26-.69 0-1.3-.26-.62-.27-1.07-.72-.45-.46-.72-1.06t-.27-1.29q0-.71.27-1.33t.72-1.08q.45-.45 1.07-.72.61-.26 1.3-.26.71 0 1.33.26.62.27 1.08.72.47.46.75 1.08t.28 1.33m9.37 7.76.32 2.5q1.03-1.98 2.45-3.11t3.36-1.13q1.52 0 2.45.67l-.35 3.98q-.1.38-.31.54-.2.17-.55.17-.32 0-.95-.11-.64-.11-1.24-.11-.88 0-1.57.26t-1.23.74q-.55.48-.97 1.17t-.79 1.57v13.59h-5.31v-22.06h3.12q.82 0 1.14.29t.43 1.04m28.42 5.27h4.32q1.6 0 2.78-.4 1.18-.39 1.97-1.14.78-.74 1.17-1.8.38-1.07.38-2.38 0-1.24-.38-2.26-.39-1.01-1.16-1.72-.78-.7-1.96-1.08t-2.8-.38h-4.32zm-5.78-15.63h10.1q3.12 0 5.4.73t3.76 2.04q1.49 1.32 2.21 3.14.72 1.83.72 4 0 2.26-.75 4.14-.76 1.88-2.26 3.24-1.51 1.35-3.78 2.1-2.26.76-5.3.76h-4.32v10.94h-5.78zm35.54 8.69q2.45 0 4.46.79 2.01.8 3.44 2.26t2.2 3.57q.78 2.11.78 4.71 0 2.62-.78 4.73-.77 2.1-2.2 3.59-1.43 1.48-3.44 2.28-2.01.79-4.46.79-2.47 0-4.49-.79-2.03-.8-3.46-2.28-1.42-1.49-2.21-3.59-.78-2.11-.78-4.73 0-2.6.78-4.71.79-2.11 2.21-3.57 1.43-1.46 3.46-2.26 2.02-.79 4.49-.79m0 18.64q2.75 0 4.07-1.85 1.33-1.85 1.33-5.42t-1.33-5.44q-1.32-1.87-4.07-1.87-2.8 0-4.14 1.88t-1.34 5.43 1.34 5.41 4.14 1.86m15.01-28.19h5.31v31.95h-5.31zm10.68 0h5.31v31.95h-5.31zm24.32 9.89h5.31v22.06h-3.25q-1.05 0-1.33-.97l-.37-1.76q-1.35 1.38-2.98 2.22-1.64.85-3.85.85-1.81 0-3.2-.61-1.38-.61-2.33-1.73-.94-1.12-1.43-2.65-.48-1.54-.48-3.39v-14.02h5.31v14.02q0 2.02.93 3.13.94 1.1 2.81 1.1 1.38 0 2.58-.61t2.28-1.69zm17.91 22.4q-2.88 0-4.42-1.62t-1.54-4.48v-12.32h-2.26q-.43 0-.73-.28t-.3-.84v-2.11l3.55-.58 1.12-6.02q.11-.43.41-.66.3-.24.77-.24h2.75v6.94h5.89v3.79h-5.89v11.95q0 1.03.51 1.61.5.59 1.38.59.5 0 .83-.12.34-.12.58-.25.25-.13.44-.25.2-.12.39-.12.24 0 .39.12t.32.36l1.59 2.58q-1.16.96-2.66 1.46-1.51.49-3.12.49m8.81-22.4h5.33v22.06h-5.33zm6.07-6.43q0 .69-.28 1.29t-.75 1.06q-.46.45-1.08.72-.62.26-1.33.26-.69 0-1.31-.26-.61-.27-1.06-.72-.45-.46-.72-1.06t-.27-1.29q0-.71.27-1.33t.72-1.08q.45-.45 1.06-.72.62-.26 1.31-.26.71 0 1.33.26.62.27 1.08.72.47.46.75 1.08t.28 1.33m14.44 6.09q2.45 0 4.47.79 2.01.8 3.44 2.26 1.42 1.46 2.2 3.57.77 2.11.77 4.71 0 2.62-.77 4.73-.78 2.1-2.2 3.59-1.43 1.48-3.44 2.28-2.02.79-4.47.79-2.47 0-4.49-.79-2.02-.8-3.45-2.28-1.43-1.49-2.22-3.59-.78-2.11-.78-4.73 0-2.6.78-4.71.79-2.11 2.22-3.57t3.45-2.26q2.02-.79 4.49-.79m0 18.64q2.76 0 4.08-1.85t1.32-5.42-1.32-5.44-4.08-1.87q-2.79 0-4.14 1.88-1.34 1.88-1.34 5.43t1.34 5.41q1.35 1.86 4.14 1.86m19.55-17.33.36 1.74q.67-.67 1.41-1.24t1.57-.96q.83-.4 1.77-.63.95-.22 2.07-.22 1.8 0 3.2.61t2.33 1.72q.94 1.11 1.42 2.64.49 1.54.49 3.39v14.04h-5.31v-14.04q0-2.02-.93-3.13-.92-1.11-2.81-1.11-1.38 0-2.58.63-1.21.62-2.28 1.7v15.95h-5.31v-22.06h3.24q1.03 0 1.36.97"/></svg>