<svg xmlns="http://www.w3.org/2000/svg" width="800" height="400" viewBox="0 0 800 400"><rect width="100%" height="100%" fill="#cccccc"/><path fill="#333333" d="M171.145 216.925h19.08v7.33h-27.96v-47.72h8.88zm39.11-27.06q3.76 0 6.84 1.23 3.09 1.22 5.28 3.46 2.2 2.24 3.39 5.48 1.18 3.23 1.18 7.22 0 4.03-1.18 7.26-1.19 3.24-3.39 5.52-2.19 2.27-5.28 3.49-3.08 1.22-6.84 1.22-3.8 0-6.9-1.22t-5.3-3.49q-2.19-2.28-3.4-5.52-1.2-3.23-1.2-7.26 0-3.99 1.2-7.22 1.21-3.24 3.4-5.48 2.2-2.24 5.3-3.46 3.1-1.23 6.9-1.23m0 28.61q4.22 0 6.25-2.83 2.03-2.84 2.03-8.32t-2.03-8.35-6.25-2.87q-4.29 0-6.36 2.89-2.06 2.89-2.06 8.33 0 5.45 2.06 8.3 2.07 2.85 6.36 2.85m65.07-28.08h6.21l-10.76 33.86h-6.54q-1.12 0-1.55-1.45l-6.07-19.57q-.3-.99-.54-1.96-.25-.98-.42-1.97-.19.99-.44 2-.25 1-.55 1.99l-6.17 19.51q-.39 1.45-1.75 1.45h-6.27l-10.72-33.86h6.5q.89 0 1.52.43t.82 1.09l4.85 18.08q.37 1.49.65 2.91t.48 2.84q.36-1.42.77-2.84t.88-2.91l5.61-18.15q.19-.66.77-1.09.58-.42 1.4-.42h3.6q.86 0 1.47.42.61.43.81 1.09l5.44 18.15q.43 1.49.81 2.92.38 1.44.74 2.86.43-2.81 1.23-5.78l4.98-18.08q.23-.66.82-1.09.6-.43 1.42-.43m17.26 13.04h15.38q0-1.59-.45-2.99-.44-1.4-1.33-2.46-.89-1.05-2.26-1.66-1.37-.62-3.19-.62-3.53 0-5.56 2.02-2.03 2.01-2.59 5.71m20.79 4.91h-20.95q.19 2.61.92 4.51t1.91 3.13q1.19 1.24 2.83 1.85 1.63.61 3.61.61t3.42-.46q1.43-.46 2.5-1.02 1.08-.56 1.88-1.03.81-.46 1.57-.46 1.02 0 1.52.76l2.34 2.97q-1.35 1.58-3.03 2.66-1.69 1.07-3.52 1.71-1.83.65-3.73.91-1.89.26-3.68.26-3.53 0-6.56-1.17-3.04-1.17-5.28-3.46-2.25-2.3-3.53-5.68-1.29-3.38-1.29-7.84 0-3.46 1.12-6.51 1.12-3.06 3.22-5.32 2.09-2.26 5.11-3.58t6.82-1.32q3.2 0 5.9 1.03 2.71 1.02 4.66 2.98 1.94 1.97 3.05 4.82 1.11 2.86 1.11 6.52 0 1.85-.4 2.49t-1.52.64m15.21-15.9.5 3.83q1.58-3.04 3.76-4.77t5.15-1.73q2.34 0 3.76 1.02l-.53 6.1q-.16.6-.47.84-.32.25-.85.25-.49 0-1.46-.16-.98-.17-1.9-.17-1.36 0-2.41.4-1.06.39-1.9 1.14-.84.74-1.48 1.79-.65 1.06-1.21 2.41v20.86h-8.15v-33.86h4.79q1.25 0 1.74.45.5.44.66 1.6m43.63 24.48h19.07v7.33h-27.95v-47.72h8.88zm24.39-26.53h8.18v33.86h-8.18zm9.3-9.87q0 1.06-.43 1.98-.42.93-1.13 1.62t-1.67 1.11q-.96.41-2.05.41-1.05 0-1.99-.41-.94-.42-1.64-1.11-.69-.69-1.1-1.62-.41-.92-.41-1.98 0-1.08.41-2.04t1.1-1.65q.7-.69 1.64-1.11.94-.41 1.99-.41 1.09 0 2.05.41.96.42 1.67 1.11t1.13 1.65q.43.96.43 2.04m31.29 9.87h6.43l-13.43 33.86h-7.39l-13.43-33.86h6.73q.92 0 1.54.43.61.43.8 1.09l6.54 18.08q.53 1.59.92 3.11.4 1.51.69 3.03.33-1.52.73-3.03.4-1.52.96-3.11l6.66-18.08q.23-.66.83-1.09.59-.43 1.42-.43m17.19 13.04h15.38q0-1.59-.45-2.99-.44-1.4-1.33-2.46-.89-1.05-2.26-1.66-1.37-.62-3.19-.62-3.53 0-5.56 2.02-2.03 2.01-2.59 5.71m20.79 4.91h-20.95q.19 2.61.92 4.51t1.91 3.13q1.19 1.24 2.83 1.85 1.63.61 3.61.61t3.41-.46q1.44-.46 2.51-1.02t1.88-1.03q.81-.46 1.57-.46 1.02 0 1.52.76l2.34 2.97q-1.35 1.58-3.03 2.66-1.69 1.07-3.52 1.71-1.83.65-3.73.91t-3.68.26q-3.53 0-6.56-1.17-3.04-1.17-5.28-3.46-2.25-2.3-3.54-5.68-1.28-3.38-1.28-7.84 0-3.46 1.12-6.51 1.12-3.06 3.22-5.32 2.09-2.26 5.11-3.58t6.82-1.32q3.2 0 5.9 1.03 2.71 1.02 4.66 2.98 1.94 1.97 3.05 4.82 1.1 2.86 1.1 6.52 0 1.85-.39 2.49-.4.64-1.52.64m30.53-14.29-1.85 2.94q-.33.53-.7.74-.36.22-.92.22-.59 0-1.27-.33t-1.57-.74q-.89-.42-2.03-.75t-2.69-.33q-2.41 0-3.77 1.03-1.37 1.02-1.37 2.67 0 1.09.71 1.83.7.74 1.88 1.3 1.17.57 2.65 1.01 1.49.45 3.02.97 1.54.53 3.02 1.21 1.49.68 2.66 1.72 1.17 1.03 1.88 2.49.71 1.45.71 3.5 0 2.44-.88 4.5-.87 2.06-2.59 3.56-1.71 1.5-4.24 2.35-2.52.84-5.82.84-1.75 0-3.42-.32-1.66-.31-3.2-.87-1.53-.56-2.84-1.32-1.3-.76-2.29-1.65l1.88-3.1q.36-.56.86-.86.49-.3 1.25-.3t1.44.43 1.57.93q.89.49 2.09.92 1.21.43 3.05.43 1.46 0 2.5-.35 1.04-.34 1.71-.91.68-.56.99-1.3.32-.74.32-1.53 0-1.19-.71-1.95t-1.88-1.32q-1.18-.56-2.68-1.01-1.5-.44-3.07-.97-1.56-.53-3.07-1.24-1.5-.71-2.67-1.8-1.17-1.08-1.88-2.67-.71-1.58-.71-3.83 0-2.08.83-3.96.82-1.88 2.42-3.28t3.99-2.24q2.4-.85 5.53-.85 3.5 0 6.37 1.16 2.87 1.15 4.79 3.03m17.78 30.73q-4.42 0-6.78-2.49-2.36-2.5-2.36-6.88v-18.91h-3.46q-.66 0-1.13-.43-.46-.43-.46-1.29v-3.23l5.45-.89 1.71-9.24q.17-.66.63-1.03.46-.36 1.19-.36h4.22v10.66h9.04v5.81h-9.04v18.34q0 1.59.78 2.48.77.89 2.13.89.76 0 1.27-.18t.89-.38.67-.38q.3-.18.6-.18.36 0 .59.18t.5.54l2.44 3.96q-1.78 1.49-4.09 2.25t-4.79.76m28.25-34.92q3.76 0 6.85 1.23 3.08 1.22 5.28 3.46 2.19 2.24 3.38 5.48 1.19 3.23 1.19 7.22 0 4.03-1.19 7.26-1.19 3.24-3.38 5.52-2.2 2.27-5.28 3.49-3.09 1.22-6.85 1.22-3.79 0-6.9-1.22-3.1-1.22-5.29-3.49-2.2-2.28-3.4-5.52-1.21-3.23-1.21-7.26 0-3.99 1.21-7.22 1.2-3.24 3.4-5.48 2.19-2.24 5.29-3.46 3.11-1.23 6.9-1.23m0 28.61q4.22 0 6.25-2.83 2.03-2.84 2.03-8.32t-2.03-8.35-6.25-2.87q-4.29 0-6.35 2.89t-2.06 8.33q0 5.45 2.06 8.3t6.35 2.85m49.34-23.89-2.15 2.97q-.36.46-.71.73-.35.26-1.01.26-.62 0-1.22-.38-.59-.38-1.42-.85-.82-.48-1.96-.86t-2.82-.38q-2.15 0-3.76.77-1.62.78-2.69 2.23t-1.6 3.52q-.53 2.06-.53 4.66 0 2.71.58 4.82.57 2.11 1.66 3.55t2.64 2.18 3.5.74 3.15-.48q1.21-.48 2.03-1.05.83-.58 1.44-1.06t1.37-.48q.99 0 1.48.76l2.35 2.97q-1.36 1.58-2.94 2.66-1.59 1.07-3.28 1.71-1.7.65-3.5.91t-3.58.26q-3.14 0-5.91-1.17t-4.85-3.41q-2.08-2.25-3.28-5.5-1.21-3.25-1.21-7.41 0-3.72 1.07-6.91 1.08-3.18 3.15-5.51 2.08-2.33 5.15-3.65t7.06-1.32q3.8 0 6.65 1.23 2.86 1.22 5.14 3.49m5.41-19.37h8.15v28.08h1.52q.82 0 1.3-.21t.97-.87l8.42-10.4q.53-.69 1.17-1.06.64-.36 1.67-.36h7.45l-10.52 12.57q-1.12 1.49-2.44 2.28.69.5 1.23 1.16.55.66 1.04 1.42l11.29 16.43h-7.36q-.96 0-1.65-.31-.69-.32-1.16-1.14l-8.64-12.84q-.46-.76-.96-.99-.49-.23-1.48-.23h-1.85v15.51h-8.15z"/></svg>