<svg xmlns="http://www.w3.org/2000/svg" width="800" height="400" viewBox="0 0 800 400"><rect width="100%" height="100%" fill="#cccccc"/><path fill="#333333" d="M174.235 213.22h22.54v8.66h-33.04v-56.39h10.5zm46.21-31.98q4.45 0 8.09 1.44 3.65 1.45 6.24 4.1 2.6 2.65 4 6.47 1.4 3.83 1.4 8.54 0 4.76-1.4 8.58-1.4 3.83-4 6.52-2.59 2.69-6.24 4.13-3.64 1.44-8.09 1.44-4.48 0-8.15-1.44t-6.26-4.13-4.02-6.52q-1.42-3.82-1.42-8.58 0-4.71 1.42-8.54 1.43-3.82 4.02-6.47t6.26-4.1q3.67-1.44 8.15-1.44m0 33.81q4.99 0 7.39-3.35t2.4-9.83q0-6.47-2.4-9.86-2.4-3.4-7.39-3.4-5.07 0-7.51 3.42-2.43 3.41-2.43 9.84 0 6.44 2.43 9.81 2.44 3.37 7.51 3.37m76.91-33.18h7.33l-12.71 40.01h-7.73q-1.32 0-1.83-1.72l-7.17-23.12q-.36-1.17-.65-2.32t-.49-2.32q-.23 1.17-.52 2.36t-.65 2.35l-7.29 23.05q-.47 1.72-2.07 1.72h-7.41l-12.67-40.01h7.68q1.06 0 1.8.5.74.51.97 1.29l5.73 21.37q.43 1.76.77 3.43.33 1.68.56 3.36.43-1.68.92-3.36.48-1.67 1.03-3.43l6.63-21.45q.23-.78.92-1.29.68-.5 1.65-.5h4.26q1.01 0 1.73.5.72.51.96 1.29l6.43 21.45q.51 1.76.96 3.45.45 1.7.87 3.38.51-3.32 1.45-6.83l5.89-21.37q.27-.78.97-1.29.7-.5 1.68-.5m20.4 15.4h18.17q0-1.87-.53-3.53-.52-1.66-1.58-2.9-1.05-1.25-2.67-1.97t-3.76-.72q-4.17 0-6.57 2.37-2.4 2.38-3.06 6.75m24.57 5.81h-24.77q.23 3.08 1.09 5.33.86 2.24 2.26 3.7 1.41 1.46 3.34 2.18 1.93.73 4.27.73t4.04-.55q1.69-.55 2.96-1.21t2.22-1.21q.96-.54 1.86-.54 1.2 0 1.79.89l2.77 3.51q-1.6 1.88-3.59 3.14-1.99 1.27-4.15 2.03-2.17.76-4.41 1.07t-4.35.31q-4.17 0-7.76-1.38t-6.24-4.09q-2.65-2.72-4.17-6.71-1.52-4-1.52-9.26 0-4.1 1.32-7.71 1.33-3.6 3.81-6.28 2.47-2.67 6.04-4.23t8.05-1.56q3.79 0 6.98 1.21 3.2 1.21 5.5 3.53t3.61 5.69q1.31 3.38 1.31 7.71 0 2.18-.47 2.94t-1.79.76m17.97-18.8.59 4.53q1.87-3.59 4.45-5.64 2.57-2.05 6.08-2.05 2.77 0 4.45 1.21l-.63 7.22q-.19.7-.56.99-.37.3-1 .3-.58 0-1.73-.2-1.15-.19-2.25-.19-1.6 0-2.84.46-1.25.47-2.25 1.35-.99.88-1.75 2.12-.76 1.25-1.42 2.85v24.65h-9.64v-40.01h5.66q1.48 0 2.06.52.59.53.78 1.89m94.31-18.79h7.91v56.39h-9.24v-36.43q0-2.18.23-4.72l-17.04 32.02q-1.21 2.3-3.7 2.3h-1.49q-2.49 0-3.7-2.3l-17.24-32.13q.12 1.28.2 2.53.07 1.25.07 2.3v36.43h-9.24v-56.39h7.92q.7 0 1.21.04.5.03.91.19t.75.51q.33.35.64.93l16.89 31.32q.66 1.25 1.22 2.57.57 1.33 1.12 2.73.54-1.44 1.13-2.78.58-1.35 1.24-2.6l16.66-31.24q.31-.58.66-.93t.76-.51.92-.19q.5-.04 1.21-.04m19.26 16.38h9.67v40.01h-9.67zm11-11.66q0 1.24-.51 2.33-.5 1.1-1.34 1.92t-1.97 1.3q-1.13.49-2.42.49-1.25 0-2.36-.49-1.11-.48-1.93-1.3t-1.31-1.92q-.48-1.09-.48-2.33 0-1.29.48-2.42.49-1.13 1.31-1.95t1.93-1.31 2.36-.49q1.29 0 2.42.49t1.97 1.31 1.34 1.95q.51 1.13.51 2.42m16.85 13.41.66 3.16q1.21-1.21 2.56-2.24 1.34-1.04 2.84-1.76t3.22-1.13 3.74-.41q3.28 0 5.82 1.11 2.53 1.12 4.23 3.12 1.69 2.01 2.57 4.8t.88 6.14v25.47h-9.63v-25.47q0-3.66-1.68-5.67t-5.11-2.01q-2.5 0-4.68 1.13t-4.13 3.08v28.94h-9.64v-40.01h5.89q1.87 0 2.46 1.75m35.96-1.75h9.67v40.01h-9.67zm10.99-11.66q0 1.24-.5 2.33-.51 1.1-1.35 1.92t-1.97 1.3q-1.13.49-2.42.49-1.24 0-2.35-.49-1.12-.48-1.94-1.3-.81-.82-1.3-1.92-.49-1.09-.49-2.33 0-1.29.49-2.42t1.3-1.95q.82-.82 1.94-1.31 1.11-.49 2.35-.49 1.29 0 2.42.49t1.97 1.31 1.35 1.95q.5 1.13.5 2.42m16.85 13.41.67 3.16q1.2-1.21 2.55-2.24 1.35-1.04 2.85-1.76t3.21-1.13q1.72-.41 3.75-.41 3.27 0 5.81 1.11 2.53 1.12 4.23 3.12 1.7 2.01 2.58 4.8.87 2.79.87 6.14v25.47h-9.63v-25.47q0-3.66-1.68-5.67-1.67-2.01-5.11-2.01-2.49 0-4.68 1.13-2.18 1.13-4.13 3.08v28.94h-9.63v-40.01h5.89q1.87 0 2.45 1.75m50.27 17.28q1.8 0 3.12-.49 1.33-.49 2.21-1.35.87-.85 1.32-2.06t.45-2.65q0-2.97-1.77-4.7-1.78-1.74-5.33-1.74t-5.32 1.74q-1.77 1.73-1.77 4.7 0 1.4.44 2.61.45 1.21 1.33 2.09.88.87 2.22 1.36 1.35.49 3.1.49m10.88 22.77q0-1.17-.7-1.91t-1.91-1.15-2.83-.6q-1.61-.2-3.43-.29-1.81-.1-3.74-.18t-3.77-.31q-1.59.9-2.59 2.1-.99 1.21-.99 2.81 0 1.05.52 1.97.53.92 1.68 1.58t2.98 1.03q1.84.37 4.49.37 2.69 0 4.64-.4 1.95-.41 3.22-1.14 1.26-.72 1.85-1.71.58-1 .58-2.17m-1.91-40.44h11.51v3.59q0 1.72-2.07 2.11l-3.59.66q.82 2.06.82 4.52 0 2.97-1.19 5.36-1.19 2.4-3.29 4.08-2.11 1.68-4.97 2.59-2.87.92-6.19.92-1.17 0-2.26-.12-1.09-.11-2.14-.31-1.88 1.13-1.88 2.54 0 1.2 1.12 1.77 1.11.57 2.94.8t4.17.29 4.8.26q2.46.19 4.8.68t4.17 1.54 2.95 2.87q1.11 1.81 1.11 4.66 0 2.65-1.31 5.14-1.31 2.5-3.78 4.45-2.48 1.95-6.09 3.14-3.6 1.19-8.21 1.19-4.52 0-7.87-.88-3.36-.88-5.58-2.34t-3.32-3.37q-1.09-1.91-1.09-3.98 0-2.81 1.7-4.7 1.69-1.89 4.66-3.02-1.6-.82-2.54-2.19-.93-1.36-.93-3.58 0-.9.33-1.86.33-.95.97-1.89.65-.93 1.62-1.77.98-.84 2.3-1.5-3.04-1.64-4.77-4.37-1.74-2.73-1.74-6.4 0-2.96 1.19-5.36t3.32-4.1q2.12-1.69 5.03-2.59 2.9-.9 6.33-.9 2.58 0 4.84.53t4.13 1.54"/></svg>