<svg xmlns="http://www.w3.org/2000/svg" width="800" height="400" viewBox="0 0 800 400"><rect width="100%" height="100%" fill="#cccccc"/><path fill="#333333" d="M171.86 212.55h20.52v7.88h-30.07V169.1h9.55zm42.07-29.11q4.04 0 7.36 1.31 3.32 1.32 5.68 3.73t3.64 5.89 1.28 7.78q0 4.33-1.28 7.81t-3.64 5.93-5.68 3.76-7.36 1.31q-4.09 0-7.42-1.31-3.34-1.31-5.7-3.76t-3.66-5.93q-1.29-3.48-1.29-7.81 0-4.3 1.29-7.78 1.3-3.48 3.66-5.89t5.7-3.73q3.33-1.31 7.42-1.31m0 30.78q4.54 0 6.72-3.06 2.19-3.05 2.19-8.94t-2.19-8.98q-2.18-3.09-6.72-3.09-4.62 0-6.84 3.1-2.22 3.11-2.22 8.97t2.22 8.93 6.84 3.07m70-30.21h6.68l-11.58 36.42H272q-1.2 0-1.66-1.56l-6.54-21.05q-.32-1.07-.58-2.12-.27-1.04-.45-2.11-.21 1.07-.48 2.15-.26 1.08-.58 2.15l-6.64 20.98q-.43 1.56-1.88 1.56h-6.75l-11.53-36.42h6.99q.96 0 1.63.46.68.46.89 1.17l5.22 19.45q.39 1.6.69 3.13.3 1.52.52 3.05.39-1.53.83-3.05.44-1.53.94-3.13l6.04-19.52q.21-.71.83-1.17t1.51-.46h3.87q.92 0 1.58.46.65.46.87 1.17l5.86 19.52q.46 1.6.87 3.15.4 1.54.79 3.07.47-3.02 1.32-6.22l5.36-19.45q.25-.71.89-1.17.63-.46 1.52-.46m18.57 14.02h16.54q0-1.7-.48-3.21t-1.44-2.65q-.95-1.13-2.43-1.79-1.47-.66-3.42-.66-3.8 0-5.98 2.17-2.19 2.16-2.79 6.14m22.36 5.29h-22.54q.21 2.8.99 4.84.79 2.05 2.06 3.38 1.28 1.33 3.04 1.99 1.76.65 3.89.65t3.67-.5q1.54-.49 2.7-1.1 1.15-.6 2.02-1.1.87-.49 1.69-.49 1.1 0 1.63.81l2.52 3.2q-1.45 1.7-3.26 2.86-1.81 1.15-3.78 1.84-1.98.69-4.02.98-2.04.28-3.95.28-3.8 0-7.07-1.26t-5.68-3.73q-2.41-2.46-3.8-6.1-1.38-3.64-1.38-8.43 0-3.73 1.2-7.01 1.21-3.29 3.47-5.72 2.25-2.43 5.5-3.85t7.33-1.42q3.44 0 6.35 1.1t5.01 3.21q2.09 2.11 3.28 5.19 1.19 3.07 1.19 7.01 0 1.98-.42 2.68-.43.69-1.64.69m16.37-17.11.53 4.12q1.71-3.27 4.05-5.13 2.34-1.87 5.54-1.87 2.52 0 4.04 1.1l-.56 6.57q-.18.64-.52.91-.34.26-.9.26-.54 0-1.58-.18-1.05-.17-2.05-.17-1.45 0-2.59.42-1.13.43-2.04 1.23-.9.8-1.6 1.93-.69 1.14-1.29 2.59v22.44h-8.77v-36.42h5.15q1.35 0 1.88.48t.71 1.72m82.96 8.55q0 5.65-1.88 10.37t-5.29 8.13-8.2 5.29-10.65 1.88h-19.56V169.1h19.56q5.86 0 10.65 1.9t8.2 5.29 5.29 8.11 1.88 10.36m-9.8 0q0-4.22-1.11-7.58-1.12-3.35-3.23-5.68-2.12-2.32-5.12-3.56-3-1.25-6.76-1.25h-9.97v36.14h9.97q3.76 0 6.76-1.24t5.12-3.57q2.11-2.32 3.23-5.68 1.11-3.35 1.11-7.58m17.12-10.75h8.8v36.42h-8.8zm10.01-10.62q0 1.14-.47 2.13-.46 1-1.22 1.74-.76.75-1.79 1.19t-2.2.44q-1.14 0-2.15-.44t-1.76-1.19q-.74-.74-1.19-1.74-.44-.99-.44-2.13 0-1.17.44-2.2.45-1.03 1.19-1.77.75-.75 1.76-1.19 1.01-.45 2.15-.45 1.17 0 2.2.45 1.03.44 1.79 1.19.76.74 1.22 1.77.47 1.03.47 2.2m31.95 14.56-1.99 3.16q-.36.56-.75.8-.39.23-.99.23-.64 0-1.37-.36-.73-.35-1.68-.8-.96-.44-2.19-.8-1.22-.35-2.89-.35-2.59 0-4.07 1.1-1.47 1.1-1.47 2.87 0 1.18.76 1.98.77.79 2.03 1.4 1.26.6 2.86 1.08 1.59.48 3.24 1.05t3.25 1.29q1.6.73 2.86 1.85t2.02 2.68q.77 1.56.77 3.76 0 2.63-.94 4.85t-2.79 3.83q-1.85 1.62-4.56 2.52-2.72.91-6.27.91-1.88 0-3.67-.34-1.8-.34-3.45-.94t-3.05-1.42-2.47-1.78l2.03-3.33q.39-.61.92-.93.53-.31 1.35-.31t1.54.46q.73.46 1.69.99t2.25.99q1.3.47 3.29.47 1.56 0 2.68-.38 1.12-.37 1.84-.97.73-.61 1.07-1.4.34-.8.34-1.66 0-1.27-.77-2.09-.76-.82-2.02-1.42t-2.88-1.08q-1.61-.48-3.3-1.05-1.68-.57-3.3-1.33-1.61-.76-2.87-1.94-1.26-1.17-2.03-2.87-.76-1.71-.76-4.12 0-2.24.89-4.26.88-2.02 2.61-3.53 1.72-1.51 4.29-2.42 2.57-.9 5.95-.9 3.76 0 6.85 1.24t5.15 3.27m15.76 6.71v16.33q1.49 1.81 3.25 2.55 1.75.75 3.81.75 1.99 0 3.59-.75 1.6-.74 2.71-2.27 1.12-1.53 1.73-3.85.6-2.33.6-5.49 0-3.19-.52-5.41-.51-2.22-1.47-3.6-.96-1.39-2.32-2.03-1.37-.64-3.11-.64-2.73 0-4.65 1.16-1.92 1.15-3.62 3.25m-1.17-9.06.71 3.38q2.23-2.52 5.07-4.09 2.84-1.56 6.68-1.56 2.98 0 5.45 1.24 2.46 1.25 4.26 3.61 1.79 2.36 2.77 5.82.97 3.46.97 7.93 0 4.09-1.1 7.57-1.1 3.47-3.14 6.03t-4.93 3.99q-2.9 1.44-6.48 1.44-3.06 0-5.22-.94-2.17-.94-3.87-2.61v14.91h-8.77v-48.31h5.36q1.7 0 2.24 1.59m48.84-2.16q4.05 0 7.37 1.31 3.32 1.32 5.68 3.73t3.64 5.89 1.28 7.78q0 4.33-1.28 7.81t-3.64 5.93-5.68 3.76-7.37 1.31q-4.08 0-7.41-1.31-3.34-1.31-5.7-3.76t-3.66-5.93q-1.29-3.48-1.29-7.81 0-4.3 1.29-7.78 1.3-3.48 3.66-5.89t5.7-3.73q3.33-1.31 7.41-1.31m0 30.78q4.55 0 6.73-3.06 2.19-3.05 2.19-8.94t-2.19-8.98q-2.18-3.09-6.73-3.09-4.61 0-6.83 3.1-2.22 3.11-2.22 8.97t2.22 8.93 6.83 3.07m48.89-26.27-1.99 3.16q-.35.56-.75.8-.39.23-.99.23-.64 0-1.37-.36-.72-.35-1.68-.8-.96-.44-2.19-.8-1.22-.35-2.89-.35-2.59 0-4.06 1.1-1.48 1.1-1.48 2.87 0 1.18.77 1.98.76.79 2.02 1.4 1.26.6 2.86 1.08t3.25 1.05 3.24 1.29q1.6.73 2.86 1.85t2.03 2.68q.76 1.56.76 3.76 0 2.63-.94 4.85t-2.79 3.83q-1.84 1.62-4.56 2.52-2.72.91-6.27.91-1.88 0-3.67-.34t-3.44-.94-3.06-1.42q-1.4-.82-2.46-1.78l2.02-3.33q.39-.61.92-.93.53-.31 1.35-.31t1.55.46q.72.46 1.68.99t2.26.99q1.29.47 3.28.47 1.56 0 2.68-.38 1.12-.37 1.85-.97.72-.61 1.06-1.4.34-.8.34-1.66 0-1.27-.76-2.09-.77-.82-2.03-1.42t-2.87-1.08q-1.62-.48-3.31-1.05-1.68-.57-3.3-1.33-1.61-.76-2.87-1.94-1.26-1.17-2.03-2.87-.76-1.71-.76-4.12 0-2.24.89-4.26t2.61-3.53 4.29-2.42q2.58-.9 5.95-.9 3.76 0 6.85 1.24t5.15 3.27m26.23 23.07v-6.14q-3.8.18-6.39.66t-4.15 1.22q-1.56.75-2.24 1.74-.67 1-.67 2.17 0 2.3 1.37 3.3 1.36.99 3.56.99 2.7 0 4.67-.97 1.97-.98 3.85-2.97m-18.53-19.13-1.56-2.81q6.28-5.75 15.12-5.75 3.2 0 5.72 1.05t4.26 2.91 2.64 4.46q.91 2.59.91 5.68v23h-3.98q-1.24 0-1.91-.37-.68-.38-1.07-1.51l-.78-2.63q-1.39 1.24-2.7 2.18-1.31.95-2.73 1.58-1.42.64-3.04.98-1.61.34-3.57.34-2.3 0-4.26-.62-1.95-.62-3.37-1.87-1.42-1.24-2.2-3.09-.78-1.84-.78-4.29 0-1.39.46-2.75.46-1.37 1.51-2.61t2.72-2.34q1.66-1.11 4.1-1.92 2.43-.82 5.66-1.33 3.23-.52 7.38-.62v-2.13q0-3.66-1.56-5.42t-4.51-1.76q-2.13 0-3.53.5t-2.47 1.12q-1.06.62-1.93 1.12t-1.94.5q-.92 0-1.56-.48t-1.03-1.12m35.43-24.21h8.77v52.75h-8.77z"/></svg>