<svg xmlns="http://www.w3.org/2000/svg" width="800" height="400" viewBox="0 0 800 400"><rect width="100%" height="100%" fill="#cccccc"/><path fill="#333333" d="M174.065 213.205h21.68v8.32h-31.77v-54.23h10.09zm44.44-30.75q4.27 0 7.78 1.38 3.51 1.39 6 3.94t3.84 6.23q1.35 3.67 1.35 8.21 0 4.57-1.35 8.25-1.35 3.67-3.84 6.26t-6 3.98q-3.51 1.38-7.78 1.38-4.31 0-7.84-1.38-3.52-1.39-6.02-3.98-2.49-2.59-3.86-6.26-1.37-3.68-1.37-8.25 0-4.54 1.37-8.21 1.37-3.68 3.86-6.23 2.5-2.55 6.02-3.94 3.53-1.38 7.84-1.38m0 32.51q4.8 0 7.11-3.23 2.3-3.22 2.3-9.45 0-6.22-2.3-9.48-2.31-3.27-7.11-3.27-4.88 0-7.22 3.28t-2.34 9.47 2.34 9.43q2.34 3.25 7.22 3.25m73.95-31.92h7.05l-12.23 38.48h-7.42q-1.28 0-1.76-1.65l-6.9-22.24q-.34-1.12-.62-2.23-.28-1.1-.47-2.23-.23 1.13-.51 2.27t-.62 2.27l-7.01 22.16q-.45 1.65-1.99 1.65h-7.12l-12.19-38.48h7.39q1.01 0 1.72.49.72.49.94 1.24l5.51 20.55q.42 1.69.74 3.3.31 1.61.54 3.23.41-1.62.88-3.23t.99-3.3l6.38-20.62q.22-.75.88-1.24t1.59-.49h4.09q.98 0 1.67.49t.92 1.24l6.19 20.62q.48 1.69.92 3.32.43 1.63.84 3.24.49-3.18 1.39-6.56l5.66-20.55q.26-.75.94-1.24.67-.49 1.61-.49m19.61 14.82h17.48q0-1.8-.51-3.4-.51-1.59-1.52-2.79t-2.57-1.89q-1.55-.7-3.62-.7-4.01 0-6.31 2.29-2.31 2.29-2.95 6.49m23.63 5.59h-23.82q.23 2.96 1.05 5.11.83 2.16 2.18 3.57 1.35 1.4 3.2 2.1 1.86.69 4.11.69t3.88-.53q1.63-.52 2.85-1.16 1.22-.63 2.14-1.16.92-.52 1.78-.52 1.16 0 1.73.86l2.66 3.37q-1.54 1.8-3.45 3.02t-3.99 1.95q-2.09.73-4.24 1.03-2.16.3-4.18.3-4.02 0-7.47-1.33t-6-3.94q-2.55-2.6-4.01-6.45-1.46-3.84-1.46-8.9 0-3.94 1.27-7.41 1.28-3.47 3.66-6.04 2.38-2.56 5.81-4.06t7.75-1.5q3.63 0 6.71 1.16 3.07 1.16 5.29 3.39 2.21 2.23 3.47 5.48 1.25 3.24 1.25 7.4 0 2.1-.45 2.83-.45.74-1.72.74m17.28-18.08.57 4.35q1.8-3.45 4.27-5.42 2.48-1.97 5.85-1.97 2.66 0 4.28 1.17l-.6 6.93q-.19.68-.55.96-.35.28-.95.28-.57 0-1.67-.19-1.11-.18-2.16-.18-1.54 0-2.74.45t-2.15 1.29q-.96.84-1.69 2.04t-1.37 2.74v23.7h-9.26v-38.48h5.44q1.42 0 1.98.51.57.51.75 1.82m70.88-12.98-2.51 4.77q-.45.79-.96 1.14-.51.36-1.26.36-.78 0-1.7-.58t-2.2-1.3q-1.27-.71-2.98-1.29-1.7-.58-4.03-.58-2.1 0-3.67.5-1.58.51-2.65 1.41t-1.59 2.16q-.53 1.25-.53 2.75 0 1.91 1.07 3.19t2.83 2.18q1.77.9 4.02 1.61t4.61 1.52q2.36.8 4.61 1.87t4.01 2.7q1.77 1.63 2.83 4 1.07 2.36 1.07 5.73 0 3.68-1.25 6.88-1.26 3.21-3.68 5.59t-5.9 3.75q-3.49 1.37-7.99 1.37-2.59 0-5.1-.51-2.51-.5-4.82-1.44t-4.33-2.25q-2.03-1.31-3.6-2.92l2.96-4.84q.38-.53.98-.88.6-.36 1.27-.36.94 0 2.03.77 1.08.77 2.58 1.7 1.5.94 3.51 1.71t4.82.77q4.31 0 6.67-2.04 2.37-2.05 2.37-5.87 0-2.14-1.07-3.49t-2.83-2.27q-1.77-.92-4.02-1.56-2.25-.63-4.57-1.38-2.33-.75-4.58-1.8t-4.01-2.74-2.83-4.22-1.07-6.24q0-2.97 1.18-5.78t3.43-4.98q2.25-2.18 5.55-3.49t7.58-1.31q4.8 0 8.85 1.5t6.9 4.19m17.55 21.91v17.25q1.57 1.91 3.43 2.7 1.86.78 4.03.78 2.1 0 3.79-.78 1.69-.79 2.87-2.4 1.18-1.62 1.82-4.07.63-2.46.63-5.8 0-3.37-.54-5.72-.54-2.34-1.56-3.8-1.01-1.46-2.45-2.14-1.45-.68-3.28-.68-2.89 0-4.92 1.22-2.02 1.22-3.82 3.44m-1.24-9.57.75 3.56q2.36-2.66 5.36-4.31t7.05-1.65q3.15 0 5.76 1.31 2.61 1.32 4.5 3.81 1.89 2.5 2.92 6.15 1.04 3.66 1.04 8.38 0 4.32-1.17 7.99-1.16 3.67-3.31 6.38-2.16 2.69-5.22 4.21-3.05 1.52-6.84 1.52-3.23 0-5.51-.99-2.29-1-4.09-2.76v15.75h-9.26v-51.04h5.66q1.8 0 2.36 1.69m41.89 13.13h17.47q0-1.8-.5-3.4-.51-1.59-1.52-2.79t-2.57-1.89q-1.56-.7-3.62-.7-4.01 0-6.32 2.29-2.3 2.29-2.94 6.49m23.62 5.59h-23.81q.23 2.96 1.05 5.11.83 2.16 2.18 3.57 1.35 1.4 3.2 2.1 1.86.69 4.11.69t3.88-.53q1.63-.52 2.85-1.16 1.22-.63 2.14-1.16.92-.52 1.78-.52 1.16 0 1.72.86l2.67 3.37q-1.54 1.8-3.45 3.02-1.92 1.22-4 1.95t-4.24 1.03q-2.15.3-4.18.3-4.01 0-7.46-1.33t-6-3.94q-2.55-2.6-4.01-6.45-1.46-3.84-1.46-8.9 0-3.94 1.27-7.41 1.28-3.47 3.66-6.04 2.38-2.56 5.81-4.06t7.74-1.5q3.64 0 6.72 1.16 3.07 1.16 5.28 3.39 2.22 2.23 3.47 5.48 1.26 3.24 1.26 7.4 0 2.1-.45 2.83-.45.74-1.73.74m39.12-15.64-2.44 3.37q-.41.53-.81.83-.39.3-1.14.3-.71 0-1.39-.43-.67-.43-1.61-.98-.94-.54-2.23-.97-1.3-.43-3.21-.43-2.44 0-4.27.88-1.84.88-3.06 2.53t-1.82 3.99q-.6 2.35-.6 5.31 0 3.07.66 5.47.65 2.4 1.89 4.03 1.24 1.64 3 2.48t3.98.84q2.21 0 3.58-.54t2.3-1.2q.94-.66 1.63-1.2.7-.54 1.56-.54 1.13 0 1.69.86l2.66 3.37q-1.54 1.8-3.34 3.02t-3.73 1.95-3.97 1.03q-2.05.3-4.07.3-3.56 0-6.71-1.33t-5.52-3.88q-2.36-2.55-3.73-6.24-1.37-3.7-1.37-8.42 0-4.24 1.22-7.86t3.58-6.26q2.37-2.64 5.85-4.14 3.49-1.5 8.03-1.5 4.31 0 7.55 1.38 3.25 1.39 5.84 3.98m6.45-4.77h9.3v38.48h-9.3zm10.57-11.21q0 1.2-.49 2.25-.48 1.05-1.29 1.84t-1.89 1.26q-1.09.46-2.33.46-1.2 0-2.27-.46-1.07-.47-1.85-1.26-.79-.79-1.26-1.84t-.47-2.25q0-1.23.47-2.32t1.26-1.88q.78-.78 1.85-1.25t2.27-.47q1.24 0 2.33.47 1.08.47 1.89 1.25.81.79 1.29 1.88.49 1.09.49 2.32m15.49 26.03h17.47q0-1.8-.5-3.4-.51-1.59-1.52-2.79t-2.57-1.89q-1.56-.7-3.62-.7-4.01 0-6.32 2.29-2.3 2.29-2.94 6.49m23.62 5.59h-23.81q.23 2.96 1.05 5.11.83 2.16 2.18 3.57 1.35 1.4 3.2 2.1 1.86.69 4.11.69t3.88-.53q1.63-.52 2.85-1.16 1.22-.63 2.14-1.16.92-.52 1.78-.52 1.16 0 1.72.86l2.67 3.37q-1.54 1.8-3.45 3.02-1.92 1.22-4 1.95t-4.24 1.03q-2.15.3-4.18.3-4.01 0-7.46-1.33t-6-3.94q-2.55-2.6-4.01-6.45-1.46-3.84-1.46-8.9 0-3.94 1.27-7.41 1.28-3.47 3.66-6.04 2.38-2.56 5.81-4.06t7.74-1.5q3.64 0 6.72 1.16 3.07 1.16 5.28 3.39 2.22 2.23 3.47 5.48 1.26 3.24 1.26 7.4 0 2.1-.45 2.83-.45.74-1.73.74m34.69-16.24-2.1 3.34q-.37.59-.79.84-.41.24-1.05.24-.67 0-1.44-.37-.77-.38-1.78-.85-1.01-.46-2.31-.84-1.29-.37-3.05-.37-2.74 0-4.3 1.16-1.55 1.16-1.55 3.03 0 1.24.8 2.09.81.84 2.14 1.48 1.33.63 3.02 1.14t3.43 1.11 3.43 1.37q1.69.76 3.02 1.95 1.33 1.18 2.14 2.83.8 1.65.8 3.97 0 2.78-.99 5.12-.99 2.35-2.94 4.05-1.95 1.71-4.82 2.66-2.87.96-6.62.96-1.99 0-3.88-.36-1.9-.35-3.64-.99t-3.23-1.5q-1.48-.86-2.6-1.88l2.14-3.52q.41-.64.97-.98.56-.33 1.43-.33.86 0 1.63.49.77.48 1.78 1.05 1.01.56 2.38 1.04 1.37.49 3.47.49 1.65 0 2.83-.39t1.95-1.03 1.12-1.48q.36-.85.36-1.75 0-1.35-.8-2.21-.81-.86-2.14-1.5t-3.04-1.14q-1.71-.51-3.49-1.11t-3.49-1.41q-1.7-.8-3.03-2.04t-2.14-3.04-.81-4.35q0-2.36.94-4.5t2.76-3.73 4.53-2.55q2.72-.95 6.29-.95 3.97 0 7.23 1.31 3.27 1.31 5.44 3.45"/></svg>