<svg xmlns="http://www.w3.org/2000/svg" width="800" height="400" viewBox="0 0 800 400"><rect width="100%" height="100%" fill="#cccccc"/><path fill="#333333" d="M168.345 214.53h16.76v6.44h-24.56v-41.93h7.8zm34.37-23.78q3.3 0 6.01 1.07 2.71 1.08 4.64 3.05t2.98 4.81q1.04 2.85 1.04 6.35 0 3.54-1.04 6.39-1.05 2.84-2.98 4.84t-4.64 3.07-6.01 1.07q-3.34 0-6.07-1.07-2.72-1.07-4.65-3.07t-2.99-4.84q-1.05-2.85-1.05-6.39 0-3.5 1.05-6.35 1.06-2.84 2.99-4.81t4.65-3.05q2.73-1.07 6.07-1.07m0 25.14q3.71 0 5.49-2.49t1.78-7.31q0-4.81-1.78-7.33-1.78-2.53-5.49-2.53-3.77 0-5.59 2.54-1.81 2.54-1.81 7.32 0 4.79 1.81 7.3 1.82 2.5 5.59 2.5m57.18-24.67h5.46l-9.46 29.75h-5.74q-.99 0-1.36-1.28l-5.34-17.19q-.26-.87-.48-1.73-.21-.85-.36-1.72-.17.87-.39 1.75t-.48 1.75l-5.42 17.14q-.35 1.28-1.54 1.28h-5.51l-9.43-29.75h5.72q.78 0 1.33.37.55.38.73.96l4.26 15.89q.32 1.31.57 2.55.24 1.25.42 2.5.31-1.25.68-2.5.36-1.24.77-2.55l4.93-15.95q.17-.58.68-.96.5-.37 1.23-.37h3.16q.75 0 1.29.37.54.38.71.96l4.79 15.95q.37 1.31.71 2.57.33 1.26.65 2.51.38-2.47 1.07-5.08l4.38-15.89q.2-.58.73-.96.52-.37 1.24-.37m15.17 11.45h13.51q0-1.39-.39-2.62-.39-1.24-1.17-2.16-.78-.93-1.99-1.47-1.2-.54-2.8-.54-3.1 0-4.88 1.77-1.79 1.77-2.28 5.02m18.27 4.32h-18.41q.17 2.29.81 3.96t1.68 2.76q1.04 1.08 2.48 1.62 1.43.54 3.18.54 1.74 0 3-.41t2.2-.9 1.65-.9q.71-.4 1.38-.4.9 0 1.33.66l2.06 2.61q-1.18 1.39-2.66 2.34-1.48.94-3.09 1.51-1.61.56-3.28.79t-3.23.23q-3.11 0-5.77-1.02-2.67-1.03-4.64-3.05-1.98-2.02-3.11-4.99t-1.13-6.89q0-3.04.99-5.72.98-2.69 2.83-4.67 1.84-1.99 4.49-3.15t5.99-1.16q2.81 0 5.19.9t4.09 2.63q1.71 1.72 2.68 4.23t.97 5.73q0 1.62-.34 2.19-.35.56-1.34.56m13.37-13.98.44 3.37q1.39-2.67 3.3-4.19 1.92-1.53 4.53-1.53 2.05 0 3.3.9l-.46 5.37q-.15.52-.42.74-.28.22-.74.22-.44 0-1.29-.15-.86-.14-1.67-.14-1.19 0-2.12.34-.93.35-1.67 1-.73.66-1.3 1.58-.57.93-1.06 2.12v18.33h-7.16v-29.75h4.2q1.11 0 1.54.39.44.39.58 1.4m54.81-10.03-1.94 3.68q-.35.61-.74.89-.39.27-.97.27-.61 0-1.32-.45t-1.7-1-2.31-1q-1.31-.45-3.11-.45-1.63 0-2.84.39-1.22.4-2.05 1.09-.83.7-1.23 1.67-.41.97-.41 2.13 0 1.48.83 2.47.83.98 2.19 1.68 1.36.69 3.1 1.24 1.74.56 3.57 1.18t3.57 1.45 3.1 2.09 2.19 3.09q.82 1.82.82 4.43 0 2.85-.97 5.32-.97 2.48-2.84 4.33-1.87 1.84-4.57 2.9-2.69 1.05-6.17 1.05-2 0-3.95-.39-1.94-.39-3.72-1.11-1.79-.73-3.35-1.74-1.57-1.02-2.79-2.27l2.29-3.74q.29-.4.76-.68.46-.27.98-.27.73 0 1.57.59.84.6 2 1.32t2.71 1.32q1.55.59 3.73.59 3.33 0 5.16-1.58t1.83-4.54q0-1.65-.83-2.69-.83-1.05-2.19-1.76t-3.1-1.2-3.54-1.07-3.54-1.4q-1.74-.81-3.1-2.11-1.36-1.31-2.19-3.26-.83-1.96-.83-4.83 0-2.29.92-4.47.91-2.17 2.65-3.86 1.74-1.68 4.29-2.69 2.55-1.02 5.86-1.02 3.71 0 6.84 1.16 3.14 1.16 5.34 3.25m16.33 38.45q-3.89 0-5.96-2.19-2.08-2.19-2.08-6.04v-16.62h-3.04q-.58 0-.99-.38-.4-.37-.4-1.13v-2.84l4.78-.78 1.51-8.12q.15-.58.55-.9.41-.32 1.05-.32h3.71v9.37h7.94v5.1h-7.94v16.12q0 1.4.68 2.18t1.87.78q.67 0 1.12-.16t.78-.33.59-.33.53-.16q.31 0 .52.16.2.16.43.47l2.15 3.48q-1.57 1.31-3.6 1.98-2.03.66-4.2.66m24.82-30.68q3.31 0 6.02 1.07 2.71 1.08 4.64 3.05t2.97 4.81q1.05 2.85 1.05 6.35 0 3.54-1.05 6.39-1.04 2.84-2.97 4.84t-4.64 3.07-6.02 1.07q-3.33 0-6.06-1.07t-4.65-3.07q-1.93-2-2.99-4.84-1.06-2.85-1.06-6.39 0-3.5 1.06-6.35 1.06-2.84 2.99-4.81 1.92-1.97 4.65-3.05 2.73-1.07 6.06-1.07m0 25.14q3.71 0 5.5-2.49 1.78-2.49 1.78-7.31 0-4.81-1.78-7.33-1.79-2.53-5.5-2.53-3.77 0-5.58 2.54t-1.81 7.32q0 4.79 1.81 7.3 1.81 2.5 5.58 2.5m26.48-22.88.43 3.37q1.4-2.67 3.31-4.19 1.91-1.53 4.52-1.53 2.06 0 3.31.9l-.46 5.37q-.15.52-.43.74-.27.22-.73.22-.44 0-1.3-.15-.85-.14-1.66-.14-1.19 0-2.12.34-.93.35-1.67 1-.74.66-1.3 1.58-.57.93-1.06 2.12v18.33h-7.16v-29.75h4.2q1.1 0 1.54.39.43.39.58 1.4m22.47 27.96h-7.16v-29.75h4.38q1.39 0 1.83 1.3l.46 2.2q.78-.87 1.64-1.59.85-.73 1.83-1.25.97-.52 2.08-.82 1.12-.31 2.45-.31 2.82 0 4.63 1.52 1.81 1.53 2.71 4.05.7-1.48 1.74-2.54 1.05-1.06 2.29-1.72 1.25-.67 2.66-.99 1.4-.32 2.82-.32 2.47 0 4.38.76 1.92.75 3.22 2.2 1.31 1.45 1.99 3.54t.68 4.78v18.94h-7.16v-18.94q0-2.84-1.25-4.27-1.25-1.44-3.65-1.44-1.11 0-2.05.38-.94.37-1.65 1.08t-1.12 1.79q-.4 1.07-.4 2.46v18.94h-7.2v-18.94q0-2.98-1.2-4.35-1.2-1.36-3.52-1.36-1.57 0-2.92.77t-2.51 2.1zm78.45-29.75h5.45l-9.45 29.75h-5.75q-.98 0-1.36-1.28l-5.33-17.19q-.27-.87-.48-1.73-.22-.85-.37-1.72-.17.87-.39 1.75-.21.88-.48 1.75l-5.42 17.14q-.35 1.28-1.54 1.28h-5.51l-9.42-29.75h5.71q.79 0 1.34.37.55.38.72.96l4.26 15.89q.32 1.31.57 2.55.25 1.25.42 2.5.32-1.25.68-2.5.36-1.24.77-2.55l4.93-15.95q.17-.58.68-.96.51-.37 1.23-.37h3.17q.75 0 1.29.37.53.38.71.96l4.78 15.95q.38 1.31.71 2.57.34 1.26.65 2.51.38-2.47 1.08-5.08l4.38-15.89q.2-.58.72-.96.52-.37 1.25-.37m25.23 22.06v-5.01q-3.1.14-5.22.53-2.12.4-3.39 1-1.28.61-1.83 1.43-.55.81-.55 1.76 0 1.89 1.11 2.7 1.12.81 2.92.81 2.2 0 3.81-.79 1.61-.8 3.15-2.43m-15.14-15.63-1.28-2.29q5.14-4.7 12.36-4.7 2.61 0 4.67.86t3.48 2.38 2.16 3.64q.74 2.11.74 4.64v18.79h-3.25q-1.02 0-1.57-.3-.55-.31-.87-1.24l-.63-2.14q-1.14 1.01-2.21 1.78t-2.23 1.29-2.48.8q-1.32.27-2.92.27-1.88 0-3.48-.5-1.59-.51-2.75-1.53-1.16-1.01-1.8-2.52t-.64-3.51q0-1.13.38-2.25.38-1.11 1.23-2.13.86-1.01 2.22-1.91t3.35-1.57q1.99-.66 4.63-1.08t6.03-.51v-1.74q0-2.99-1.28-4.42-1.27-1.44-3.68-1.44-1.74 0-2.89.41-1.14.4-2.01.91t-1.58.91q-.71.41-1.58.41-.76 0-1.28-.39t-.84-.92m38.77 23.78q-3.88 0-5.96-2.19-2.07-2.19-2.07-6.04v-16.62h-3.04q-.58 0-.99-.38-.41-.37-.41-1.13v-2.84l4.79-.78 1.51-8.12q.14-.58.55-.9.4-.32 1.04-.32h3.71v9.37h7.95v5.1h-7.95v16.12q0 1.4.68 2.18.69.78 1.88.78.66 0 1.11-.16t.78-.33q.34-.17.6-.33t.52-.16q.32 0 .52.16.21.16.44.47l2.14 3.48q-1.56 1.31-3.59 1.98-2.03.66-4.21.66m17.32-18.76h13.51q0-1.39-.39-2.62-.39-1.24-1.18-2.16-.78-.93-1.98-1.47-1.21-.54-2.8-.54-3.1 0-4.89 1.77-1.78 1.77-2.27 5.02m18.27 4.32h-18.42q.18 2.29.81 3.96.64 1.67 1.69 2.76 1.04 1.08 2.47 1.62 1.44.54 3.18.54t3-.41 2.21-.9q.94-.49 1.65-.9.71-.4 1.38-.4.9 0 1.33.66l2.06 2.61q-1.19 1.39-2.67 2.34-1.48.94-3.09 1.51-1.61.56-3.27.79-1.67.23-3.24.23-3.1 0-5.77-1.02-2.67-1.03-4.64-3.05t-3.1-4.99-1.13-6.89q0-3.04.98-5.72.99-2.69 2.83-4.67 1.84-1.99 4.5-3.15 2.65-1.16 5.98-1.16 2.82 0 5.2.9 2.37.9 4.08 2.63 1.72 1.72 2.69 4.23t.97 5.73q0 1.62-.35 2.19-.35.56-1.33.56m13.37-13.98.43 3.37q1.39-2.67 3.31-4.19 1.91-1.53 4.52-1.53 2.06 0 3.31.9l-.47 5.37q-.14.52-.42.74-.27.22-.74.22-.43 0-1.29-.15-.85-.14-1.67-.14-1.18 0-2.11.34-.93.35-1.67 1-.74.66-1.31 1.58-.56.93-1.05 2.12v18.33h-7.17v-29.75h4.21q1.1 0 1.54.39.43.39.58 1.4"/></svg>