<svg xmlns="http://www.w3.org/2000/svg" width="800" height="400" viewBox="0 0 800 400"><rect width="100%" height="100%" fill="#cccccc"/><path fill="#333333" d="M168.75 217.18h19.36v7.44h-28.37v-48.44h9.01zm39.7-27.47q3.82 0 6.95 1.24t5.36 3.52 3.43 5.56q1.21 3.28 1.21 7.34 0 4.08-1.21 7.37-1.2 3.28-3.43 5.59t-5.36 3.55-6.95 1.24q-3.85 0-7-1.24t-5.38-3.55-3.45-5.59q-1.22-3.29-1.22-7.37 0-4.06 1.22-7.34t3.45-5.56 5.38-3.52 7-1.24m0 29.05q4.29 0 6.35-2.88t2.06-8.45q0-5.56-2.06-8.47-2.06-2.92-6.35-2.92-4.36 0-6.45 2.94-2.09 2.93-2.09 8.45 0 5.53 2.09 8.43t6.45 2.9m66.06-28.51h6.3l-10.92 34.37h-6.63q-1.14 0-1.58-1.47l-6.16-19.87q-.3-1-.56-1.99-.25-.99-.41-2-.21 1.01-.46 2.03t-.55 2.03l-6.26 19.8q-.41 1.47-1.78 1.47h-6.36l-10.89-34.37h6.6q.9 0 1.54.43.63.44.84 1.11l4.92 18.36q.37 1.51.65 2.95.29 1.44.49 2.88.37-1.44.79-2.88t.88-2.95l5.7-18.43q.2-.67.79-1.1.58-.44 1.42-.44h3.65q.87 0 1.49.44.62.43.82 1.1l5.53 18.43q.44 1.51.82 2.96.39 1.46.76 2.9.43-2.85 1.24-5.86l5.05-18.36q.24-.67.84-1.11.6-.43 1.44-.43m17.52 13.23h15.61q0-1.61-.45-3.03t-1.36-2.5q-.9-1.07-2.29-1.69t-3.23-.62q-3.59 0-5.65 2.05-2.06 2.04-2.63 5.79m21.11 4.99h-21.28q.21 2.65.94 4.58.74 1.92 1.95 3.18 1.2 1.25 2.86 1.87t3.67.62 3.47-.47q1.45-.46 2.54-1.03t1.91-1.04 1.59-.47q1.04 0 1.54.77l2.38 3.01q-1.37 1.61-3.08 2.7t-3.57 1.74q-1.86.66-3.78.92-1.93.27-3.74.27-3.58 0-6.67-1.19-3.08-1.19-5.36-3.51-2.27-2.33-3.58-5.77-1.31-3.43-1.31-7.95 0-3.52 1.14-6.62t3.27-5.39q2.13-2.3 5.19-3.64 3.07-1.34 6.92-1.34 3.25 0 6 1.04 2.74 1.04 4.72 3.03 1.98 2 3.1 4.89 1.12 2.9 1.12 6.62 0 1.88-.4 2.53t-1.54.65m15.44-16.14.5 3.88q1.61-3.08 3.82-4.84t5.23-1.76q2.38 0 3.82 1.04l-.54 6.2q-.17.6-.48.85-.32.25-.86.25-.5 0-1.49-.16-.99-.17-1.93-.17-1.37 0-2.44.4t-1.93 1.16q-.85.75-1.51 1.82-.65 1.07-1.22 2.45v21.17h-8.27v-34.37h4.86q1.27 0 1.77.45t.67 1.63m63.32-11.6-2.25 4.26q-.4.7-.85 1.02-.46.32-1.13.32-.7 0-1.52-.52t-1.96-1.16q-1.14-.63-2.66-1.15-1.53-.52-3.6-.52-1.88 0-3.29.45-1.4.45-2.36 1.26-.95.8-1.42 1.92-.47 1.13-.47 2.47 0 1.7.95 2.84.96 1.14 2.53 1.95 1.58.8 3.59 1.44 2.01.63 4.12 1.35t4.12 1.68q2.01.95 3.58 2.41 1.58 1.46 2.53 3.57.96 2.11.96 5.12 0 3.29-1.13 6.15-1.12 2.87-3.28 4.99-2.16 2.13-5.27 3.35-3.12 1.23-7.14 1.23-2.31 0-4.56-.46-2.24-.45-4.3-1.29-2.06-.83-3.87-2.01-1.81-1.17-3.22-2.61l2.65-4.32q.34-.47.87-.79.54-.32 1.14-.32.84 0 1.81.69t2.31 1.53q1.34.83 3.13 1.52 1.8.69 4.31.69 3.85 0 5.96-1.83t2.11-5.24q0-1.91-.95-3.12-.96-1.2-2.53-2.02-1.58-.83-3.59-1.4-2.01-.56-4.08-1.23-2.08-.67-4.09-1.61t-3.59-2.45q-1.57-1.51-2.53-3.77-.95-2.26-.95-5.57 0-2.65 1.06-5.16 1.05-2.52 3.06-4.46t4.96-3.11q2.95-1.18 6.77-1.18 4.28 0 7.9 1.34t6.17 3.75m13.93 22.75h15.61q0-1.61-.45-3.03t-1.36-2.5q-.9-1.07-2.29-1.69t-3.23-.62q-3.59 0-5.65 2.05-2.06 2.04-2.63 5.79m21.11 4.99h-21.28q.21 2.65.94 4.58.74 1.92 1.95 3.18 1.2 1.25 2.86 1.87t3.67.62 3.46-.47q1.46-.46 2.55-1.03t1.91-1.04 1.59-.47q1.04 0 1.54.77l2.38 3.01q-1.37 1.61-3.08 2.7t-3.57 1.74q-1.86.66-3.78.92-1.93.27-3.74.27-3.58 0-6.67-1.19-3.08-1.19-5.36-3.51-2.27-2.33-3.58-5.77-1.31-3.43-1.31-7.95 0-3.52 1.14-6.62t3.27-5.39q2.13-2.3 5.19-3.64 3.07-1.34 6.92-1.34 3.25 0 6 1.04 2.74 1.04 4.72 3.03 1.98 2 3.1 4.89 1.12 2.9 1.12 6.62 0 1.88-.4 2.53t-1.54.65m29.71 5.97v-15.41q-1.41-1.71-3.06-2.42-1.66-.7-3.57-.7-1.88 0-3.39.7-1.5.71-2.57 2.13-1.08 1.42-1.65 3.62-.57 2.19-.57 5.17 0 3.02.49 5.11.49 2.1 1.39 3.42t2.21 1.91 2.92.59q2.58 0 4.38-1.08 1.81-1.07 3.42-3.04m0-39.6h8.28v49.78h-5.06q-1.64 0-2.08-1.51l-.7-3.31q-2.08 2.37-4.78 3.85-2.69 1.47-6.28 1.47-2.81 0-5.16-1.17-2.34-1.17-4.03-3.4-1.7-2.23-2.62-5.51t-.92-7.51q0-3.81 1.04-7.1 1.04-3.28 2.98-5.69t4.66-3.77q2.71-1.36 6.1-1.36 2.88 0 4.92.91 2.04.9 3.65 2.44zm16.72 15.41h8.31v34.37h-8.31zm9.44-10.02q0 1.07-.43 2.01-.44.94-1.16 1.64-.72.71-1.69 1.13-.97.41-2.08.41-1.07 0-2.02-.41-.96-.42-1.66-1.13-.7-.7-1.12-1.64t-.42-2.01q0-1.1.42-2.07.42-.98 1.12-1.68t1.66-1.12q.95-.42 2.02-.42 1.11 0 2.08.42t1.69 1.12 1.16 1.68q.43.97.43 2.07m15.58 44.39h-8.27v-34.37h5.06q1.6 0 2.11 1.51l.53 2.54q.91-1 1.9-1.84.98-.84 2.11-1.44 1.12-.6 2.41-.96 1.29-.35 2.83-.35 3.25 0 5.34 1.76 2.1 1.76 3.13 4.67.81-1.7 2.01-2.93 1.21-1.22 2.65-1.99t3.07-1.14q1.62-.37 3.26-.37 2.85 0 5.06.87 2.21.88 3.72 2.55t2.29 4.09q.79 2.41.79 5.52v21.88h-8.27v-21.88q0-3.28-1.44-4.94t-4.22-1.66q-1.28 0-2.37.44t-1.91 1.26-1.29 2.06q-.46 1.24-.46 2.84v21.88h-8.31v-21.88q0-3.45-1.39-5.02-1.39-1.58-4.07-1.58-1.81 0-3.37.89t-2.9 2.43zm54.37-21.14h15.61q0-1.61-.45-3.03t-1.36-2.5q-.9-1.07-2.29-1.69t-3.23-.62q-3.59 0-5.65 2.05-2.06 2.04-2.63 5.79m21.11 4.99H552.6q.2 2.65.93 4.58.74 1.92 1.95 3.18 1.2 1.25 2.86 1.87t3.67.62 3.47-.47q1.45-.46 2.54-1.03t1.91-1.04 1.59-.47q1.04 0 1.54.77l2.38 3.01q-1.37 1.61-3.08 2.7t-3.57 1.74q-1.86.66-3.78.92-1.93.27-3.74.27-3.58 0-6.66-1.19-3.09-1.19-5.36-3.51-2.28-2.33-3.59-5.77-1.31-3.43-1.31-7.95 0-3.52 1.14-6.62t3.27-5.39q2.13-2.3 5.19-3.64 3.07-1.34 6.92-1.34 3.25 0 6 1.04 2.74 1.04 4.72 3.03 1.98 2 3.1 4.89 1.12 2.9 1.12 6.62 0 1.88-.4 2.53t-1.54.65m15.31-16.71.57 2.71q1.04-1.04 2.19-1.93 1.16-.88 2.45-1.5t2.76-.98q1.47-.35 3.22-.35 2.81 0 4.99.96 2.18.95 3.63 2.68 1.46 1.72 2.21 4.12.76 2.39.76 5.27v21.88h-8.28v-21.88q0-3.14-1.44-4.87t-4.39-1.73q-2.14 0-4.02.98-1.87.97-3.55 2.64v24.86h-8.27v-34.37h5.06q1.6 0 2.11 1.51m42.07 33.4q-4.49 0-6.88-2.53-2.4-2.53-2.4-6.99v-19.19h-3.51q-.67 0-1.14-.44-.47-.43-.47-1.31v-3.28l5.53-.9 1.74-9.38q.17-.67.63-1.04.47-.37 1.21-.37h4.29v10.82h9.18v5.9h-9.18v18.62q0 1.61.79 2.51.78.91 2.16.91.77 0 1.29-.18.52-.19.9-.39.39-.2.69-.39.3-.18.6-.18.37 0 .6.18.24.19.51.56l2.47 4.02q-1.8 1.5-4.15 2.28-2.34.77-4.86.77"/></svg>