<svg xmlns="http://www.w3.org/2000/svg" width="800" height="400" viewBox="0 0 800 400"><rect width="100%" height="100%" fill="#cccccc"/><path fill="#333333" d="M172.12 219.95h22.55v8.66h-33.04v-56.39h10.49zm46.22-31.98q4.45 0 8.09 1.44 3.65 1.45 6.24 4.1 2.6 2.65 4 6.47 1.4 3.83 1.4 8.54 0 4.76-1.4 8.58-1.4 3.83-4 6.52-2.59 2.69-6.24 4.13-3.64 1.44-8.09 1.44-4.49 0-8.15-1.44-3.67-1.44-6.26-4.13t-4.02-6.52q-1.42-3.82-1.42-8.58 0-4.71 1.42-8.54 1.43-3.82 4.02-6.47t6.26-4.1q3.66-1.44 8.15-1.44m0 33.81q4.99 0 7.39-3.35t2.4-9.83q0-6.47-2.4-9.86-2.4-3.4-7.39-3.4-5.07 0-7.51 3.42-2.44 3.41-2.44 9.84 0 6.44 2.44 9.81t7.51 3.37m76.91-33.18h7.33l-12.71 40.01h-7.73q-1.32 0-1.83-1.72l-7.18-23.12q-.35-1.17-.64-2.32t-.49-2.32q-.23 1.17-.52 2.36-.3 1.19-.65 2.35l-7.29 23.05q-.47 1.72-2.07 1.72h-7.41l-12.67-40.01h7.68q1.05 0 1.8.5.74.51.97 1.29l5.73 21.37q.43 1.76.76 3.43.34 1.68.57 3.36.43-1.68.92-3.36.48-1.67 1.03-3.43l6.63-21.45q.23-.78.92-1.29.68-.5 1.65-.5h4.25q1.02 0 1.74.5.72.51.96 1.29l6.43 21.45q.51 1.76.96 3.45.44 1.7.87 3.38.51-3.32 1.45-6.83l5.89-21.37q.27-.78.97-1.29.7-.5 1.68-.5m20.39 15.4h18.18q0-1.87-.53-3.53-.52-1.66-1.58-2.9-1.05-1.25-2.67-1.97t-3.76-.72q-4.18 0-6.57 2.37-2.4 2.38-3.07 6.75m24.57 5.81h-24.76q.23 3.08 1.09 5.33.86 2.24 2.26 3.7 1.41 1.46 3.34 2.18 1.93.73 4.27.73t4.03-.55q1.7-.55 2.97-1.21t2.22-1.21q.96-.54 1.85-.54 1.21 0 1.8.89l2.77 3.51q-1.6 1.88-3.59 3.14-1.99 1.27-4.15 2.03-2.17.76-4.41 1.07t-4.35.31q-4.17 0-7.76-1.38t-6.24-4.09q-2.65-2.72-4.17-6.71-1.52-4-1.52-9.26 0-4.1 1.32-7.71 1.33-3.6 3.8-6.28 2.48-2.67 6.05-4.23t8.05-1.56q3.79 0 6.98 1.21 3.2 1.21 5.5 3.53t3.61 5.69q1.31 3.38 1.31 7.71 0 2.18-.47 2.94t-1.8.76m17.98-18.8.59 4.53q1.87-3.59 4.44-5.64 2.58-2.05 6.09-2.05 2.77 0 4.44 1.21l-.62 7.22q-.19.7-.57.99-.37.3-.99.3-.58 0-1.74-.2-1.15-.19-2.24-.19-1.6 0-2.84.46-1.25.47-2.25 1.35-.99.88-1.75 2.12-.76 1.25-1.43 2.85v24.65h-9.63V188.6h5.66q1.48 0 2.06.52.59.53.78 1.89m94.31-18.79h7.91v56.39h-9.24v-36.43q0-2.18.23-4.72l-17.04 32.02q-1.21 2.3-3.7 2.3h-1.49q-2.49 0-3.7-2.3l-17.24-32.13q.12 1.28.2 2.53.07 1.25.07 2.3v36.43h-9.24v-56.39h7.92q.7 0 1.21.04.5.03.91.19t.74.51q.34.35.65.93l16.88 31.32q.67 1.25 1.23 2.57.57 1.33 1.11 2.73.55-1.44 1.14-2.78.58-1.35 1.24-2.6l16.66-31.24q.31-.58.66-.93t.76-.51.92-.19q.5-.04 1.21-.04m40.09 46.05v-6.74q-4.18.19-7.02.72-2.85.53-4.57 1.34-1.71.82-2.45 1.92-.74 1.09-.74 2.38 0 2.53 1.5 3.62t3.92 1.09q2.96 0 5.13-1.07 2.16-1.07 4.23-3.26m-20.36-21.02-1.72-3.08q6.91-6.32 16.62-6.32 3.51 0 6.28 1.16 2.77 1.15 4.68 3.19 1.91 2.05 2.9 4.9 1 2.85 1 6.24v25.27h-4.37q-1.37 0-2.11-.41t-1.17-1.66l-.86-2.88q-1.52 1.36-2.96 2.4-1.44 1.03-3 1.73t-3.34 1.07q-1.77.37-3.92.37-2.53 0-4.68-.68-2.14-.68-3.7-2.05-1.56-1.36-2.42-3.39t-.86-4.72q0-1.52.51-3.02t1.66-2.87q1.15-1.36 2.98-2.57t4.5-2.11q2.68-.89 6.23-1.46 3.54-.57 8.11-.68v-2.34q0-4.02-1.72-5.95-1.71-1.93-4.95-1.93-2.34 0-3.88.55-1.54.54-2.71 1.22-1.17.69-2.13 1.23-.95.55-2.12.55-1.02 0-1.72-.53-.7-.52-1.13-1.23m47.31-6.24.58 4.53q1.87-3.59 4.45-5.64 2.57-2.05 6.08-2.05 2.77 0 4.45 1.21l-.63 7.22q-.19.7-.56.99-.37.3-1 .3-.58 0-1.73-.2-1.15-.19-2.24-.19-1.6 0-2.85.46-1.25.47-2.24 1.35-1 .88-1.76 2.12-.76 1.25-1.42 2.85v24.65h-9.64V188.6h5.66q1.48 0 2.07.52.58.53.78 1.89m20.9-2.41h9.67v40.01h-9.67zm11-11.66q0 1.24-.51 2.33-.51 1.1-1.34 1.92-.84.82-1.97 1.3-1.13.49-2.42.49-1.25 0-2.36-.49-1.11-.48-1.93-1.3t-1.31-1.92q-.49-1.09-.49-2.33 0-1.29.49-2.42t1.31-1.95 1.93-1.31 2.36-.49q1.29 0 2.42.49t1.97 1.31q.83.82 1.34 1.95t.51 2.42m16.85 13.41.66 3.16q1.21-1.21 2.55-2.24 1.35-1.04 2.85-1.76t3.22-1.13q1.71-.41 3.74-.41 3.28 0 5.81 1.11 2.54 1.12 4.23 3.12 1.7 2.01 2.58 4.8t.88 6.14v25.47h-9.64v-25.47q0-3.66-1.67-5.67-1.68-2.01-5.11-2.01-2.5 0-4.68 1.13-2.19 1.13-4.14 3.08v28.94h-9.63V188.6h5.89q1.87 0 2.46 1.75M611.54 204h18.17q0-1.87-.53-3.53-.52-1.66-1.57-2.9-1.06-1.25-2.68-1.97-1.61-.72-3.76-.72-4.17 0-6.57 2.37-2.4 2.38-3.06 6.75m24.57 5.81h-24.77q.24 3.08 1.09 5.33.86 2.24 2.27 3.7 1.4 1.46 3.33 2.18 1.93.73 4.27.73t4.04-.55q1.69-.55 2.96-1.21t2.22-1.21q.96-.54 1.86-.54 1.21 0 1.79.89l2.77 3.51q-1.6 1.88-3.59 3.14-1.99 1.27-4.15 2.03-2.17.76-4.41 1.07t-4.35.31q-4.17 0-7.76-1.38t-6.24-4.09q-2.65-2.72-4.17-6.71-1.52-4-1.52-9.26 0-4.1 1.32-7.71 1.33-3.6 3.81-6.28 2.47-2.67 6.04-4.23t8.06-1.56q3.78 0 6.98 1.21 3.19 1.21 5.5 3.53 2.3 2.32 3.6 5.69 1.31 3.38 1.31 7.71 0 2.18-.47 2.94t-1.79.76"/></svg>