<svg xmlns="http://www.w3.org/2000/svg" width="800" height="400" viewBox="0 0 800 400"><rect width="100%" height="100%" fill="#cccccc"/><path fill="#333333" d="M168.115 210.07h16.47v6.33h-24.14v-41.21h7.67zm33.77-23.37q3.25 0 5.91 1.06 2.67 1.05 4.56 2.99 1.9 1.94 2.92 4.73 1.03 2.79 1.03 6.24 0 3.48-1.03 6.27-1.02 2.8-2.92 4.76-1.89 1.97-4.56 3.02-2.66 1.06-5.91 1.06-3.28 0-5.96-1.06-2.68-1.05-4.57-3.02-1.9-1.96-2.94-4.76-1.04-2.79-1.04-6.27 0-3.45 1.04-6.24t2.94-4.73q1.89-1.94 4.57-2.99 2.68-1.06 5.96-1.06m0 24.71q3.65 0 5.4-2.45t1.75-7.18-1.75-7.21-5.4-2.48q-3.71 0-5.49 2.49-1.78 2.5-1.78 7.2t1.78 7.17q1.78 2.46 5.49 2.46m56.2-24.25h5.36l-9.29 29.24h-5.65q-.96 0-1.33-1.25l-5.25-16.9q-.26-.86-.47-1.7t-.36-1.7q-.17.86-.38 1.73t-.47 1.72l-5.33 16.85q-.34 1.25-1.51 1.25h-5.42l-9.26-29.24h5.62q.77 0 1.31.37t.71.94l4.19 15.62q.31 1.28.56 2.51.24 1.22.41 2.45.31-1.23.67-2.45.35-1.23.75-2.51l4.85-15.68q.17-.57.67-.94t1.21-.37h3.11q.74 0 1.26.37.53.37.7.94l4.71 15.68q.37 1.28.69 2.52.33 1.24.64 2.47.38-2.43 1.06-4.99l4.3-15.62q.2-.57.72-.94.51-.37 1.22-.37m14.91 11.26h13.28q0-1.37-.39-2.58-.38-1.21-1.15-2.13-.77-.91-1.95-1.44-1.19-.52-2.75-.52-3.05 0-4.81 1.74-1.75 1.73-2.23 4.93m17.95 4.24h-18.1q.17 2.25.8 3.89t1.65 2.71q1.03 1.07 2.44 1.6 1.41.52 3.12.52t2.95-.4q1.24-.39 2.17-.88.92-.48 1.62-.88t1.36-.4q.88 0 1.31.65l2.02 2.57q-1.17 1.37-2.62 2.29-1.45.93-3.04 1.49-1.58.55-3.22.78t-3.17.23q-3.05 0-5.68-1.01-2.62-1.02-4.56-3-1.93-1.98-3.05-4.9-1.11-2.92-1.11-6.77 0-2.99.97-5.63.97-2.63 2.78-4.58 1.81-1.96 4.42-3.1t5.88-1.14q2.77 0 5.1.89 2.34.88 4.02 2.58 1.68 1.69 2.64 4.16.95 2.46.95 5.63 0 1.59-.34 2.15-.34.55-1.31.55m13.14-13.73.43 3.3q1.37-2.62 3.25-4.12 1.88-1.49 4.44-1.49 2.03 0 3.25.88l-.45 5.27q-.15.52-.42.73t-.72.21q-.43 0-1.27-.14t-1.64-.14q-1.17 0-2.08.34t-1.64.98q-.73.65-1.28 1.56-.56.91-1.04 2.08v18.01h-7.04v-29.24h4.13q1.08 0 1.51.38.43.39.57 1.39m38.67 11.91h13.11l-5.01-13.71q-.37-.91-.77-2.17-.4-1.25-.8-2.7-.37 1.45-.77 2.72t-.77 2.21zm10.46-25.65 16.19 41.21h-5.93q-.99 0-1.62-.5t-.94-1.24l-3.08-8.41h-17.07l-3.08 8.41q-.23.66-.88 1.2-.66.54-1.63.54h-5.98l16.21-41.21zm37.71 32.55v-13.11q-1.17-1.46-2.59-2.06-1.43-.59-3.05-.59-1.6 0-2.88.59-1.28.6-2.2 1.81-.91 1.22-1.39 3.08-.49 1.87-.49 4.4 0 2.57.42 4.35.41 1.78 1.18 2.91.77 1.12 1.88 1.62t2.48.5q2.19 0 3.73-.91t2.91-2.59m2.74-20.58h4.3v38.79h-7.04v-13.26q-1.74 1.86-3.93 3-2.2 1.14-5.11 1.14-2.39 0-4.38-1-2-1-3.44-2.89-1.44-1.9-2.22-4.69-.79-2.79-.79-6.39 0-3.24.89-6.04.88-2.79 2.53-4.84 1.66-2.05 3.97-3.21 2.3-1.15 5.18-1.15 2.74 0 4.59.94t3.31 2.53l.37-1.65q.37-1.28 1.77-1.28m29.41 0h7.04v29.24h-4.31q-1.39 0-1.76-1.28l-.49-2.34q-1.79 1.82-3.96 2.95t-5.1 1.13q-2.4 0-4.23-.82-1.84-.81-3.1-2.29-1.25-1.48-1.89-3.52t-.64-4.49v-18.58h7.04v18.58q0 2.68 1.24 4.15t3.72 1.47q1.82 0 3.42-.82 1.59-.81 3.02-2.23zm29.44 21.69v-4.93q-3.05.14-5.13.52-2.08.39-3.34.99-1.25.6-1.79 1.39-.54.8-.54 1.74 0 1.85 1.09 2.65 1.1.8 2.87.8 2.16 0 3.75-.78 1.58-.79 3.09-2.38m-14.88-15.36-1.25-2.26q5.04-4.61 12.14-4.61 2.56 0 4.59.84 2.02.84 3.42 2.34 1.39 1.49 2.12 3.57t.73 4.56v18.47h-3.2q-.99 0-1.53-.3-.55-.3-.86-1.21l-.63-2.11q-1.11 1-2.16 1.75-1.06.76-2.2 1.27t-2.43.79q-1.3.27-2.87.27-1.85 0-3.42-.5t-2.71-1.5-1.76-2.48q-.63-1.48-.63-3.45 0-1.11.37-2.21.37-1.09 1.21-2.09t2.18-1.88q1.34-.89 3.29-1.54 1.96-.66 4.55-1.07t5.93-.5v-1.71q0-2.93-1.26-4.34-1.25-1.42-3.62-1.42-1.71 0-2.83.4-1.13.4-1.98.9-.86.5-1.56.9-.69.4-1.55.4-.74 0-1.25-.39-.52-.38-.83-.89m51.16-2.71-1.85 2.56q-.32.4-.62.63t-.87.23q-.54 0-1.05-.33t-1.23-.74q-.71-.41-1.69-.74-.99-.33-2.44-.33-1.85 0-3.25.67-1.39.67-2.32 1.92-.93 1.26-1.38 3.04-.46 1.78-.46 4.03 0 2.34.5 4.16.5 1.83 1.44 3.07t2.28 1.88 3.02.64 2.72-.41q1.04-.42 1.75-.92.72-.49 1.24-.91.53-.41 1.19-.41.85 0 1.28.65l2.02 2.57q-1.17 1.37-2.53 2.29-1.37.93-2.84 1.49-1.47.55-3.02.78t-3.09.23q-2.71 0-5.1-1.01-2.4-1.02-4.19-2.95-1.8-1.94-2.84-4.75t-1.04-6.4q0-3.22.93-5.97.92-2.75 2.72-4.76 1.79-2.01 4.44-3.15 2.66-1.14 6.1-1.14 3.28 0 5.75 1.06 2.46 1.05 4.43 3.02m22.83-3.62h7.04v29.24h-4.31q-1.39 0-1.76-1.28l-.49-2.34q-1.79 1.82-3.96 2.95t-5.1 1.13q-2.4 0-4.23-.82-1.84-.81-3.1-2.29-1.25-1.48-1.89-3.52t-.64-4.49v-18.58h7.04v18.58q0 2.68 1.24 4.15t3.72 1.47q1.82 0 3.42-.82 1.59-.81 3.02-2.23zm14.08-13.11h7.04v42.35h-7.04zm23.82 42.81q-3.82 0-5.86-2.16-2.03-2.15-2.03-5.94v-16.33h-3q-.57 0-.96-.37-.4-.37-.4-1.11v-2.79l4.7-.77 1.48-7.98q.14-.57.54-.89.4-.31 1.03-.31h3.65v9.21h7.81v5.01h-7.81v15.85q0 1.37.67 2.13.67.77 1.83.77.66 0 1.1-.15.44-.16.77-.33t.59-.33q.25-.15.51-.15.31 0 .51.15.2.16.43.47l2.11 3.42q-1.54 1.29-3.54 1.94-1.99.66-4.13.66m29.61-29.7h7.04v29.24h-4.3q-1.4 0-1.77-1.28l-.48-2.34q-1.8 1.82-3.96 2.95-2.17 1.13-5.11 1.13-2.39 0-4.23-.82-1.84-.81-3.09-2.29t-1.9-3.52q-.64-2.04-.64-4.49v-18.58h7.04v18.58q0 2.68 1.24 4.15t3.72 1.47q1.83 0 3.42-.82 1.6-.81 3.02-2.23zm20.21 1.77.43 3.3q1.37-2.62 3.25-4.12 1.88-1.49 4.44-1.49 2.03 0 3.25.88l-.45 5.27q-.15.52-.42.73t-.72.21q-.43 0-1.27-.14t-1.64-.14q-1.17 0-2.08.34t-1.64.98q-.73.65-1.28 1.56-.56.91-1.04 2.08v18.01h-7.04v-29.24h4.13q1.08 0 1.51.38.43.39.57 1.39m20.61 9.49h13.28q0-1.37-.39-2.58-.38-1.21-1.15-2.13-.77-.91-1.96-1.44-1.18-.52-2.75-.52-3.04 0-4.8 1.74-1.75 1.73-2.23 4.93m17.95 4.24h-18.1q.17 2.25.8 3.89t1.65 2.71q1.03 1.07 2.44 1.6 1.41.52 3.12.52t2.95-.4q1.24-.39 2.17-.88.92-.48 1.62-.88t1.36-.4q.88 0 1.31.65l2.02 2.57q-1.17 1.37-2.62 2.29-1.46.93-3.04 1.49-1.58.55-3.22.78t-3.18.23q-3.05 0-5.67-1.01-2.62-1.02-4.56-3t-3.05-4.9-1.11-6.77q0-2.99.97-5.63.97-2.63 2.78-4.58 1.81-1.96 4.42-3.1 2.6-1.14 5.88-1.14 2.77 0 5.1.89 2.34.88 4.02 2.58 1.68 1.69 2.64 4.16.95 2.46.95 5.63 0 1.59-.34 2.15-.34.55-1.31.55"/></svg>