<svg xmlns="http://www.w3.org/2000/svg" width="800" height="400" viewBox="0 0 800 400"><rect width="100%" height="100%" fill="#cccccc"/><path fill="#333333" d="M171.465 217.44h19.66v7.55h-28.8v-49.16h9.14zm40.29-27.88q3.88 0 7.06 1.26t5.44 3.57 3.48 5.64q1.23 3.34 1.23 7.45 0 4.15-1.23 7.48-1.22 3.33-3.48 5.68-2.26 2.34-5.44 3.6t-7.06 1.26q-3.91 0-7.1-1.26-3.2-1.26-5.46-3.6-2.26-2.35-3.5-5.68t-1.24-7.48q0-4.11 1.24-7.45 1.24-3.33 3.5-5.64t5.46-3.57q3.19-1.26 7.1-1.26m0 29.48q4.36 0 6.45-2.92 2.09-2.93 2.09-8.57 0-5.65-2.09-8.6-2.09-2.96-6.45-2.96-4.42 0-6.54 2.97-2.13 2.98-2.13 8.59t2.13 8.55q2.12 2.94 6.54 2.94m67.05-28.93h6.39l-11.08 34.88h-6.73q-1.16 0-1.6-1.5l-6.26-20.16q-.3-1.02-.56-2.02-.25-1-.42-2.02-.21 1.02-.46 2.05-.26 1.04-.56 2.06l-6.36 20.09q-.41 1.5-1.8 1.5h-6.46l-11.05-34.88h6.7q.91 0 1.56.44t.85 1.12l5 18.63q.37 1.53.66 2.99.29 1.47.49 2.93.38-1.46.8-2.93.43-1.46.9-2.99l5.78-18.7q.21-.68.8-1.12.6-.44 1.45-.44h3.7q.89 0 1.52.44t.83 1.12l5.61 18.7q.44 1.53.83 3.01t.77 2.94q.44-2.89 1.26-5.95l5.13-18.63q.24-.68.85-1.12t1.46-.44m17.78 13.43h15.85q0-1.64-.46-3.08-.46-1.45-1.38-2.53-.92-1.09-2.33-1.72t-3.28-.63q-3.64 0-5.73 2.07-2.09 2.08-2.67 5.89m21.42 5.06h-21.59q.21 2.69.96 4.64.74 1.96 1.97 3.23 1.22 1.28 2.91 1.91 1.68.63 3.72.63t3.52-.48 2.58-1.05q1.11-.58 1.94-1.06.83-.47 1.61-.47 1.06 0 1.57.78l2.41 3.06q-1.39 1.63-3.13 2.73-1.73 1.11-3.62 1.77-1.88.67-3.84.94-1.95.27-3.79.27-3.64 0-6.77-1.21-3.12-1.2-5.44-3.57-2.31-2.36-3.63-5.85-1.33-3.48-1.33-8.07 0-3.57 1.16-6.72 1.15-3.14 3.31-5.47t5.27-3.69 7.02-1.36q3.3 0 6.09 1.06 2.79 1.05 4.79 3.07 2.01 2.03 3.15 4.97t1.14 6.71q0 1.91-.41 2.57t-1.57.66m15.68-16.39.51 3.95q1.63-3.13 3.87-4.92 2.25-1.78 5.31-1.78 2.41 0 3.87 1.05l-.54 6.29q-.17.62-.49.87-.33.26-.87.26-.51 0-1.51-.17-1.01-.17-1.96-.17-1.39 0-2.48.4-1.09.41-1.95 1.18-.87.76-1.53 1.85-.67 1.09-1.25 2.48v21.49h-8.39v-34.88h4.93q1.29 0 1.8.45.51.46.68 1.65m44.95 8.33h6.83q2.52 0 4.39-.63 1.87-.62 3.11-1.8 1.24-1.17 1.85-2.85.61-1.69.61-3.76 0-1.97-.61-3.57t-1.84-2.72q-1.22-1.12-3.09-1.72-1.87-.59-4.42-.59h-6.83zm-9.15-24.71h15.98q4.93 0 8.53 1.15 3.61 1.16 5.95 3.23 2.35 2.08 3.49 4.97t1.14 6.32q0 3.57-1.19 6.54-1.19 2.98-3.57 5.12t-5.97 3.33-8.38 1.19h-6.83v17.31h-9.15zm47.4 27.71h15.84q0-1.64-.46-3.08-.46-1.45-1.38-2.53-.91-1.09-2.32-1.72t-3.28-.63q-3.64 0-5.73 2.07-2.09 2.08-2.67 5.89m21.42 5.06h-21.59q.2 2.69.95 4.64.75 1.96 1.97 3.23 1.22 1.28 2.91 1.91 1.68.63 3.72.63t3.52-.48 2.58-1.05q1.11-.58 1.94-1.06.83-.47 1.62-.47 1.05 0 1.56.78l2.41 3.06q-1.39 1.63-3.12 2.73-1.74 1.11-3.62 1.77-1.89.67-3.85.94-1.95.27-3.79.27-3.63 0-6.76-1.21-3.13-1.2-5.44-3.57-2.32-2.36-3.64-5.85-1.33-3.48-1.33-8.07 0-3.57 1.16-6.72 1.15-3.14 3.31-5.47t5.27-3.69q3.12-1.36 7.02-1.36 3.3 0 6.09 1.06 2.79 1.05 4.8 3.07 2 2.03 3.14 4.97t1.14 6.71q0 1.91-.41 2.57t-1.56.66m31.45-14.72-1.91 3.03q-.34.54-.71.76t-.95.22q-.62 0-1.31-.34-.7-.34-1.62-.76-.91-.43-2.09-.77-1.17-.34-2.77-.34-2.48 0-3.89 1.06-1.41 1.05-1.41 2.75 0 1.12.73 1.89.73.76 1.94 1.34 1.2.58 2.73 1.04t3.11 1q1.59.54 3.12 1.24t2.73 1.77q1.21 1.07 1.94 2.57.73 1.49.73 3.6 0 2.52-.9 4.64-.9 2.13-2.67 3.67-1.77 1.55-4.37 2.42-2.6.86-6 .86-1.8 0-3.52-.32-1.71-.32-3.3-.9-1.58-.58-2.92-1.36t-2.36-1.7l1.94-3.2q.37-.57.88-.88t1.29-.31 1.48.45q.7.44 1.62.95.91.51 2.15.95 1.25.44 3.15.44 1.5 0 2.57-.36 1.07-.35 1.76-.93.7-.58 1.02-1.34.33-.77.33-1.58 0-1.23-.73-2.01t-1.94-1.36-2.76-1.04q-1.54-.46-3.16-1-1.61-.54-3.16-1.27-1.55-.74-2.75-1.86-1.21-1.12-1.94-2.75t-.73-3.95q0-2.14.85-4.08.85-1.93 2.5-3.38 1.65-1.44 4.11-2.31 2.47-.87 5.7-.87 3.6 0 6.56 1.19t4.93 3.13m18.32 31.65q-4.55 0-6.98-2.56-2.43-2.57-2.43-7.09V196.4h-3.57q-.68 0-1.16-.45-.48-.44-.48-1.32v-3.33l5.61-.92 1.77-9.52q.17-.68.65-1.06.47-.37 1.22-.37h4.35v10.98h9.32v5.99h-9.32v18.9q0 1.63.8 2.55t2.2.92q.78 0 1.3-.19.53-.19.92-.39t.7-.39.61-.19q.38 0 .61.19.24.19.51.56l2.52 4.08q-1.84 1.53-4.22 2.31t-4.93.78m13.94-35.42h8.44v34.88h-8.44zm9.59-10.17q0 1.09-.44 2.04t-1.17 1.67q-.73.71-1.72 1.13-.99.43-2.11.43-1.09 0-2.06-.43-.96-.42-1.68-1.13-.71-.72-1.14-1.67-.42-.95-.42-2.04 0-1.12.42-2.11.43-.98 1.14-1.7.72-.71 1.68-1.14.97-.42 2.06-.42 1.12 0 2.11.42.99.43 1.72 1.14.73.72 1.17 1.7.44.99.44 2.11m34.61 14.48-2.21 3.06q-.37.48-.73.75-.35.27-1.03.27-.65 0-1.26-.39t-1.46-.88-2.03-.89q-1.17-.39-2.9-.39-2.21 0-3.88.8t-2.77 2.3q-1.11 1.49-1.65 3.62-.54 2.12-.54 4.81 0 2.79.59 4.96.6 2.18 1.72 3.66t2.72 2.24q1.6.77 3.6.77 2.01 0 3.25-.5 1.24-.49 2.09-1.08.85-.6 1.48-1.09t1.41-.49q1.02 0 1.53.78l2.41 3.06q-1.39 1.63-3.02 2.73-1.63 1.11-3.39 1.77-1.75.67-3.6.94t-3.69.27q-3.23 0-6.08-1.21-2.86-1.2-5-3.52-2.14-2.31-3.39-5.66-1.24-3.35-1.24-7.63 0-3.84 1.11-7.12 1.1-3.28 3.25-5.68 2.14-2.4 5.3-3.76t7.28-1.36q3.91 0 6.85 1.26t5.28 3.6m5.85-4.31h8.43v34.88h-8.43zm9.59-10.17q0 1.09-.44 2.04t-1.18 1.67q-.73.71-1.71 1.13-.99.43-2.11.43-1.09 0-2.06-.43-.97-.42-1.68-1.13-.71-.72-1.14-1.67-.42-.95-.42-2.04 0-1.12.42-2.11.43-.98 1.14-1.7.71-.71 1.68-1.14.97-.42 2.06-.42 1.12 0 2.11.42.98.43 1.71 1.14.74.72 1.18 1.7.44.99.44 2.11m29.31 34.71v-15.64q-1.43-1.73-3.11-2.44-1.69-.72-3.62-.72-1.91 0-3.44.72-1.53.71-2.62 2.15-1.08 1.45-1.66 3.68-.58 2.22-.58 5.25 0 3.06.49 5.18.5 2.13 1.41 3.47.92 1.35 2.25 1.94 1.32.6 2.96.6 2.61 0 4.45-1.09t3.47-3.1m0-40.18h8.4v50.52h-5.14q-1.66 0-2.11-1.53l-.71-3.37q-2.11 2.42-4.85 3.91-2.73 1.5-6.37 1.5-2.86 0-5.24-1.19t-4.09-3.45q-1.72-2.26-2.66-5.59-.93-3.34-.93-7.62 0-3.88 1.05-7.21 1.06-3.33 3.03-5.78t4.73-3.82q2.75-1.38 6.18-1.38 2.93 0 5 .92 2.08.92 3.71 2.48zm23.32 29.07h15.85q0-1.64-.46-3.08-.46-1.45-1.38-2.53-.92-1.09-2.33-1.72t-3.28-.63q-3.64 0-5.73 2.07-2.09 2.08-2.67 5.89m21.42 5.06h-21.59q.21 2.69.95 4.64.75 1.96 1.98 3.23 1.22 1.28 2.9 1.91 1.69.63 3.73.63t3.51-.48q1.48-.48 2.59-1.05 1.1-.58 1.94-1.06.83-.47 1.61-.47 1.06 0 1.57.78l2.41 3.06q-1.39 1.63-3.13 2.73-1.73 1.11-3.62 1.77-1.89.67-3.84.94-1.96.27-3.79.27-3.64 0-6.77-1.21-3.13-1.2-5.44-3.57-2.31-2.36-3.64-5.85-1.32-3.48-1.32-8.07 0-3.57 1.15-6.72 1.16-3.14 3.32-5.47t5.27-3.69 7.02-1.36q3.3 0 6.09 1.06 2.78 1.05 4.79 3.07 2.01 2.03 3.14 4.97 1.14 2.94 1.14 6.71 0 1.91-.4 2.57-.41.66-1.57.66"/></svg>