<svg xmlns="http://www.w3.org/2000/svg" width="800" height="400" viewBox="0 0 800 400"><rect width="100%" height="100%" fill="#cccccc"/><path fill="#333333" d="M173.23 218.47h20.81v7.99h-30.49V174.4h9.68zm42.66-29.52q4.11 0 7.47 1.33 3.37 1.33 5.76 3.78 2.4 2.45 3.69 5.98 1.3 3.52 1.3 7.88 0 4.39-1.3 7.92-1.29 3.53-3.69 6.01-2.39 2.49-5.76 3.82Q220 227 215.89 227q-4.14 0-7.52-1.33t-5.78-3.82q-2.39-2.48-3.71-6.01-1.31-3.53-1.31-7.92 0-4.36 1.31-7.88 1.32-3.53 3.71-5.98 2.4-2.45 5.78-3.78t7.52-1.33m0 31.21q4.61 0 6.83-3.1 2.21-3.09 2.21-9.07 0-5.97-2.21-9.11-2.22-3.13-6.83-3.13-4.68 0-6.93 3.15t-2.25 9.09 2.25 9.06q2.25 3.11 6.93 3.11m71-30.64h6.76l-11.73 36.94h-7.13q-1.22 0-1.69-1.58l-6.63-21.35q-.32-1.08-.59-2.14-.27-1.07-.45-2.15-.22 1.08-.49 2.18t-.59 2.18l-6.73 21.28q-.43 1.58-1.91 1.58h-6.84l-11.7-36.94h7.09q.97 0 1.66.47.68.47.9 1.19l5.29 19.73q.4 1.62.7 3.17.31 1.54.52 3.09.4-1.55.85-3.09.45-1.55.95-3.17l6.12-19.8q.22-.72.85-1.19t1.53-.47h3.92q.94 0 1.61.47.66.47.88 1.19l5.94 19.8q.47 1.62.88 3.18.41 1.57.81 3.12.47-3.06 1.33-6.3l5.44-19.73q.25-.72.9-1.19t1.55-.47m18.82 14.22h16.78q0-1.72-.49-3.25-.48-1.53-1.45-2.69-.98-1.15-2.47-1.81-1.49-.67-3.47-.67-3.86 0-6.07 2.2-2.21 2.19-2.83 6.22m22.68 5.37h-22.86q.22 2.84 1.01 4.91t2.09 3.42 3.08 2.02q1.78.66 3.94.66t3.73-.5q1.56-.5 2.73-1.12 1.17-.61 2.05-1.11.89-.51 1.71-.51 1.12 0 1.66.83l2.56 3.24q-1.48 1.73-3.32 2.9-1.83 1.17-3.83 1.87t-4.07.99-4.01.29q-3.85 0-7.17-1.28-3.31-1.28-5.76-3.78-2.44-2.5-3.85-6.19-1.4-3.69-1.4-8.55 0-3.78 1.22-7.11 1.23-3.33 3.51-5.8 2.29-2.46 5.58-3.9 3.3-1.44 7.44-1.44 3.49 0 6.44 1.11 2.95 1.12 5.08 3.26 2.12 2.14 3.33 5.26 1.2 3.11 1.2 7.11 0 2.01-.43 2.72-.43.7-1.66.7m16.6-17.35.54 4.17q1.73-3.31 4.1-5.2 2.38-1.89 5.62-1.89 2.56 0 4.1 1.12l-.57 6.66q-.18.64-.52.91-.35.27-.92.27-.54 0-1.6-.18-1.07-.18-2.07-.18-1.48 0-2.63.44-1.15.43-2.07 1.24t-1.62 1.96-1.32 2.63v22.75h-8.89v-36.94h5.22q1.37 0 1.91.49t.72 1.75m74.27-17.36v7.96h-15.7v44.1h-9.68v-44.1h-15.7v-7.96zm14.33-1.44v20.52q2.16-2.01 4.75-3.27t6.08-1.26q3.03 0 5.37 1.02 2.34 1.03 3.9 2.88 1.57 1.86 2.38 4.43.81 2.58.81 5.67v23.51h-8.89v-23.51q0-3.38-1.55-5.24-1.55-1.85-4.72-1.85-2.3 0-4.32 1.04-2.01 1.05-3.81 2.85v26.71h-8.9v-53.5zm38.73 30.78h16.78q0-1.72-.49-3.25-.48-1.53-1.46-2.69-.97-1.15-2.46-1.81-1.5-.67-3.48-.67-3.85 0-6.06 2.2-2.22 2.19-2.83 6.22m22.68 5.37h-22.86q.22 2.84 1.01 4.91t2.09 3.42q1.29 1.35 3.08 2.02 1.78.66 3.94.66t3.72-.5q1.57-.5 2.74-1.12 1.17-.61 2.05-1.11.88-.51 1.71-.51 1.12 0 1.66.83l2.55 3.24q-1.47 1.73-3.31 2.9-1.83 1.17-3.83 1.87t-4.07.99-4.01.29q-3.86 0-7.17-1.28t-5.76-3.78-3.85-6.19-1.4-8.55q0-3.78 1.22-7.11t3.51-5.8q2.29-2.46 5.58-3.9t7.43-1.44q3.5 0 6.45 1.11 2.95 1.12 5.07 3.26 2.13 2.14 3.33 5.26 1.21 3.11 1.21 7.11 0 2.01-.43 2.72-.43.7-1.66.7m16.6-17.35.54 4.17q1.73-3.31 4.1-5.2 2.38-1.89 5.62-1.89 2.55 0 4.1 1.12l-.57 6.66q-.18.64-.53.91-.34.27-.91.27-.54 0-1.61-.18-1.06-.18-2.07-.18-1.47 0-2.62.44-1.16.43-2.07 1.24-.92.81-1.62 1.96-.71 1.15-1.32 2.63v22.75h-8.89v-36.94h5.22q1.37 0 1.91.49t.72 1.75m27.9 34.7h-8.89v-36.94h5.43q1.73 0 2.27 1.62l.58 2.74q.97-1.08 2.03-1.98t2.27-1.55q1.2-.65 2.59-1.02 1.39-.38 3.04-.38 3.49 0 5.74 1.89t3.37 5.02q.86-1.84 2.16-3.15t2.84-2.14q1.55-.83 3.3-1.23 1.74-.39 3.51-.39 3.06 0 5.43.93 2.38.94 4 2.74t2.47 4.39q.84 2.59.84 5.94v23.51h-8.89v-23.51q0-3.53-1.55-5.31t-4.53-1.78q-1.37 0-2.54.47t-2.05 1.35q-.89.88-1.39 2.21t-.5 3.06v23.51h-8.93v-23.51q0-3.71-1.5-5.4-1.49-1.69-4.37-1.69-1.94 0-3.62.95-1.67.96-3.11 2.61zm70.92-9.54v-6.23q-3.85.18-6.48.67-2.63.48-4.21 1.24-1.59.76-2.27 1.76-.69 1.01-.69 2.2 0 2.34 1.39 3.35t3.62 1.01q2.73 0 4.73-.99t3.91-3.01m-18.79-19.4-1.59-2.85q6.37-5.83 15.34-5.83 3.24 0 5.79 1.06 2.56 1.06 4.32 2.95 1.77 1.89 2.69 4.52.91 2.63.91 5.76v23.33h-4.03q-1.26 0-1.94-.38-.69-.38-1.08-1.53l-.79-2.66q-1.41 1.26-2.74 2.21-1.33.96-2.77 1.6-1.44.65-3.08.99-1.64.35-3.62.35-2.34 0-4.32-.63t-3.42-1.89-2.23-3.14q-.79-1.87-.79-4.35 0-1.41.47-2.79.46-1.39 1.53-2.65 1.06-1.26 2.75-2.37 1.69-1.12 4.16-1.95 2.46-.83 5.74-1.35t7.49-.63v-2.16q0-3.71-1.59-5.49-1.58-1.78-4.57-1.78-2.16 0-3.58.5-1.42.51-2.5 1.14t-1.96 1.13q-.89.51-1.97.51-.93 0-1.58-.49t-1.04-1.13m35.92-24.56h8.9v53.5h-8.9z"/></svg>