<svg xmlns="http://www.w3.org/2000/svg" width="800" height="400" viewBox="0 0 800 400"><rect width="100%" height="100%" fill="#cccccc"/><path fill="#333333" d="M169.665 213.3h15.03v5.77h-22.02v-37.6h6.99zm30.81-21.32q2.97 0 5.4.96t4.16 2.73 2.66 4.32q.94 2.54.94 5.69 0 3.17-.94 5.72-.93 2.55-2.66 4.34-1.73 1.8-4.16 2.76t-5.4.96q-2.99 0-5.43-.96t-4.17-2.76q-1.73-1.79-2.68-4.34t-.95-5.72q0-3.15.95-5.69.95-2.55 2.68-4.32t4.17-2.73 5.43-.96m0 22.54q3.33 0 4.93-2.24 1.6-2.23 1.6-6.55 0-4.31-1.6-6.58-1.6-2.26-4.93-2.26-3.38 0-5 2.28-1.63 2.27-1.63 6.56t1.63 6.54q1.62 2.25 5 2.25m51.27-22.13h4.89l-8.47 26.68h-5.15q-.89 0-1.22-1.14l-4.79-15.42q-.23-.78-.43-1.55-.19-.77-.32-1.55-.16.78-.35 1.58-.2.79-.43 1.57l-4.86 15.37q-.31 1.14-1.38 1.14h-4.94l-8.45-26.68h5.12q.7 0 1.2.34.49.34.65.86l3.82 14.25q.29 1.17.51 2.29.22 1.11.37 2.23.29-1.12.61-2.23.33-1.12.69-2.29l4.42-14.3q.16-.52.61-.86.46-.34 1.11-.34h2.83q.68 0 1.16.34t.64.86l4.29 14.3q.33 1.17.63 2.3t.59 2.25q.34-2.21.96-4.55l3.93-14.25q.18-.52.65-.86t1.11-.34m13.6 10.27h12.12q0-1.24-.35-2.35-.35-1.1-1.06-1.94-.7-.83-1.78-1.31t-2.51-.48q-2.78 0-4.38 1.59-1.6 1.58-2.04 4.49m16.38 3.88h-16.51q.16 2.05.73 3.55.57 1.49 1.51 2.47.93.97 2.22 1.45t2.85.48 2.69-.36 1.98-.81q.84-.44 1.48-.8.63-.37 1.23-.37.81 0 1.2.6l1.84 2.34q-1.06 1.25-2.39 2.09-1.32.85-2.77 1.36-1.44.5-2.93.71-1.5.21-2.9.21-2.79 0-5.18-.92-2.39-.93-4.16-2.73-1.77-1.81-2.78-4.48-1.01-2.66-1.01-6.17 0-2.73.88-5.14.88-2.4 2.54-4.18 1.65-1.78 4.03-2.82 2.37-1.04 5.36-1.04 2.53 0 4.66.8 2.13.81 3.66 2.36 1.54 1.54 2.41 3.79t.87 5.14q0 1.45-.31 1.96t-1.2.51m11.99-12.53.39 3.01q1.25-2.39 2.96-3.76 1.72-1.36 4.06-1.36 1.84 0 2.96.81l-.41 4.81q-.13.46-.38.66-.25.19-.66.19-.39 0-1.16-.13t-1.5-.13q-1.06 0-1.89.32-.84.31-1.5.89-.66.59-1.17 1.42t-.95 1.9v16.43h-6.42v-26.68h3.77q.99 0 1.38.35.39.36.52 1.27m60.76 6.26q0 4.14-1.38 7.59-1.38 3.46-3.87 5.96-2.5 2.49-6.01 3.87t-7.8 1.38h-14.32v-37.6h14.32q4.29 0 7.8 1.39 3.51 1.4 6.01 3.88 2.49 2.48 3.87 5.94t1.38 7.59m-7.18 0q0-3.09-.81-5.55-.82-2.46-2.37-4.16t-3.74-2.61q-2.2-.91-4.96-.91h-7.3v26.47h7.3q2.76 0 4.96-.91 2.19-.91 3.74-2.62 1.55-1.7 2.37-4.16.81-2.45.81-5.55m17.4 2.39h12.11q0-1.24-.35-2.35-.35-1.1-1.05-1.94-.7-.83-1.78-1.31t-2.51-.48q-2.78 0-4.38 1.59-1.6 1.58-2.04 4.49m16.38 3.88h-16.51q.15 2.05.73 3.55.57 1.49 1.5 2.47.94.97 2.23 1.45 1.28.48 2.84.48t2.7-.36q1.13-.36 1.97-.81.85-.44 1.48-.8.64-.37 1.24-.37.8 0 1.19.6l1.85 2.34q-1.07 1.25-2.39 2.09-1.33.85-2.77 1.36-1.44.5-2.94.71-1.49.21-2.9.21-2.78 0-5.17-.92-2.39-.93-4.16-2.73-1.77-1.81-2.78-4.48-1.02-2.66-1.02-6.17 0-2.73.89-5.14.88-2.4 2.53-4.18t4.03-2.82 5.37-1.04q2.52 0 4.65.8 2.14.81 3.67 2.36 1.53 1.54 2.41 3.79.87 2.25.87 5.14 0 1.45-.32 1.96-.31.51-1.19.51m14.61 12.53h-6.42v-21.84l-2.32-.36q-.75-.16-1.2-.54-.46-.37-.46-1.08v-2.62h3.98v-1.98q0-2.29.69-4.11t1.97-3.09q1.29-1.27 3.14-1.95 1.84-.68 4.16-.68 1.84 0 3.43.5l-.13 3.22q-.03.37-.21.59t-.48.33q-.3.12-.69.16t-.83.04q-1.15 0-2.04.25-.9.24-1.52.86-.63.61-.95 1.61-.33 1-.33 2.48v1.77h6.94v4.57h-6.73zm22.15-27.09q2.97 0 5.4.96t4.16 2.73 2.66 4.32q.94 2.54.94 5.69 0 3.17-.94 5.72-.93 2.55-2.66 4.34-1.73 1.8-4.16 2.76t-5.4.96q-2.99 0-5.43-.96-2.45-.96-4.17-2.76-1.73-1.79-2.68-4.34t-.95-5.72q0-3.15.95-5.69.95-2.55 2.68-4.32 1.72-1.77 4.17-2.73 2.44-.96 5.43-.96m0 22.54q3.33 0 4.93-2.24 1.6-2.23 1.6-6.55 0-4.31-1.6-6.58-1.6-2.26-4.93-2.26-3.38 0-5 2.28-1.63 2.27-1.63 6.56t1.63 6.54q1.62 2.25 5 2.25m23.74-20.51.39 3.01q1.25-2.39 2.96-3.76 1.72-1.36 4.06-1.36 1.85 0 2.96.81l-.41 4.81q-.13.46-.38.66-.24.19-.66.19-.39 0-1.16-.13t-1.49-.13q-1.07 0-1.9.32-.83.31-1.5.89-.66.59-1.17 1.42-.5.83-.95 1.9v16.43h-6.42v-26.68h3.77q.99 0 1.38.35.39.36.52 1.27m18.8 8.65h12.12q0-1.24-.36-2.35-.35-1.1-1.05-1.94-.7-.83-1.78-1.31t-2.51-.48q-2.78 0-4.38 1.59-1.6 1.58-2.04 4.49m16.38 3.88h-16.51q.15 2.05.73 3.55.57 1.49 1.5 2.47.94.97 2.23 1.45t2.85.48 2.69-.36 1.97-.81q.85-.44 1.48-.8.64-.37 1.24-.37.81 0 1.2.6l1.84 2.34q-1.06 1.25-2.39 2.09-1.33.85-2.77 1.36-1.44.5-2.94.71-1.49.21-2.9.21-2.78 0-5.17-.92-2.39-.93-4.16-2.73-1.77-1.81-2.78-4.48-1.02-2.66-1.02-6.17 0-2.73.89-5.14.88-2.4 2.53-4.18t4.03-2.82 5.37-1.04q2.52 0 4.65.8 2.14.81 3.67 2.36 1.54 1.54 2.41 3.79t.87 5.14q0 1.45-.32 1.96-.31.51-1.19.51m24.05-11.26-1.46 2.31q-.26.42-.54.59-.29.17-.73.17-.47 0-1-.26-.54-.26-1.24-.59-.7-.32-1.6-.58-.89-.26-2.12-.26-1.89 0-2.97.8-1.08.81-1.08 2.11 0 .86.56 1.44.56.59 1.48 1.03t2.09.79 2.38.77 2.38.95 2.09 1.35q.93.82 1.49 1.96.55 1.15.55 2.76 0 1.92-.68 3.55-.69 1.62-2.04 2.81-1.36 1.18-3.35 1.84-1.99.67-4.59.67-1.37 0-2.69-.25-1.31-.25-2.52-.69t-2.23-1.04q-1.03-.6-1.81-1.3l1.48-2.44q.29-.45.68-.68t.98-.23q.6 0 1.14.33.53.34 1.23.73t1.65.73 2.41.34q1.14 0 1.96-.28.82-.27 1.35-.71t.78-1.03q.25-.58.25-1.21 0-.93-.56-1.53t-1.48-1.04q-.93-.44-2.11-.79t-2.42-.77q-1.23-.42-2.41-.98-1.19-.55-2.11-1.41t-1.48-2.11-.56-3.01q0-1.64.65-3.12.65-1.49 1.91-2.59 1.26-1.11 3.15-1.77 1.88-.66 4.35-.66 2.76 0 5.02.91t3.77 2.39m14.01 24.21q-3.48 0-5.34-1.97-1.86-1.96-1.86-5.42v-14.9h-2.73q-.52 0-.88-.33-.37-.34-.37-1.02v-2.55l4.29-.7 1.35-7.28q.14-.52.5-.8.36-.29.93-.29h3.33v8.4h7.13v4.57h-7.13v14.46q0 1.25.61 1.95t1.68.7q.6 0 1-.14t.7-.3.54-.3q.23-.14.46-.14.29 0 .47.14t.39.43l1.93 3.12q-1.41 1.17-3.23 1.77t-3.77.6m24.55-7.31v-4.5q-2.78.13-4.68.48t-3.04.9q-1.15.55-1.64 1.27-.5.73-.5 1.59 0 1.69 1 2.42 1.01.73 2.62.73 1.97 0 3.42-.72 1.44-.71 2.82-2.17m-13.57-14.01-1.15-2.06q4.6-4.21 11.08-4.21 2.34 0 4.18.77 1.85.76 3.12 2.13 1.28 1.36 1.94 3.26t.66 4.16v16.85h-2.91q-.91 0-1.4-.27-.5-.28-.78-1.11l-.58-1.92q-1.01.91-1.97 1.6t-2 1.15q-1.04.47-2.23.72-1.18.25-2.61.25-1.69 0-3.12-.46-1.43-.45-2.47-1.36t-1.61-2.27q-.57-1.35-.57-3.14 0-1.02.33-2.02.34-1 1.11-1.91t1.99-1.71q1.22-.81 3-1.41t4.15-.97q2.37-.38 5.41-.46v-1.56q0-2.68-1.15-3.96-1.14-1.29-3.3-1.29-1.56 0-2.59.36-1.02.37-1.8.82-.78.46-1.42.82-.64.37-1.42.37-.67 0-1.14-.36-.47-.35-.75-.81m34.76 21.32q-3.49 0-5.35-1.97-1.86-1.96-1.86-5.42v-14.9h-2.73q-.52 0-.88-.33-.36-.34-.36-1.02v-2.55l4.29-.7 1.35-7.28q.13-.52.49-.8.37-.29.94-.29h3.33v8.4h7.12v4.57h-7.12v14.46q0 1.25.61 1.95t1.67.7q.6 0 1.01-.14.4-.14.7-.3t.53-.3.47-.14q.29 0 .47.14t.39.43l1.92 3.12q-1.4 1.17-3.22 1.77t-3.77.6m10.66-27.1h6.44v26.68h-6.44zm7.33-7.77q0 .83-.34 1.56t-.9 1.27q-.56.55-1.31.87-.75.33-1.61.33-.83 0-1.57-.33-.75-.32-1.29-.87-.55-.54-.87-1.27-.33-.73-.33-1.56 0-.86.33-1.61.32-.76.87-1.3.54-.55 1.29-.87.74-.33 1.57-.33.86 0 1.61.33.75.32 1.31.87.56.54.9 1.3.34.75.34 1.61m17.47 7.36q2.96 0 5.4.96 2.43.96 4.16 2.73 1.72 1.77 2.66 4.32.94 2.54.94 5.69 0 3.17-.94 5.72t-2.66 4.34q-1.73 1.8-4.16 2.76-2.44.96-5.4.96-2.99 0-5.43-.96-2.45-.96-4.18-2.76-1.73-1.79-2.67-4.34-.95-2.55-.95-5.72 0-3.15.95-5.69.94-2.55 2.67-4.32t4.18-2.73q2.44-.96 5.43-.96m0 22.54q3.33 0 4.93-2.24 1.6-2.23 1.6-6.55 0-4.31-1.6-6.58-1.6-2.26-4.93-2.26-3.38 0-5 2.28-1.63 2.27-1.63 6.56t1.63 6.54q1.62 2.25 5 2.25m23.63-20.96.45 2.11q.8-.81 1.7-1.5.9-.68 1.9-1.17 1-.48 2.14-.75 1.15-.27 2.5-.27 2.18 0 3.87.74t2.82 2.08 1.72 3.2q.58 1.86.58 4.09v16.98h-6.42v-16.98q0-2.44-1.12-3.78-1.11-1.34-3.4-1.34-1.67 0-3.12.75-1.46.76-2.76 2.06v19.29h-6.42v-26.68h3.93q1.24 0 1.63 1.17"/></svg>