<svg xmlns="http://www.w3.org/2000/svg" width="800" height="400" viewBox="0 0 800 400"><rect width="100%" height="100%" fill="#cccccc"/><path fill="#333333" d="M172.755 219.745h22.25v8.55h-32.61v-55.67h10.36zm45.62-31.57q4.39 0 7.99 1.43 3.6 1.42 6.16 4.04t3.94 6.39q1.39 3.77 1.39 8.43 0 4.7-1.39 8.47-1.38 3.78-3.94 6.43-2.56 2.66-6.16 4.08-3.6 1.43-7.99 1.43-4.43 0-8.05-1.43-3.62-1.42-6.18-4.08-2.56-2.65-3.96-6.43-1.41-3.77-1.41-8.47 0-4.66 1.41-8.43 1.4-3.77 3.96-6.39t6.18-4.04q3.62-1.43 8.05-1.43m0 33.38q4.93 0 7.3-3.31 2.36-3.31 2.36-9.7t-2.36-9.74q-2.37-3.35-7.3-3.35-5.01 0-7.41 3.37-2.41 3.37-2.41 9.72t2.41 9.68q2.4 3.33 7.41 3.33m75.92-32.76h7.24l-12.55 39.5h-7.62q-1.31 0-1.81-1.69l-7.09-22.83q-.34-1.16-.63-2.3-.29-1.13-.48-2.29-.24 1.16-.52 2.33-.29 1.18-.64 2.33l-7.2 22.76q-.46 1.69-2.04 1.69h-7.31l-12.52-39.5h7.59q1.04 0 1.77.5t.96 1.27l5.66 21.1q.42 1.73.75 3.39.33 1.65.56 3.31.42-1.66.9-3.31.49-1.66 1.02-3.39l6.55-21.18q.23-.77.9-1.27.68-.5 1.64-.5h4.2q1 0 1.71.5t.94 1.27l6.36 21.18q.5 1.73.94 3.41.44 1.67.87 3.33.5-3.28 1.42-6.74l5.81-21.1q.27-.77.97-1.27.69-.5 1.65-.5m20.14 15.21h17.94q0-1.85-.52-3.49-.52-1.63-1.56-2.87-1.04-1.23-2.64-1.94t-3.71-.71q-4.12 0-6.49 2.35-2.37 2.34-3.02 6.66m24.25 5.73h-24.45q.24 3.04 1.08 5.26.85 2.21 2.24 3.66 1.38 1.44 3.29 2.15 1.9.71 4.21.71t3.99-.53q1.67-.54 2.92-1.2 1.25-.65 2.2-1.19.94-.54 1.83-.54 1.19 0 1.77.88l2.73 3.47q-1.58 1.85-3.54 3.1t-4.1 2-4.35 1.06q-2.22.31-4.29.31-4.12 0-7.67-1.37-3.54-1.37-6.16-4.04-2.61-2.68-4.12-6.62-1.5-3.95-1.5-9.15 0-4.04 1.31-7.6t3.76-6.2q2.44-2.64 5.96-4.18 3.53-1.54 7.95-1.54 3.74 0 6.9 1.2 3.15 1.19 5.42 3.48 2.28 2.29 3.57 5.62 1.28 3.33 1.28 7.61 0 2.15-.46 2.9t-1.77.75m17.75-18.55.58 4.46q1.85-3.54 4.39-5.56t6-2.02q2.74 0 4.39 1.19l-.61 7.12q-.2.7-.56.99-.37.28-.98.28-.58 0-1.72-.19-1.13-.19-2.21-.19-1.58 0-2.81.46t-2.22 1.33q-.98.87-1.73 2.1t-1.4 2.81v24.33h-9.51v-39.5h5.58q1.46 0 2.04.52t.77 1.87m50.9 28.56h22.25v8.55h-32.61v-55.67h10.36zm49.01-1.65v-6.66q-4.12.19-6.93.71t-4.51 1.33q-1.69.81-2.42 1.88-.73 1.08-.73 2.35 0 2.51 1.48 3.58 1.48 1.08 3.87 1.08 2.92 0 5.06-1.06t4.18-3.21m-20.1-20.75-1.69-3.05q6.81-6.23 16.4-6.23 3.46 0 6.2 1.13 2.73 1.14 4.62 3.16 1.88 2.02 2.86 4.83.99 2.81.99 6.16v24.95h-4.32q-1.34 0-2.07-.4-.74-.41-1.16-1.64l-.85-2.85q-1.5 1.35-2.92 2.37-1.43 1.02-2.97 1.71t-3.29 1.06-3.87.37q-2.5 0-4.62-.68-2.12-.67-3.66-2.02t-2.38-3.35q-.85-2-.85-4.66 0-1.5.5-2.98t1.64-2.83q1.13-1.35 2.94-2.54t4.45-2.08 6.14-1.44q3.5-.56 8.01-.68v-2.31q0-3.96-1.7-5.87-1.69-1.91-4.89-1.91-2.31 0-3.83.54t-2.67 1.22q-1.16.67-2.1 1.21t-2.1.54q-1 0-1.69-.52-.7-.52-1.12-1.21m46.55-6.82.65 3.12q1.2-1.19 2.52-2.21 1.33-1.02 2.81-1.74 1.49-.71 3.18-1.11 1.69-.41 3.7-.41 3.23 0 5.73 1.1 2.51 1.1 4.18 3.08t2.54 4.74q.87 2.75.87 6.06v25.14h-9.51v-25.14q0-3.62-1.66-5.6-1.65-1.99-5.04-1.99-2.47 0-4.62 1.12-2.16 1.12-4.08 3.04v28.57h-9.51v-39.5h5.81q1.85 0 2.43 1.73m59.98 26.07v-17.71q-1.62-1.97-3.52-2.78-1.91-.8-4.1-.8-2.16 0-3.89.8-1.73.81-2.97 2.45-1.23 1.63-1.88 4.16-.66 2.52-.66 5.95 0 3.46.56 5.87.56 2.4 1.6 3.92t2.54 2.2q1.5.67 3.35.67 2.96 0 5.04-1.23t3.93-3.5m0-45.51h9.51v57.21h-5.81q-1.89 0-2.39-1.73l-.81-3.81q-2.39 2.73-5.49 4.42-3.09 1.7-7.21 1.7-3.24 0-5.93-1.35-2.7-1.35-4.64-3.91-1.95-2.56-3.01-6.33-1.05-3.77-1.05-8.62 0-4.39 1.19-8.17 1.19-3.77 3.43-6.54 2.23-2.77 5.35-4.33t7-1.56q3.32 0 5.66 1.04 2.35 1.04 4.2 2.81zm31.19 57.21h-9.51v-32.34l-3.43-.54q-1.12-.23-1.79-.79t-.67-1.6v-3.88h5.89v-2.93q0-3.39 1.02-6.08 1.02-2.7 2.92-4.58 1.91-1.89 4.64-2.89t6.16-1q2.73 0 5.08.73l-.19 4.77q-.04.54-.31.87t-.71.5-1.02.23-1.23.06q-1.7 0-3.02.36-1.33.37-2.26 1.27-.92.91-1.4 2.39t-.48 3.68v2.62h10.28v6.77h-9.97zm15.63-39.5h9.54v39.5h-9.54zm10.85-11.51q0 1.23-.5 2.31t-1.33 1.88q-.82.81-1.94 1.29t-2.39.48q-1.23 0-2.33-.48-1.09-.48-1.9-1.29-.81-.8-1.29-1.88t-.48-2.31q0-1.27.48-2.39t1.29-1.92q.81-.81 1.9-1.29 1.1-.49 2.33-.49 1.27 0 2.39.49 1.12.48 1.94 1.29.83.8 1.33 1.92t.5 2.39m8.51-6.2h9.51v57.21h-9.51zm19.14 0h9.51v57.21h-9.51z"/></svg>