<svg xmlns="http://www.w3.org/2000/svg" width="800" height="400" viewBox="0 0 800 400"><rect width="100%" height="100%" fill="#cccccc"/><path fill="#333333" d="M166.685 214.045h16.47v6.33h-24.14v-41.21h7.67zm33.77-23.37q3.25 0 5.92 1.06 2.66 1.05 4.56 2.99 1.89 1.94 2.92 4.73 1.02 2.79 1.02 6.24 0 3.48-1.02 6.27-1.03 2.8-2.92 4.76-1.9 1.97-4.56 3.02-2.67 1.06-5.92 1.06-3.28 0-5.95-1.06-2.68-1.05-4.58-3.02-1.89-1.96-2.93-4.76-1.04-2.79-1.04-6.27 0-3.45 1.04-6.24t2.93-4.73q1.9-1.94 4.58-2.99 2.67-1.06 5.95-1.06m0 24.71q3.65 0 5.4-2.45 1.76-2.45 1.76-7.18t-1.76-7.21q-1.75-2.48-5.4-2.48-3.7 0-5.48 2.49-1.79 2.5-1.79 7.2t1.79 7.17q1.78 2.46 5.48 2.46m56.2-24.25h5.36l-9.29 29.24h-5.64q-.97 0-1.34-1.25l-5.25-16.9q-.25-.86-.47-1.7-.21-.84-.35-1.7-.17.86-.39 1.73-.21.87-.47 1.72l-5.33 16.85q-.34 1.25-1.51 1.25h-5.41l-9.26-29.24h5.61q.77 0 1.31.37t.71.94l4.19 15.62q.32 1.28.56 2.51.24 1.22.41 2.45.32-1.23.67-2.45.36-1.23.76-2.51l4.84-15.68q.17-.57.67-.94t1.21-.37h3.11q.74 0 1.27.37.52.37.7.94l4.7 15.68q.37 1.28.7 2.52.32 1.24.64 2.47.37-2.43 1.05-4.99l4.31-15.62q.2-.57.71-.94t1.22-.37m14.91 11.26h13.28q0-1.37-.38-2.58-.39-1.21-1.16-2.13-.77-.91-1.95-1.44-1.18-.52-2.75-.52-3.05 0-4.8 1.74-1.76 1.73-2.24 4.93m17.95 4.24h-18.09q.17 2.25.79 3.89.63 1.64 1.66 2.71 1.02 1.07 2.43 1.6 1.42.52 3.13.52t2.95-.4q1.23-.39 2.16-.88.93-.48 1.63-.88.69-.4 1.35-.4.88 0 1.31.65l2.02 2.57q-1.16 1.37-2.62 2.29-1.45.93-3.03 1.49-1.59.55-3.22.78-1.64.23-3.18.23-3.05 0-5.67-1.01-2.63-1.02-4.56-3-1.94-1.98-3.05-4.9t-1.11-6.77q0-2.99.96-5.63.97-2.63 2.78-4.58 1.81-1.96 4.42-3.1t5.89-1.14q2.76 0 5.1.89 2.33.88 4.02 2.58 1.68 1.69 2.63 4.16.96 2.46.96 5.63 0 1.59-.34 2.15-.35.55-1.32.55m13.14-13.73.43 3.3q1.37-2.62 3.25-4.12 1.88-1.49 4.45-1.49 2.02 0 3.24.88l-.45 5.27q-.14.52-.41.73-.28.21-.73.21-.43 0-1.27-.14t-1.64-.14q-1.17 0-2.08.34t-1.64.98q-.72.65-1.28 1.56t-1.04 2.08v18.01h-7.04v-29.24h4.13q1.09 0 1.51.38.43.39.57 1.39m78.83-13.74h6.02l-12.8 41.21h-6.92l-9.01-28.16q-.37-1.02-.68-2.51-.18.72-.35 1.34-.17.63-.37 1.17l-9.09 28.16h-6.95l-12.77-41.21h6.41q1 0 1.67.47t.9 1.27l7.01 24.65q.23.91.44 1.98l.44 2.24q.23-1.2.5-2.25.27-1.06.58-1.97l8.1-24.65q.23-.66.9-1.2t1.63-.54h2.26q.99 0 1.62.48.63.49.94 1.26l8.07 24.65q.6 1.77 1.08 4.08.37-2.26.83-4.08l7.01-24.65q.17-.72.87-1.23.69-.51 1.66-.51m25.43 33.66v-4.93q-3.05.14-5.13.52-2.08.39-3.34.99-1.25.6-1.79 1.39-.55.8-.55 1.74 0 1.85 1.1 2.65t2.87.8q2.16 0 3.74-.78 1.59-.79 3.1-2.38m-14.88-15.36-1.26-2.26q5.05-4.61 12.15-4.61 2.56 0 4.58.84 2.03.84 3.42 2.34 1.4 1.49 2.13 3.57.72 2.08.72 4.56v18.47h-3.19q-1 0-1.54-.3t-.85-1.21l-.63-2.11q-1.11 1-2.16 1.75-1.06.76-2.2 1.27t-2.44.79q-1.29.27-2.86.27-1.85 0-3.42-.5t-2.71-1.5-1.76-2.48q-.63-1.48-.63-3.45 0-1.11.37-2.21.37-1.09 1.21-2.09t2.18-1.88q1.34-.89 3.29-1.54 1.95-.66 4.55-1.07 2.59-.41 5.93-.5v-1.71q0-2.93-1.26-4.34-1.25-1.42-3.62-1.42-1.71 0-2.83.4-1.13.4-1.98.9-.86.5-1.56.9t-1.55.4q-.74 0-1.25-.39-.52-.38-.83-.89m47.79-3.17-1.59 2.54q-.29.45-.6.64t-.8.19q-.51 0-1.1-.29-.58-.28-1.35-.64t-1.75-.64q-.99-.29-2.33-.29-2.08 0-3.26.89-1.18.88-1.18 2.3 0 .95.61 1.59t1.63 1.12q1.01.49 2.29.87 1.28.39 2.61.84 1.32.46 2.61 1.04 1.28.59 2.29 1.48 1.01.9 1.62 2.16.62 1.25.62 3.02 0 2.11-.76 3.89-.75 1.78-2.24 3.08-1.48 1.29-3.66 2.02t-5.03.73q-1.51 0-2.95-.27-1.44-.28-2.76-.76-1.33-.48-2.45-1.14-1.13-.66-1.98-1.43l1.62-2.67q.31-.49.74-.75.43-.25 1.08-.25.66 0 1.24.37.59.37 1.36.8.77.42 1.81.8 1.04.37 2.63.37 1.26 0 2.16-.3.89-.3 1.48-.79.58-.48.85-1.12t.27-1.33q0-1.02-.61-1.68t-1.62-1.14q-1.02-.48-2.31-.87-1.3-.38-2.65-.84-1.36-.46-2.65-1.07-1.3-.61-2.31-1.55t-1.63-2.31q-.61-1.37-.61-3.31 0-1.79.71-3.42.72-1.62 2.1-2.83t3.45-1.94q2.06-.73 4.77-.73 3.02 0 5.5 1t4.13 2.62m15.36 26.54q-3.81 0-5.85-2.16-2.04-2.15-2.04-5.94v-16.33h-2.99q-.57 0-.97-.37t-.4-1.11v-2.79l4.7-.77 1.48-7.98q.15-.57.55-.89.39-.31 1.02-.31h3.65v9.21h7.81v5.01h-7.81v15.85q0 1.37.67 2.13.67.77 1.84.77.65 0 1.1-.15.44-.16.76-.33.33-.17.59-.33.26-.15.51-.15.32 0 .51.15.2.16.43.47l2.11 3.42q-1.54 1.29-3.53 1.94-2 .66-4.14.66m17.02-18.44h13.28q0-1.37-.38-2.58-.39-1.21-1.16-2.13-.77-.91-1.95-1.44-1.18-.52-2.75-.52-3.05 0-4.8 1.74-1.76 1.73-2.24 4.93m17.95 4.24h-18.09q.17 2.25.79 3.89.63 1.64 1.66 2.71 1.02 1.07 2.43 1.6 1.42.52 3.13.52t2.95-.4q1.23-.39 2.16-.88.93-.48 1.63-.88.69-.4 1.35-.4.88 0 1.31.65l2.02 2.57q-1.16 1.37-2.62 2.29-1.45.93-3.03 1.49-1.59.55-3.22.78-1.64.23-3.18.23-3.05 0-5.67-1.01-2.63-1.02-4.56-3-1.94-1.98-3.05-4.9t-1.11-6.77q0-2.99.96-5.63.97-2.63 2.78-4.58 1.81-1.96 4.42-3.1t5.89-1.14q2.76 0 5.1.89 2.33.88 4.02 2.58 1.68 1.69 2.63 4.16.96 2.46.96 5.63 0 1.59-.34 2.15-.35.55-1.32.55m43.32-15.5h5.36l-9.29 29.24h-5.64q-.97 0-1.34-1.25l-5.25-16.9q-.25-.86-.47-1.7-.21-.84-.35-1.7-.17.86-.39 1.73-.21.87-.47 1.72l-5.33 16.85q-.34 1.25-1.51 1.25h-5.41l-9.26-29.24h5.61q.77 0 1.31.37t.71.94l4.19 15.62q.32 1.28.56 2.51.24 1.22.41 2.45.32-1.23.67-2.45.36-1.23.76-2.51l4.84-15.68q.17-.57.67-.94t1.21-.37h3.11q.74 0 1.27.37t.7.94l4.7 15.68q.37 1.28.7 2.52.32 1.24.64 2.47.37-2.43 1.05-4.99l4.31-15.62q.2-.57.71-.94t1.22-.37m24.8 21.69v-4.93q-3.05.14-5.13.52-2.08.39-3.34.99-1.25.6-1.79 1.39-.54.8-.54 1.74 0 1.85 1.1 2.65 1.09.8 2.86.8 2.17 0 3.75-.78 1.58-.79 3.09-2.38m-14.88-15.36-1.25-2.26q5.04-4.61 12.14-4.61 2.56 0 4.59.84 2.02.84 3.42 2.34 1.39 1.49 2.12 3.57t.73 4.56v18.47h-3.19q-1 0-1.54-.3t-.86-1.21l-.63-2.11q-1.11 1-2.16 1.75-1.06.76-2.2 1.27t-2.43.79q-1.3.27-2.87.27-1.85 0-3.42-.5-1.56-.5-2.7-1.5t-1.77-2.48-.63-3.45q0-1.11.37-2.21.37-1.09 1.21-2.09t2.18-1.88q1.34-.89 3.3-1.54 1.95-.66 4.54-1.07t5.93-.5v-1.71q0-2.93-1.25-4.34-1.26-1.42-3.62-1.42-1.71 0-2.84.4t-1.98.9l-1.55.9q-.7.4-1.56.4-.74 0-1.25-.39-.51-.38-.83-.89m38.11 23.37q-3.82 0-5.86-2.16-2.04-2.15-2.04-5.94v-16.33h-2.99q-.57 0-.97-.37t-.4-1.11v-2.79l4.7-.77 1.49-7.98q.14-.57.54-.89.4-.31 1.02-.31h3.65v9.21h7.81v5.01h-7.81v15.85q0 1.37.67 2.13.67.77 1.84.77.66 0 1.1-.15.44-.16.77-.33.32-.17.58-.33.26-.15.51-.15.32 0 .52.15.2.16.42.47l2.11 3.42q-1.54 1.29-3.53 1.94-2 .66-4.13.66m17.01-18.44h13.28q0-1.37-.38-2.58-.39-1.21-1.16-2.13-.77-.91-1.95-1.44-1.18-.52-2.75-.52-3.05 0-4.8 1.74-1.75 1.73-2.24 4.93m17.96 4.24h-18.1q.17 2.25.8 3.89.62 1.64 1.65 2.71t2.44 1.6q1.41.52 3.12.52t2.95-.4q1.24-.39 2.16-.88.93-.48 1.63-.88t1.35-.4q.88 0 1.31.65l2.03 2.57q-1.17 1.37-2.63 2.29-1.45.93-3.03 1.49-1.58.55-3.22.78t-3.18.23q-3.05 0-5.67-1.01-2.62-1.02-4.56-3t-3.05-4.9-1.11-6.77q0-2.99.97-5.63.97-2.63 2.78-4.58 1.81-1.96 4.41-3.1 2.61-1.14 5.89-1.14 2.76 0 5.1.89 2.34.88 4.02 2.58 1.68 1.69 2.63 4.16.96 2.46.96 5.63 0 1.59-.34 2.15-.34.55-1.31.55m13.13-13.73.43 3.3q1.37-2.62 3.25-4.12 1.88-1.49 4.45-1.49 2.02 0 3.25.88l-.46 5.27q-.14.52-.41.73t-.73.21q-.43 0-1.27-.14t-1.64-.14q-1.17 0-2.08.34t-1.64.98q-.72.65-1.28 1.56-.55.91-1.04 2.08v18.01h-7.04v-29.24h4.13q1.09 0 1.51.38.43.39.57 1.39"/></svg>