<svg xmlns="http://www.w3.org/2000/svg" width="800" height="400" viewBox="0 0 800 400"><rect width="100%" height="100%" fill="#cccccc"/><path fill="#333333" d="M181.05 228.47h32.08v12.32h-47.01v-80.25h14.93zm65.77-45.51q6.33 0 11.52 2.05 5.18 2.06 8.88 5.83 3.69 3.77 5.68 9.21 2 5.44 2 12.16 0 6.77-2 12.21-1.99 5.44-5.68 9.27-3.7 3.83-8.88 5.88-5.19 2.05-11.52 2.05-6.38 0-11.6-2.05t-8.91-5.88-5.71-9.27q-2.03-5.44-2.03-12.21 0-6.72 2.03-12.16 2.02-5.44 5.71-9.21t8.91-5.83q5.22-2.05 11.6-2.05m0 48.12q7.1 0 10.52-4.78 3.41-4.77 3.41-13.98t-3.41-14.04q-3.42-4.83-10.52-4.83-7.22 0-10.68 4.85-3.47 4.86-3.47 14.02t3.47 13.96q3.46 4.8 10.68 4.8m109.44-47.23h10.44l-18.09 56.94h-10.99q-1.89 0-2.61-2.44l-10.21-32.91q-.5-1.67-.92-3.31-.42-1.63-.69-3.3-.34 1.67-.75 3.36-.42 1.69-.92 3.36l-10.38 32.8q-.66 2.44-2.94 2.44h-10.54l-18.04-56.94h10.93q1.5 0 2.56.72 1.05.72 1.38 1.83l8.16 30.41q.61 2.5 1.08 4.89.48 2.38.81 4.77.61-2.39 1.3-4.77.7-2.39 1.47-4.89l9.44-30.52q.33-1.11 1.3-1.83t2.36-.72h6.05q1.44 0 2.47.72t1.36 1.83l9.16 30.52q.72 2.5 1.36 4.92.64 2.41 1.25 4.8.72-4.72 2.05-9.72l8.38-30.41q.39-1.11 1.39-1.83t2.38-.72m29.03 21.92h25.86q0-2.66-.74-5.02-.75-2.36-2.25-4.14-1.5-1.77-3.8-2.8-2.31-1.03-5.36-1.03-5.94 0-9.35 3.39-3.42 3.38-4.36 9.6m34.97 8.27h-35.25q.34 4.38 1.56 7.57 1.22 3.2 3.22 5.28 1.99 2.08 4.74 3.11 2.75 1.02 6.08 1.02t5.74-.77q2.42-.78 4.22-1.73 1.81-.94 3.17-1.72 1.35-.77 2.63-.77 1.72 0 2.55 1.27l3.94 5q-2.27 2.66-5.1 4.47-2.83 1.8-5.91 2.88t-6.27 1.53q-3.19.44-6.19.44-5.94 0-11.05-1.97-5.1-1.97-8.88-5.83-3.77-3.85-5.93-9.54-2.17-5.69-2.17-13.18 0-5.83 1.89-10.96 1.88-5.14 5.41-8.94 3.52-3.8 8.6-6.02t11.46-2.22q5.39 0 9.94 1.72t7.82 5.02q3.28 3.3 5.14 8.11 1.86 4.8 1.86 10.96 0 3.1-.67 4.19-.67 1.08-2.55 1.08m25.58-26.75.83 6.44q2.67-5.11 6.33-8.02 3.66-2.92 8.66-2.92 3.94 0 6.33 1.72l-.89 10.27q-.28 1-.81 1.42-.52.41-1.41.41-.83 0-2.47-.28-1.64-.27-3.19-.27-2.28 0-4.05.66-1.78.67-3.2 1.92-1.41 1.25-2.49 3.02-1.09 1.78-2.03 4.05v35.08h-13.71v-56.94h8.05q2.11 0 2.94.75t1.11 2.69m134.98 13.37q0 8.83-2.92 16.35-2.91 7.52-8.24 13.01-5.33 5.5-12.82 8.58t-16.65 3.08q-9.1 0-16.59-3.08-7.5-3.08-12.85-8.58-5.36-5.49-8.3-13.01t-2.94-16.35q0-8.82 2.94-16.34t8.3-13.02q5.35-5.49 12.85-8.57 7.49-3.08 16.59-3.08 6.11 0 11.49 1.41 5.38 1.42 9.88 4 4.49 2.58 8.07 6.27t6.08 8.24 3.8 9.88q1.31 5.33 1.31 11.21m-15.26 0q0-6.6-1.78-11.85-1.78-5.24-5.05-8.9-3.28-3.67-7.97-5.61t-10.57-1.94-10.57 1.94-7.99 5.61q-3.31 3.66-5.08 8.9-1.78 5.25-1.78 11.85 0 6.61 1.78 11.85 1.77 5.25 5.08 8.88 3.3 3.64 7.99 5.58t10.57 1.94 10.57-1.94 7.97-5.58q3.27-3.63 5.05-8.88 1.78-5.24 1.78-11.85m26.69-16.81h13.76v56.94h-13.76zm15.65-16.6q0 1.78-.72 3.33-.72 1.56-1.91 2.72-1.2 1.17-2.81 1.86t-3.44.69q-1.77 0-3.36-.69-1.58-.69-2.74-1.86-1.17-1.16-1.86-2.72-.7-1.55-.7-3.33 0-1.83.7-3.44.69-1.61 1.86-2.77 1.16-1.17 2.74-1.86 1.59-.7 3.36-.7 1.83 0 3.44.7 1.61.69 2.81 1.86 1.19 1.16 1.91 2.77t.72 3.44m12.27-8.93h13.71v82.47h-13.71z"/></svg>