<svg xmlns="http://www.w3.org/2000/svg" width="800" height="400" viewBox="0 0 800 400"><rect width="100%" height="100%" fill="#cccccc"/><path fill="#333333" d="M168.985 211.075h18.79v7.21h-27.53v-47h8.74zm38.51-26.66q3.71 0 6.75 1.21 3.04 1.2 5.2 3.41t3.33 5.39q1.17 3.19 1.17 7.12 0 3.97-1.17 7.15-1.17 3.19-3.33 5.43t-5.2 3.44q-3.04 1.21-6.75 1.21-3.73 0-6.79-1.21-3.05-1.2-5.21-3.44t-3.35-5.43q-1.19-3.18-1.19-7.15 0-3.93 1.19-7.12 1.19-3.18 3.35-5.39t5.21-3.41q3.06-1.21 6.79-1.21m0 28.18q4.16 0 6.16-2.79 2-2.8 2-8.19 0-5.4-2-8.22-2-2.83-6.16-2.83-4.22 0-6.25 2.84t-2.03 8.21q0 5.36 2.03 8.17t6.25 2.81m64.1-27.65h6.11l-10.6 33.34h-6.44q-1.1 0-1.52-1.43l-5.98-19.27q-.29-.98-.54-1.94-.24-.96-.41-1.93-.19.97-.43 1.97-.25.99-.54 1.96l-6.08 19.21q-.39 1.43-1.72 1.43h-6.17l-10.57-33.34h6.41q.87 0 1.49.42t.81 1.07l4.78 17.81q.36 1.46.63 2.86.28 1.4.48 2.8.35-1.4.76-2.8.4-1.4.86-2.86l5.53-17.88q.19-.64.76-1.07.57-.42 1.38-.42h3.54q.85 0 1.45.42.6.43.79 1.07l5.37 17.88q.42 1.46.79 2.88.38 1.41.74 2.81.42-2.77 1.2-5.69l4.9-17.81q.23-.65.82-1.07.58-.42 1.4-.42m16.99 12.83h15.15q0-1.56-.44-2.94t-1.32-2.42-2.22-1.64q-1.35-.6-3.14-.6-3.48 0-5.48 1.98t-2.55 5.62m20.48 4.84h-20.64q.2 2.57.91 4.44t1.88 3.09 2.78 1.82 3.56.6 3.37-.45q1.41-.46 2.47-1.01 1.05-.56 1.85-1.01.79-.45 1.54-.45 1.01 0 1.5.74l2.31 2.93q-1.34 1.56-3 2.61-1.65 1.06-3.46 1.69-1.8.64-3.67.9t-3.62.26q-3.48 0-6.47-1.16-2.99-1.15-5.2-3.41t-3.48-5.59-1.27-7.72q0-3.41 1.11-6.42 1.1-3 3.17-5.23 2.06-2.23 5.04-3.52 2.97-1.31 6.71-1.31 3.15 0 5.81 1.01 2.67 1.01 4.59 2.94 1.91 1.94 3 4.75t1.09 6.42q0 1.82-.39 2.45t-1.49.63m14.98-15.66.49 3.77q1.56-2.99 3.7-4.7 2.15-1.7 5.07-1.7 2.31 0 3.71 1.01l-.52 6.01q-.16.58-.47.83-.31.24-.83.24-.49 0-1.45-.16-.96-.17-1.87-.17-1.33 0-2.37.4-1.04.39-1.87 1.12t-1.46 1.77-1.19 2.37v20.54h-8.02v-33.34h4.71q1.23 0 1.72.43.49.44.65 1.58m75.95 7.83q0 5.17-1.72 9.49t-4.84 7.44-7.51 4.85q-4.39 1.72-9.75 1.72h-17.91v-47h17.91q5.36 0 9.75 1.74t7.51 4.85q3.12 3.1 4.84 7.42t1.72 9.49m-8.97 0q0-3.87-1.02-6.94t-2.96-5.2q-1.93-2.13-4.68-3.26-2.74-1.14-6.19-1.14h-9.13v33.08h9.13q3.45 0 6.19-1.13 2.75-1.14 4.68-3.27 1.94-2.13 2.96-5.2t1.02-6.94m15.67-9.84h8.06v33.34h-8.06zm9.16-9.72q0 1.04-.42 1.95t-1.12 1.59-1.64 1.09-2.02.41q-1.04 0-1.96-.41-.93-.41-1.61-1.09t-1.09-1.59-.41-1.95q0-1.07.41-2.02.41-.94 1.09-1.62.68-.69 1.61-1.09.92-.41 1.96-.41 1.08 0 2.02.41.94.4 1.64 1.09.7.68 1.12 1.62.42.95.42 2.02m29.25 13.32-1.82 2.89q-.32.53-.68.74t-.91.21q-.58 0-1.25-.33-.67-.32-1.54-.73-.88-.41-2-.73-1.12-.33-2.65-.33-2.37 0-3.72 1.01t-1.35 2.63q0 1.08.7 1.81t1.85 1.28q1.15.56 2.62.99 1.46.44 2.97.96t2.97 1.19q1.47.67 2.62 1.69t1.85 2.45.7 3.45q0 2.4-.86 4.43-.86 2.04-2.55 3.51-1.69 1.48-4.18 2.31-2.48.83-5.73.83-1.73 0-3.37-.31t-3.15-.86-2.8-1.3q-1.28-.75-2.25-1.63l1.85-3.05q.36-.55.84-.85.49-.29 1.24-.29t1.41.42q.67.43 1.55.91.87.49 2.06.91 1.19.43 3.01.43 1.43 0 2.45-.34 1.02-.35 1.69-.9t.97-1.28q.31-.73.31-1.51 0-1.17-.7-1.92-.69-.75-1.85-1.3-1.15-.55-2.63-.99t-3.02-.96q-1.55-.52-3.03-1.22-1.47-.7-2.63-1.77-1.15-1.07-1.85-2.63t-.7-3.77q0-2.05.81-3.9.82-1.86 2.39-3.24 1.58-1.38 3.93-2.21 2.36-.83 5.45-.83 3.44 0 6.27 1.14t4.71 2.99m32.41.52-2.12 2.93q-.35.45-.7.71-.34.26-.99.26-.61 0-1.2-.37-.58-.38-1.4-.85-.81-.47-1.93-.84-1.12-.38-2.78-.38-2.11 0-3.7.77-1.6.76-2.65 2.19-1.06 1.43-1.58 3.46-.52 2.04-.52 4.6 0 2.67.57 4.75t1.64 3.49q1.07 1.42 2.6 2.15t3.45.73q1.91 0 3.1-.47 1.19-.48 2-1.04.81-.57 1.41-1.04t1.35-.47q.98 0 1.46.74l2.31 2.93q-1.33 1.56-2.89 2.61-1.56 1.06-3.24 1.69-1.67.64-3.44.9t-3.53.26q-3.08 0-5.81-1.16-2.73-1.15-4.78-3.36t-3.24-5.41q-1.18-3.2-1.18-7.3 0-3.67 1.05-6.81 1.06-3.13 3.11-5.42 2.05-2.3 5.07-3.59 3.02-1.31 6.95-1.31 3.74 0 6.55 1.21 2.81 1.2 5.06 3.44m13.35-19.08v18.53q1.95-1.82 4.29-2.96t5.5-1.14q2.73 0 4.84.93t3.52 2.6q1.42 1.67 2.15 4 .73 2.32.73 5.12v21.22h-8.03v-21.22q0-3.06-1.39-4.73-1.4-1.68-4.26-1.68-2.08 0-3.9.95-1.82.94-3.45 2.56v24.12h-8.02v-48.3zm46.25 39.69v-5.63q-3.48.17-5.85.61-2.37.43-3.8 1.12-1.43.68-2.05 1.59t-.62 1.98q0 2.11 1.25 3.02 1.26.92 3.27.92 2.47 0 4.27-.9 1.81-.89 3.53-2.71m-16.96-17.52-1.43-2.57q5.75-5.26 13.84-5.26 2.93 0 5.23.96 2.31.95 3.9 2.66 1.6 1.71 2.42 4.08.83 2.37.83 5.2v21.06h-3.64q-1.13 0-1.75-.34t-.98-1.38l-.71-2.41q-1.27 1.14-2.47 2t-2.5 1.45q-1.3.58-2.78.89t-3.27.31q-2.11 0-3.9-.57t-3.09-1.71q-1.3-1.13-2.01-2.82-.72-1.69-.72-3.94 0-1.26.43-2.51.42-1.26 1.38-2.39.96-1.14 2.48-2.15 1.53-1 3.76-1.75 2.22-.75 5.18-1.22t6.76-.57v-1.95q0-3.35-1.43-4.96t-4.13-1.61q-1.95 0-3.23.46t-2.26 1.02q-.97.57-1.77 1.03-.8.45-1.77.45-.85 0-1.43-.44-.59-.44-.94-1.02m39.42-5.2.49 3.77q1.56-2.99 3.7-4.7 2.15-1.7 5.07-1.7 2.31 0 3.71 1.01l-.52 6.01q-.17.58-.48.83-.3.24-.82.24-.49 0-1.45-.16-.96-.17-1.87-.17-1.33 0-2.37.4-1.04.39-1.87 1.12t-1.46 1.77q-.64 1.04-1.19 2.37v20.54h-8.03v-33.34h4.72q1.23 0 1.72.43.49.44.65 1.58m29.35 13.85q1.49 0 2.6-.41 1.1-.41 1.83-1.12.73-.72 1.11-1.72.37-1.01.37-2.22 0-2.46-1.48-3.91t-4.43-1.45q-2.96 0-4.44 1.45t-1.48 3.91q0 1.17.37 2.18.38 1.01 1.11 1.74t1.85 1.14 2.59.41m9.06 18.98q0-.98-.58-1.6-.59-.62-1.59-.96-1.01-.34-2.36-.5t-2.86-.24q-1.51-.09-3.12-.15-1.61-.07-3.14-.26-1.33.75-2.16 1.75-.83 1.01-.83 2.35 0 .87.44 1.64.44.76 1.4 1.31.96.56 2.49.86 1.52.31 3.73.31 2.25 0 3.87-.34 1.63-.34 2.68-.94 1.06-.6 1.55-1.43.48-.83.48-1.8m-1.59-33.71h9.59v2.99q0 1.43-1.72 1.76l-2.99.55q.68 1.72.68 3.77 0 2.47-.99 4.47t-2.75 3.39q-1.75 1.4-4.14 2.17-2.39.76-5.15.76-.98 0-1.89-.1-.91-.09-1.79-.26-1.56.94-1.56 2.11 0 1.01.93 1.48.93.48 2.45.67 1.53.19 3.48.24t4 .21q2.05.17 4 .57 1.95.41 3.47 1.29 1.53.87 2.46 2.39.92 1.51.92 3.88 0 2.21-1.09 4.29-1.08 2.08-3.15 3.71-2.06 1.62-5.07 2.61-3 .99-6.84.99-3.77 0-6.56-.73-2.8-.73-4.65-1.95t-2.76-2.81-.91-3.31q0-2.35 1.41-3.92 1.41-1.58 3.88-2.52-1.33-.68-2.11-1.82t-.78-2.99q0-.75.28-1.54.27-.8.81-1.58t1.35-1.48 1.92-1.25q-2.54-1.37-3.99-3.64-1.44-2.28-1.44-5.33 0-2.47.99-4.47t2.76-3.41q1.77-1.42 4.19-2.16 2.43-.75 5.29-.75 2.14 0 4.03.44 1.88.44 3.44 1.28m21 11.7h15.14q0-1.56-.44-2.94t-1.31-2.42q-.88-1.04-2.23-1.64t-3.14-.6q-3.47 0-5.47 1.98t-2.55 5.62m20.47 4.84h-20.64q.2 2.57.91 4.44.72 1.87 1.89 3.09t2.78 1.82 3.56.6 3.36-.45q1.41-.46 2.47-1.01 1.06-.56 1.85-1.01.8-.45 1.55-.45 1 0 1.49.74l2.31 2.93q-1.33 1.56-2.99 2.61-1.66 1.06-3.46 1.69-1.81.64-3.68.9-1.86.26-3.62.26-3.48 0-6.47-1.16-2.99-1.15-5.2-3.41t-3.47-5.59q-1.27-3.33-1.27-7.72 0-3.41 1.1-6.42 1.11-3 3.17-5.23 2.07-2.23 5.04-3.52 2.97-1.31 6.71-1.31 3.15 0 5.82 1.01 2.66 1.01 4.58 2.94 1.92 1.94 3.01 4.75t1.09 6.42q0 1.82-.39 2.45t-1.5.63"/></svg>