<svg xmlns="http://www.w3.org/2000/svg" width="800" height="400" viewBox="0 0 800 400"><rect width="100%" height="100%" fill="#cccccc"/><path fill="#333333" d="M167.265 215.135h17.05v6.55h-24.99v-42.66h7.94zm34.95-24.19q3.37 0 6.12 1.09 2.76 1.09 4.72 3.1 1.97 2.01 3.03 4.9t1.06 6.46q0 3.6-1.06 6.49t-3.03 4.92q-1.96 2.04-4.72 3.13-2.75 1.09-6.12 1.09-3.39 0-6.16-1.09-2.78-1.09-4.74-3.13-1.96-2.03-3.04-4.92-1.07-2.89-1.07-6.49 0-3.57 1.07-6.46 1.08-2.89 3.04-4.9t4.74-3.1q2.77-1.09 6.16-1.09m0 25.58q3.78 0 5.59-2.54 1.82-2.54 1.82-7.43 0-4.9-1.82-7.47-1.81-2.56-5.59-2.56-3.83 0-5.68 2.58-1.84 2.58-1.84 7.45 0 4.86 1.84 7.42 1.85 2.55 5.68 2.55m58.18-25.11h5.54l-9.61 30.27h-5.85q-1 0-1.38-1.3l-5.43-17.49q-.27-.89-.49-1.76t-.37-1.75q-.17.88-.39 1.78t-.49 1.79l-5.52 17.43q-.35 1.3-1.56 1.3h-5.61l-9.58-30.27h5.81q.8 0 1.36.39.56.38.73.97l4.34 16.17q.32 1.32.57 2.59.26 1.27.43 2.54.33-1.27.7-2.54.36-1.27.78-2.59l5.01-16.23q.18-.59.7-.97.51-.39 1.25-.39h3.22q.76 0 1.31.39.54.38.72.97l4.87 16.23q.38 1.32.72 2.61.34 1.28.66 2.55.39-2.51 1.1-5.16l4.45-16.17q.21-.59.74-.97.53-.39 1.27-.39m15.43 11.66h13.74q0-1.42-.4-2.67-.39-1.26-1.19-2.2-.8-.95-2.02-1.49-1.23-.55-2.85-.55-3.15 0-4.97 1.8-1.81 1.8-2.31 5.11m18.58 4.39h-18.73q.17 2.33.82 4.03.65 1.69 1.71 2.8 1.07 1.11 2.53 1.65 1.46.55 3.23.55t3.05-.42q1.28-.41 2.24-.91t1.68-.91q.73-.42 1.41-.42.91 0 1.35.68l2.1 2.66q-1.21 1.41-2.72 2.37-1.5.96-3.14 1.54-1.64.57-3.33.81-1.7.23-3.29.23-3.16 0-5.87-1.04-2.72-1.05-4.72-3.1-2.01-2.05-3.16-5.08-1.15-3.02-1.15-7 0-3.1 1-5.83 1.01-2.73 2.88-4.75t4.57-3.2 6.09-1.18q2.87 0 5.28.92 2.42.91 4.16 2.67 1.74 1.75 2.73 4.3t.99 5.83q0 1.65-.35 2.23-.36.57-1.36.57m13.6-14.22.44 3.42q1.42-2.71 3.37-4.26 1.94-1.55 4.6-1.55 2.09 0 3.36.92l-.47 5.45q-.15.54-.43.76t-.75.22q-.44 0-1.31-.15t-1.7-.15q-1.21 0-2.15.36-.95.35-1.7 1.01-.75.67-1.33 1.61-.57.95-1.07 2.16v18.64h-7.29v-30.27h4.28q1.12 0 1.56.4t.59 1.43m39 6.08h4.95q2.25 0 3.91-.56 1.67-.56 2.75-1.55 1.07-.99 1.6-2.35.54-1.35.54-2.98 0-3.24-2.14-4.98t-6.54-1.74h-5.07zm14.69 6.61 10.68 15.75h-7.17q-2.04 0-2.95-1.59l-8.97-13.66q-.5-.77-1.1-1.09-.61-.33-1.79-.33h-3.39v16.67h-7.94v-42.66h13.01q4.34 0 7.45.9t5.11 2.53q1.99 1.62 2.93 3.87.94 2.26.94 4.97 0 2.16-.63 4.08-.63 1.91-1.83 3.48-1.19 1.56-2.95 2.74-1.75 1.18-4 1.86.77.44 1.42 1.05.65.6 1.18 1.43m30.15 7.93v-5.1q-3.16.15-5.31.54-2.15.4-3.45 1.02t-1.86 1.45q-.56.82-.56 1.8 0 1.91 1.13 2.74 1.14.83 2.97.83 2.24 0 3.88-.81 1.64-.82 3.2-2.47m-15.4-15.9-1.3-2.33q5.22-4.78 12.57-4.78 2.65 0 4.75.87 2.09.87 3.54 2.42 1.44 1.55 2.2 3.7.75 2.16.75 4.72v19.12h-3.31q-1.03 0-1.59-.31t-.88-1.25l-.65-2.19q-1.15 1.04-2.24 1.82-1.1.78-2.28 1.31t-2.52.81-2.96.28q-1.92 0-3.54-.51-1.63-.52-2.81-1.55-1.18-1.04-1.82-2.57-.65-1.53-.65-3.57 0-1.15.38-2.29.38-1.13 1.25-2.16.87-1.04 2.26-1.95 1.39-.92 3.41-1.59 2.02-.68 4.7-1.11 2.69-.43 6.14-.52v-1.77q0-3.03-1.3-4.49-1.3-1.47-3.75-1.47-1.77 0-2.93.42-1.17.41-2.05.93-.89.51-1.61.93-.72.41-1.61.41-.76 0-1.29-.4-.54-.4-.86-.93m48.35 14.75v-13.57q-1.24-1.5-2.7-2.12t-3.14-.62q-1.65 0-2.98.62t-2.27 1.87q-.95 1.25-1.45 3.19-.5 1.93-.5 4.55 0 2.66.43 4.5.43 1.85 1.22 3.01.8 1.17 1.95 1.68 1.15.52 2.57.52 2.27 0 3.86-.94 1.59-.95 3.01-2.69m0-34.87h7.29v43.84h-4.46q-1.44 0-1.83-1.33l-.62-2.92q-1.83 2.1-4.2 3.39-2.37 1.3-5.53 1.3-2.48 0-4.54-1.03-2.07-1.03-3.56-2.99-1.49-1.97-2.3-4.86t-.81-6.61q0-3.36.91-6.25.92-2.89 2.63-5.01 1.71-2.13 4.1-3.32 2.39-1.2 5.37-1.2 2.54 0 4.33.8 1.8.8 3.22 2.15zm14.72 13.57h7.32v30.27h-7.32zm8.32-8.82q0 .95-.38 1.77-.39.83-1.02 1.45-.64.62-1.49.99-.86.36-1.83.36-.94 0-1.78-.36-.85-.37-1.47-.99-.61-.62-.98-1.45-.37-.82-.37-1.77 0-.97.37-1.83.37-.85.98-1.47.62-.62 1.47-.99.84-.37 1.78-.37.97 0 1.83.37.85.37 1.49.99.63.62 1.02 1.47.38.86.38 1.83m19.82 8.35q3.37 0 6.13 1.09 2.75 1.09 4.72 3.1 1.96 2.01 3.02 4.9t1.06 6.46q0 3.6-1.06 6.49t-3.02 4.92q-1.97 2.04-4.72 3.13-2.76 1.09-6.13 1.09-3.39 0-6.16-1.09t-4.74-3.13q-1.96-2.03-3.03-4.92-1.08-2.89-1.08-6.49 0-3.57 1.08-6.46 1.07-2.89 3.03-4.9 1.97-2.01 4.74-3.1t6.16-1.09m0 25.58q3.78 0 5.59-2.54 1.82-2.54 1.82-7.43 0-4.9-1.82-7.47-1.81-2.56-5.59-2.56-3.83 0-5.67 2.58-1.85 2.58-1.85 7.45 0 4.86 1.85 7.42 1.84 2.55 5.67 2.55m36.5-2.66v-5.1q-3.16.15-5.31.54-2.16.4-3.46 1.02-1.29.62-1.85 1.45-.57.82-.57 1.8 0 1.91 1.14 2.74t2.97.83q2.24 0 3.87-.81 1.64-.82 3.21-2.47m-15.4-15.9-1.3-2.33q5.22-4.78 12.57-4.78 2.65 0 4.74.87 2.1.87 3.54 2.42 1.45 1.55 2.2 3.7.75 2.16.75 4.72v19.12h-3.3q-1.03 0-1.59-.31t-.89-1.25l-.65-2.19q-1.15 1.04-2.24 1.82t-2.27 1.31-2.52.81-2.97.28q-1.91 0-3.54-.51-1.62-.52-2.8-1.55-1.18-1.04-1.83-2.57t-.65-3.57q0-1.15.39-2.29.38-1.13 1.25-2.16.87-1.04 2.26-1.95 1.38-.92 3.4-1.59 2.02-.68 4.71-1.11 2.68-.43 6.14-.52v-1.77q0-3.03-1.3-4.49-1.3-1.47-3.75-1.47-1.77 0-2.93.42-1.17.41-2.05.93-.89.51-1.61.93-.73.41-1.61.41-.77 0-1.3-.4t-.85-.93m52.95-2.8-1.92 2.65q-.32.42-.63.65-.31.24-.9.24-.56 0-1.09-.34-.54-.34-1.27-.77-.74-.42-1.76-.76t-2.52-.34q-1.92 0-3.36.69-1.45.69-2.41 1.99t-1.43 3.14q-.47 1.85-.47 4.18 0 2.42.52 4.3.51 1.89 1.49 3.18.97 1.28 2.36 1.94 1.38.67 3.12.67t2.82-.43 1.81-.95q.74-.51 1.29-.94.54-.43 1.22-.43.89 0 1.33.68l2.09 2.66q-1.21 1.41-2.62 2.37-1.42.96-2.94 1.54-1.52.57-3.12.81-1.61.23-3.2.23-2.81 0-5.29-1.04-2.47-1.05-4.33-3.06-1.86-2-2.94-4.91-1.07-2.91-1.07-6.62 0-3.34.96-6.18.95-2.85 2.81-4.93t4.6-3.26q2.75-1.18 6.32-1.18 3.39 0 5.94 1.09t4.59 3.13m14.93 26.99q-3.96 0-6.07-2.23-2.11-2.22-2.11-6.15v-16.9h-3.09q-.59 0-1.01-.38-.41-.39-.41-1.15v-2.89l4.87-.8 1.53-8.26q.15-.59.56-.92.42-.32 1.06-.32h3.78v9.53h8.08v5.19h-8.08v16.4q0 1.42.69 2.21.7.8 1.91.8.68 0 1.13-.16.46-.16.8-.34t.6-.34q.27-.16.53-.16.33 0 .54.16.2.16.44.49l2.18 3.54q-1.59 1.32-3.66 2-2.06.68-4.27.68m12.09-30.74h7.32v30.27h-7.32zm8.32-8.82q0 .95-.38 1.77-.39.83-1.02 1.45-.64.62-1.49.99-.86.36-1.83.36-.94 0-1.78-.36-.85-.37-1.47-.99-.61-.62-.98-1.45-.37-.82-.37-1.77 0-.97.37-1.83.37-.85.98-1.47.62-.62 1.47-.99.84-.37 1.78-.37.97 0 1.83.37.85.37 1.49.99.63.62 1.02 1.47.38.86.38 1.83m27.97 8.82h5.75l-12.01 30.27h-6.61l-12-30.27h6.02q.82 0 1.37.39.54.38.72.97l5.84 16.17q.47 1.41.83 2.77.35 1.36.62 2.71.29-1.35.65-2.71.35-1.36.85-2.77l5.96-16.17q.21-.59.74-.97.53-.39 1.27-.39m15.37 11.66h13.74q0-1.42-.4-2.67-.39-1.26-1.19-2.2-.8-.95-2.02-1.49-1.23-.55-2.85-.55-3.15 0-4.97 1.8-1.81 1.8-2.31 5.11m18.58 4.39h-18.73q.17 2.33.82 4.03.65 1.69 1.71 2.8 1.07 1.11 2.53 1.65 1.46.55 3.23.55t3.05-.42q1.28-.41 2.24-.91t1.68-.91q.73-.42 1.41-.42.91 0 1.35.68l2.1 2.66q-1.21 1.41-2.72 2.37-1.5.96-3.14 1.54-1.64.57-3.33.81-1.7.23-3.29.23-3.16 0-5.87-1.04-2.72-1.05-4.72-3.1-2.01-2.05-3.16-5.08-1.15-3.02-1.15-7 0-3.1 1-5.83 1.01-2.73 2.88-4.75t4.57-3.2 6.09-1.18q2.87 0 5.28.92 2.42.91 4.16 2.67 1.74 1.75 2.73 4.3t.99 5.83q0 1.65-.35 2.23-.36.57-1.36.57"/></svg>