<svg xmlns="http://www.w3.org/2000/svg" width="400" height="300" viewBox="0 0 400 300"><rect width="100%" height="100%" fill="#cccccc"/><path fill="#333333" d="M83.425 158.975h10.12v3.89h-14.83v-25.31h4.71zm20.74-14.35q1.99 0 3.63.65t2.8 1.84 1.79 2.9q.63 1.72.63 3.84 0 2.13-.63 3.85-.63 1.71-1.79 2.92t-2.8 1.85q-1.64.65-3.63.65-2.01 0-3.66-.65-1.64-.64-2.81-1.85-1.16-1.21-1.8-2.92-.64-1.72-.64-3.85 0-2.12.64-3.84.64-1.71 1.8-2.9 1.17-1.19 2.81-1.84 1.65-.65 3.66-.65m0 15.18q2.24 0 3.31-1.51 1.08-1.5 1.08-4.41 0-2.9-1.08-4.43-1.07-1.52-3.31-1.52-2.28 0-3.37 1.53t-1.09 4.42 1.09 4.4q1.09 1.52 3.37 1.52m34.51-14.9h3.29l-5.71 17.96h-3.46q-.6 0-.82-.77l-3.22-10.38q-.16-.52-.29-1.04t-.22-1.04q-.11.52-.24 1.06-.13.53-.29 1.06l-3.27 10.34q-.21.77-.93.77h-3.32l-5.69-17.96h3.45q.47 0 .8.23.34.23.44.58l2.57 9.59q.2.79.34 1.54.15.75.26 1.5.19-.75.41-1.5t.46-1.54l2.98-9.63q.1-.35.41-.57.31-.23.74-.23h1.91q.46 0 .78.23.32.22.43.57l2.89 9.63q.22.79.42 1.55.21.76.4 1.51.23-1.49.65-3.06l2.64-9.59q.12-.35.44-.58.31-.23.75-.23m9.15 6.92h8.16q0-.84-.24-1.59-.24-.74-.71-1.3t-1.2-.88q-.72-.33-1.69-.33-1.87 0-2.94 1.07-1.08 1.07-1.38 3.03m11.03 2.6h-11.12q.11 1.39.49 2.39.39 1.01 1.02 1.67.63.65 1.5.98.86.32 1.91.32t1.81-.25q.76-.24 1.33-.54t1-.54q.43-.25.83-.25.54 0 .81.41l1.24 1.57q-.72.84-1.61 1.41t-1.86.91q-.98.34-1.98.48-1.01.14-1.95.14-1.88 0-3.49-.62t-2.8-1.84q-1.19-1.21-1.87-3.01-.68-1.79-.68-4.15 0-1.84.59-3.46.6-1.62 1.71-2.82t2.71-1.9 3.62-.7q1.69 0 3.13.55 1.43.54 2.47 1.58 1.03 1.04 1.61 2.56.59 1.51.59 3.45 0 .98-.21 1.32t-.8.34m8.06-8.43.27 2.03q.84-1.61 1.99-2.53 1.16-.92 2.73-.92 1.24 0 2 .54l-.28 3.24q-.09.32-.26.45-.16.13-.44.13-.27 0-.78-.09-.52-.09-1.01-.09-.72 0-1.28.21t-1 .61q-.45.39-.79.95t-.64 1.28v11.06h-4.32v-17.96h2.54q.66 0 .92.24.27.24.35.85m34.39-4.69h-11.23v7.49h9.48v3.76h-9.48v10.31h-4.73v-25.31h15.96zm6.58 10.52h8.16q0-.84-.24-1.59-.24-.74-.71-1.3t-1.2-.88q-.72-.33-1.69-.33-1.87 0-2.94 1.07-1.08 1.07-1.38 3.03m11.03 2.6h-11.12q.11 1.39.49 2.39.39 1.01 1.02 1.67.63.65 1.5.98.86.32 1.91.32t1.81-.25q.76-.24 1.33-.54t1-.54q.43-.25.83-.25.54 0 .81.41l1.24 1.57q-.72.84-1.61 1.41t-1.86.91q-.98.34-1.98.48-1.01.14-1.95.14-1.88 0-3.49-.62t-2.8-1.84q-1.19-1.21-1.87-3.01-.68-1.79-.68-4.15 0-1.84.59-3.46.6-1.62 1.71-2.82t2.71-1.9 3.62-.7q1.69 0 3.13.55 1.43.54 2.47 1.58 1.03 1.04 1.62 2.56.58 1.51.58 3.45 0 .98-.21 1.32t-.8.34m8.06-8.43.27 2.03q.84-1.61 1.99-2.53 1.16-.92 2.73-.92 1.24 0 2 .54l-.28 3.24q-.09.32-.26.45-.16.13-.44.13-.27 0-.78-.09-.52-.09-1.01-.09-.72 0-1.28.21t-1 .61q-.45.39-.79.95t-.64 1.28v11.06h-4.32v-17.96h2.54q.66 0 .92.24.27.24.35.85m15.23 17.15q-2.35 0-3.6-1.32t-1.25-3.65v-10.03h-1.84q-.35 0-.59-.23-.25-.22-.25-.68v-1.71l2.89-.48.91-4.9q.09-.35.33-.54.25-.19.63-.19h2.24v5.65h4.8v3.08h-4.8v9.73q0 .84.42 1.31.41.48 1.12.48.41 0 .68-.1t.47-.2l.36-.2q.16-.1.31-.1.2 0 .32.1.12.09.26.29l1.3 2.1q-.95.78-2.17 1.19-1.23.4-2.54.4m7.17-18.24h4.34v17.96h-4.34zm4.94-5.23q0 .56-.23 1.05t-.6.86q-.38.37-.89.59-.5.21-1.08.21-.56 0-1.06-.21-.5-.22-.87-.59-.36-.37-.58-.86t-.22-1.05q0-.58.22-1.08.22-.51.58-.88.37-.37.87-.58.5-.22 1.06-.22.58 0 1.08.22.51.21.89.58.37.37.6.88.23.5.23 1.08m3.87-2.82h4.32v26.01h-4.32zm8.78 8.05h4.34v17.96h-4.34zm4.94-5.23q0 .56-.23 1.05t-.6.86q-.38.37-.89.59-.51.21-1.08.21-.56 0-1.06-.21-.5-.22-.87-.59t-.58-.86q-.22-.49-.22-1.05 0-.58.22-1.08.21-.51.58-.88t.87-.58q.5-.22 1.06-.22.57 0 1.08.22.51.21.89.58.37.37.6.88.23.5.23 1.08m16.71 5.23v1.79q0 .45-.16.89t-.42.72l-8.52 11.23h8.84v3.33h-13.86v-1.8q0-.3.14-.71t.42-.78l8.61-11.36h-8.67v-3.31zm6.6 6.92h8.15q0-.84-.23-1.59-.24-.74-.71-1.3-.48-.56-1.2-.88-.73-.33-1.69-.33-1.87 0-2.95 1.07t-1.37 3.03m11.02 2.6h-11.11q.1 1.39.49 2.39.38 1.01 1.01 1.67.63.65 1.5.98.87.32 1.92.32t1.81-.25q.76-.24 1.33-.54t1-.54q.42-.25.83-.25.54 0 .8.41l1.24 1.57q-.71.84-1.61 1.41-.89.57-1.86.91t-1.98.48q-1 .14-1.95.14-1.87 0-3.48-.62t-2.8-1.84q-1.19-1.21-1.87-3.01-.69-1.79-.69-4.15 0-1.84.6-3.46.59-1.62 1.71-2.82 1.11-1.2 2.71-1.9t3.61-.7q1.7 0 3.13.55 1.44.54 2.47 1.58t1.62 2.56q.59 1.51.59 3.45 0 .98-.21 1.32t-.81.34m8.07-8.43.26 2.03q.84-1.61 2-2.53 1.15-.92 2.73-.92 1.24 0 1.99.54l-.28 3.24q-.09.32-.25.45-.17.13-.45.13-.26 0-.78-.09-.51-.09-1-.09-.72 0-1.28.21t-1.01.61q-.44.39-.78.95-.35.56-.64 1.28v11.06h-4.33v-17.96h2.54q.67 0 .93.24t.35.85"/></svg>