<svg xmlns="http://www.w3.org/2000/svg" width="400" height="300" viewBox="0 0 400 300"><rect width="100%" height="100%" fill="#cccccc"/><path fill="#333333" d="M92.74 156.45q1.4 0 2.51-.46 1.11-.47 1.86-1.32.76-.84 1.16-2.05.41-1.21.41-2.7v-15.59h4.84v15.59q0 2.32-.75 4.29-.74 1.97-2.14 3.4-1.39 1.44-3.39 2.24t-4.5.8q-2.52 0-4.52-.8t-3.39-2.24q-1.4-1.43-2.14-3.4-.75-1.97-.75-4.29v-15.59h4.84v15.57q0 1.5.41 2.7.4 1.21 1.17 2.06.76.86 1.87 1.33 1.11.46 2.51.46m20-9.16v8.28q.75.92 1.64 1.3.9.38 1.94.38 1.01 0 1.82-.38t1.37-1.15q.57-.78.88-1.96.3-1.18.3-2.78 0-1.62-.26-2.74-.26-1.13-.74-1.83-.49-.7-1.18-1.03-.7-.32-1.58-.32-1.38 0-2.36.58-.97.59-1.83 1.65m-.6-4.59.36 1.71q1.14-1.28 2.58-2.07t3.38-.79q1.51 0 2.76.63 1.26.63 2.16 1.83.91 1.19 1.41 2.95.49 1.75.49 4.02 0 2.07-.55 3.84-.56 1.76-1.6 3.06-1.03 1.29-2.5 2.02t-3.28.73q-1.55 0-2.65-.48-1.1-.47-1.96-1.32v7.56h-4.45v-24.5h2.72q.86 0 1.13.81m21.05 4.59v8.28q.75.92 1.64 1.3t1.94.38q1.01 0 1.82-.38t1.37-1.15q.57-.78.88-1.96.3-1.18.3-2.78 0-1.62-.26-2.74-.26-1.13-.75-1.83-.48-.7-1.18-1.03-.69-.32-1.57-.32-1.39 0-2.36.58-.97.59-1.83 1.65m-.6-4.59.36 1.71q1.14-1.28 2.58-2.07t3.38-.79q1.51 0 2.76.63t2.16 1.83q.91 1.19 1.41 2.95.49 1.75.49 4.02 0 2.07-.56 3.84-.55 1.76-1.59 3.06-1.03 1.29-2.5 2.02t-3.29.73q-1.54 0-2.64-.48-1.1-.47-1.96-1.32v7.56h-4.45v-24.5h2.72q.86 0 1.13.81m20.11 6.3h8.39q0-.86-.25-1.63-.24-.76-.73-1.34-.48-.57-1.23-.91-.75-.33-1.74-.33-1.92 0-3.03 1.1T152.7 149m11.34 2.68h-11.43q.11 1.43.5 2.46.4 1.04 1.05 1.71.64.68 1.53 1.01.9.33 1.98.33t1.86-.25 1.37-.56q.58-.3 1.02-.56.44-.25.86-.25.56 0 .83.42l1.27 1.62q-.73.86-1.65 1.44-.92.59-1.92.94t-2.03.5q-1.04.14-2.01.14-1.93 0-3.58-.64-1.66-.64-2.88-1.89-1.23-1.25-1.93-3.1-.7-1.84-.7-4.27 0-1.89.61-3.56.61-1.66 1.76-2.89 1.14-1.24 2.79-1.96 1.64-.72 3.71-.72 1.75 0 3.23.56 1.47.56 2.53 1.63 1.07 1.07 1.67 2.63t.6 3.55q0 1.01-.21 1.36-.22.35-.83.35m8.3-8.67.27 2.09q.86-1.66 2.05-2.61 1.19-.94 2.81-.94 1.27 0 2.05.56l-.29 3.33q-.09.32-.26.46-.17.13-.46.13-.27 0-.8-.09t-1.04-.09q-.73 0-1.31.22-.58.21-1.04.62-.45.4-.81.98-.35.58-.65 1.31v11.38h-4.45v-18.47h2.61q.69 0 .96.24.27.25.36.88m37.13-8.68v3.98h-7.85v22.05h-4.84v-22.05h-7.85v-3.98zm7.16-.72v10.26q1.08-1.01 2.38-1.64t3.04-.63q1.51 0 2.68.52 1.17.51 1.96 1.44.78.92 1.18 2.21.41 1.29.41 2.84v11.75h-4.45v-11.75q0-1.7-.77-2.62-.77-.93-2.36-.93-1.15 0-2.16.52t-1.91 1.42v13.36h-4.44v-26.75zM236 149h8.39q0-.86-.24-1.63-.25-.76-.73-1.34-.49-.57-1.24-.91-.74-.33-1.73-.33-1.93 0-3.04 1.1-1.1 1.1-1.41 3.11m11.34 2.68h-11.43q.11 1.43.51 2.46.39 1.04 1.04 1.71.65.68 1.54 1.01t1.97.33 1.86-.25q.79-.25 1.37-.56.59-.3 1.03-.56.44-.25.85-.25.56 0 .83.42l1.28 1.62q-.74.86-1.66 1.44-.92.59-1.92.94-.99.35-2.03.5-1.03.14-2.01.14-1.92 0-3.58-.64-1.65-.64-2.88-1.89-1.22-1.25-1.92-3.1-.71-1.84-.71-4.27 0-1.89.62-3.56.61-1.66 1.75-2.89 1.14-1.24 2.79-1.96t3.72-.72q1.74 0 3.22.56t2.54 1.63 1.66 2.63q.61 1.56.61 3.55 0 1.01-.22 1.36t-.83.35m8.3-8.67.27 2.09q.86-1.66 2.05-2.61 1.19-.94 2.81-.94 1.28 0 2.05.56l-.29 3.33q-.09.32-.26.46-.17.13-.46.13-.27 0-.8-.09t-1.03-.09q-.74 0-1.32.22-.57.21-1.03.62-.46.4-.81.98t-.66 1.31v11.38h-4.44v-18.47h2.61q.68 0 .95.24.27.25.36.88m13.95 17.35h-4.45v-18.47h2.72q.87 0 1.14.81l.28 1.37q.49-.54 1.02-.99t1.13-.77q.61-.33 1.3-.52t1.52-.19q1.75 0 2.87.95 1.13.94 1.69 2.51.43-.92 1.08-1.58.64-.65 1.42-1.07.77-.41 1.65-.61.87-.2 1.75-.2 1.53 0 2.72.47t2 1.37 1.23 2.2q.42 1.29.42 2.97v11.75h-4.44v-11.75q0-1.77-.78-2.66-.77-.89-2.27-.89-.68 0-1.26.23-.59.24-1.03.68t-.69 1.11q-.26.66-.26 1.53v11.75h-4.46v-11.75q0-1.86-.75-2.7-.74-.85-2.18-.85-.98 0-1.81.48-.84.47-1.56 1.3zm35.46-4.77v-3.11q-1.93.09-3.24.33t-2.11.62q-.79.38-1.13.88-.34.51-.34 1.1 0 1.17.69 1.67.69.51 1.81.51 1.37 0 2.37-.5 1-.49 1.95-1.5m-9.4-9.7-.79-1.42q3.19-2.92 7.67-2.92 1.62 0 2.9.53t2.16 1.48q.88.94 1.34 2.26.46 1.31.46 2.88v11.66h-2.02q-.63 0-.97-.19t-.54-.76l-.4-1.34q-.7.63-1.36 1.11-.67.48-1.39.8-.72.33-1.54.5t-1.81.17q-1.17 0-2.16-.32-.99-.31-1.71-.94t-1.11-1.57q-.4-.93-.4-2.18 0-.7.23-1.39.24-.69.77-1.32t1.38-1.19q.84-.56 2.08-.97 1.23-.42 2.87-.68 1.63-.26 3.74-.31v-1.08q0-1.86-.79-2.75t-2.29-.89q-1.08 0-1.79.25t-1.25.57q-.54.31-.98.57-.44.25-.98.25-.47 0-.79-.25-.33-.24-.53-.56m17.97-12.28h4.44v26.75h-4.44z"/></svg>