<svg xmlns="http://www.w3.org/2000/svg" width="400" height="300" viewBox="0 0 400 300"><rect width="100%" height="100%" fill="#cccccc"/><path fill="#333333" d="M88.33 155.7q1.28 0 2.3-.43 1.01-.43 1.71-1.2.69-.78 1.06-1.89.37-1.1.37-2.47v-14.29h4.44v14.29q0 2.13-.68 3.94-.69 1.8-1.97 3.11-1.28 1.32-3.11 2.05t-4.12.73q-2.31 0-4.14-.73t-3.11-2.05q-1.28-1.31-1.97-3.11-.68-1.81-.68-3.94v-14.29h4.44v14.27q0 1.37.37 2.48.37 1.1 1.07 1.89.7.78 1.72 1.21 1.01.43 2.3.43m18.33-8.4v7.59q.69.84 1.51 1.19t1.77.35q.93 0 1.67-.35t1.26-1.06.8-1.79.28-2.55q0-1.48-.24-2.51t-.68-1.68q-.45-.64-1.08-.94-.64-.3-1.45-.3-1.27 0-2.16.54t-1.68 1.51m-.55-4.21.33 1.57q1.04-1.17 2.36-1.9 1.32-.72 3.11-.72 1.38 0 2.53.58 1.15.57 1.98 1.67t1.29 2.71q.45 1.6.45 3.68 0 1.9-.51 3.52-.51 1.61-1.46 2.8t-2.3 1.86q-1.34.67-3.01.67-1.42 0-2.42-.44-1.01-.44-1.8-1.21v6.93h-4.08v-22.46h2.5q.79 0 1.03.74m19.29 4.21v7.59q.7.84 1.51 1.19.82.35 1.78.35.92 0 1.66-.35.75-.35 1.27-1.06t.8-1.79.28-2.55q0-1.48-.24-2.51t-.69-1.68q-.44-.64-1.08-.94-.63-.3-1.44-.3-1.27 0-2.16.54t-1.69 1.51m-.54-4.21.33 1.57q1.04-1.17 2.36-1.9 1.32-.72 3.1-.72 1.39 0 2.53.58 1.15.57 1.98 1.67.84 1.1 1.29 2.71.45 1.6.45 3.68 0 1.9-.51 3.52-.51 1.61-1.46 2.8t-2.29 1.86q-1.35.67-3.01.67-1.42 0-2.43-.44-1-.44-1.8-1.21v6.93h-4.07v-22.46h2.49q.79 0 1.04.74m18.43 5.78h7.69q0-.79-.22-1.49-.23-.71-.67-1.23-.45-.53-1.13-.84-.69-.3-1.6-.3-1.76 0-2.78 1-1.01 1.01-1.29 2.86m10.39 2.46h-10.47q.1 1.3.46 2.25t.96 1.57q.59.62 1.41.92.81.31 1.8.31t1.71-.24q.72-.23 1.26-.51.53-.28.94-.51.4-.23.78-.23.51 0 .76.38l1.17 1.49q-.68.79-1.52 1.32-.84.54-1.76.86-.91.32-1.86.46-.95.13-1.84.13-1.77 0-3.28-.59-1.52-.58-2.64-1.73-1.13-1.15-1.77-2.84t-.64-3.92q0-1.73.56-3.26.56-1.52 1.61-2.65t2.56-1.79q1.5-.66 3.4-.66 1.6 0 2.96.51 1.35.51 2.32 1.49.98.98 1.53 2.41t.55 3.26q0 .92-.2 1.25-.19.32-.76.32m7.61-7.96.25 1.92q.79-1.52 1.88-2.39 1.09-.86 2.57-.86 1.17 0 1.88.51l-.26 3.05q-.08.3-.24.42-.16.13-.42.13-.25 0-.73-.09-.49-.08-.95-.08-.68 0-1.21.2t-.95.57-.74.9-.6 1.2v10.43h-4.08v-16.93h2.4q.62 0 .87.22.25.23.33.8m38.56 3.98q0 2.62-.87 4.82-.88 2.19-2.46 3.78-1.59 1.58-3.81 2.46-2.23.87-4.95.87h-9.09v-23.86h9.09q2.72 0 4.95.88 2.22.89 3.81 2.46 1.58 1.58 2.46 3.77.87 2.2.87 4.82m-4.55 0q0-1.96-.52-3.52t-1.5-2.64q-.99-1.08-2.38-1.66t-3.14-.58h-4.64v16.8h4.64q1.75 0 3.14-.58t2.38-1.66q.98-1.08 1.5-2.64t.52-3.52m7.95-5h4.09v16.93h-4.09zm4.65-4.93q0 .53-.21.99-.22.46-.57.81-.36.34-.83.55-.48.21-1.03.21-.52 0-.99-.21t-.82-.55q-.35-.35-.55-.81-.21-.46-.21-.99 0-.55.21-1.03.2-.47.55-.82t.82-.55q.47-.21.99-.21.55 0 1.03.21.47.2.83.55.35.35.57.82.21.48.21 1.03m14.85 6.76-.92 1.47q-.17.26-.35.37t-.46.11q-.3 0-.63-.17l-.79-.37q-.44-.2-1.01-.37-.57-.16-1.35-.16-1.2 0-1.89.51-.68.51-.68 1.33 0 .55.35.92.36.37.94.65.59.28 1.33.51.74.22 1.51.48.77.27 1.51.6.74.34 1.33.86t.94 1.25q.35.72.35 1.75 0 1.22-.43 2.25-.44 1.03-1.3 1.78t-2.12 1.17-2.91.42q-.87 0-1.71-.15-.83-.16-1.6-.44t-1.42-.66-1.14-.83l.94-1.55q.18-.28.43-.43.24-.14.62-.14t.72.21q.34.22.78.46.45.25 1.05.46.6.22 1.53.22.72 0 1.24-.17.52-.18.86-.46t.5-.65q.15-.37.15-.77 0-.59-.35-.97-.36-.38-.94-.66-.59-.28-1.34-.5-.75-.23-1.53-.49-.79-.26-1.54-.62-.75-.35-1.33-.9-.59-.54-.94-1.33-.36-.8-.36-1.92 0-1.04.41-1.98.42-.94 1.22-1.64t1.99-1.12q1.2-.42 2.77-.42 1.75 0 3.18.57 1.44.58 2.39 1.52m16.45.27-1.07 1.48q-.18.23-.35.36-.18.14-.51.14-.31 0-.61-.19-.29-.19-.71-.43-.41-.24-.98-.43t-1.41-.19q-1.07 0-1.88.39-.81.38-1.34 1.11-.54.73-.8 1.76-.27 1.03-.27 2.33 0 1.36.29 2.41.29 1.06.83 1.78.55.71 1.32 1.08.78.38 1.75.38.98 0 1.58-.24t1.01-.53q.42-.29.72-.53.31-.24.69-.24.49 0 .74.38l1.17 1.49q-.68.79-1.47 1.32-.79.54-1.64.86t-1.75.46q-.9.13-1.79.13-1.57 0-2.95-.59-1.39-.58-2.43-1.71-1.04-1.12-1.64-2.74-.6-1.63-.6-3.71 0-1.86.53-3.45.54-1.6 1.58-2.76t2.57-1.82q1.54-.66 3.53-.66 1.9 0 3.33.61t2.56 1.75m6.79-9.69v9.41q.99-.93 2.17-1.51 1.19-.57 2.79-.57 1.39 0 2.46.47t1.79 1.32 1.09 2.03.37 2.6v10.77h-4.07v-10.77q0-1.56-.71-2.41t-2.17-.85q-1.05 0-1.98.48-.92.48-1.74 1.31v12.24h-4.08v-24.52zm23.48 20.15v-2.86q-1.77.09-2.97.31-1.21.22-1.94.57-.72.34-1.03.81-.32.46-.32 1 0 1.07.64 1.54.63.46 1.66.46 1.25 0 2.16-.45.92-.46 1.8-1.38m-8.62-8.9-.72-1.3q2.92-2.67 7.02-2.67 1.49 0 2.66.48 1.17.49 1.98 1.36.81.86 1.23 2.07.42 1.2.42 2.64v10.69h-1.85q-.57 0-.89-.17-.31-.18-.49-.7l-.37-1.23q-.64.58-1.25 1.02t-1.27.73q-.66.3-1.41.46-.75.15-1.66.15-1.07 0-1.98-.28-.91-.29-1.57-.87t-1.02-1.44q-.36-.85-.36-1.99 0-.65.21-1.28.22-.64.7-1.21.49-.58 1.27-1.09.77-.52 1.9-.89 1.13-.38 2.63-.62t3.44-.29v-.99q0-1.7-.73-2.52t-2.1-.82q-.99 0-1.64.24-.65.23-1.14.52-.5.28-.9.52-.41.23-.9.23-.43 0-.73-.23-.3-.22-.48-.52m20.02-2.64.24 1.92q.8-1.52 1.89-2.39 1.08-.86 2.57-.86 1.17 0 1.88.51l-.26 3.05q-.09.3-.24.42-.16.13-.42.13-.25 0-.74-.09-.48-.08-.95-.08-.67 0-1.2.2t-.95.57-.74.9-.6 1.2v10.43h-4.08v-16.93h2.39q.63 0 .88.22.24.23.33.8m14.9 7.03q.76 0 1.32-.2.56-.21.93-.57.37-.37.56-.88t.19-1.12q0-1.25-.75-1.99-.75-.73-2.25-.73-1.51 0-2.26.73-.75.74-.75 1.99 0 .6.19 1.11t.56.88q.38.37.94.58.57.2 1.32.2m4.6 9.64q0-.5-.3-.81-.29-.31-.81-.49-.51-.17-1.19-.25-.69-.08-1.45-.13-.77-.04-1.59-.07-.81-.03-1.59-.13-.68.38-1.1.89t-.42 1.19q0 .44.22.83.23.39.71.67.49.28 1.27.44.77.15 1.89.15 1.14 0 1.97-.17.82-.17 1.36-.48.53-.3.78-.73.25-.42.25-.91m-.81-17.11h4.87v1.52q0 .72-.88.89l-1.51.28q.34.87.34 1.91 0 1.26-.5 2.27-.5 1.02-1.39 1.72-.9.71-2.11 1.1t-2.61.39q-.5 0-.96-.05t-.91-.13q-.79.48-.79 1.07 0 .51.47.75t1.25.34q.77.1 1.76.12.99.03 2.03.11t2.03.29 1.77.65q.77.45 1.24 1.21.47.77.47 1.98 0 1.12-.55 2.17-.55 1.06-1.6 1.89-1.05.82-2.58 1.32-1.52.51-3.47.51-1.91 0-3.33-.37-1.42-.38-2.36-.99-.94-.62-1.4-1.43-.47-.81-.47-1.68 0-1.19.72-1.99t1.97-1.28q-.67-.35-1.07-.93-.39-.57-.39-1.51 0-.38.14-.79.14-.4.41-.8.27-.39.68-.75.42-.35.98-.63-1.29-.7-2.03-1.85-.73-1.16-.73-2.71 0-1.25.5-2.27.51-1.01 1.41-1.73t2.12-1.1q1.23-.38 2.69-.38 1.09 0 2.04.23.96.22 1.75.65m10.66 5.94h7.69q0-.79-.22-1.49-.23-.71-.67-1.23-.45-.53-1.13-.84-.69-.3-1.59-.3-1.77 0-2.78 1-1.02 1.01-1.3 2.86m10.4 2.46h-10.48q.1 1.3.46 2.25t.96 1.57q.59.62 1.41.92.81.31 1.8.31t1.71-.24q.72-.23 1.26-.51.53-.28.94-.51.4-.23.78-.23.51 0 .76.38l1.17 1.49q-.68.79-1.52 1.32-.84.54-1.75.86-.92.32-1.87.46-.95.13-1.84.13-1.76 0-3.28-.59-1.52-.58-2.64-1.73t-1.77-2.84q-.64-1.69-.64-3.92 0-1.73.56-3.26.56-1.52 1.61-2.65t2.56-1.79 3.4-.66q1.6 0 2.96.51 1.35.51 2.32 1.49.98.98 1.53 2.41t.55 3.26q0 .92-.2 1.25-.19.32-.75.32"/></svg>