<svg xmlns="http://www.w3.org/2000/svg" width="400" height="300" viewBox="0 0 400 300"><rect width="100%" height="100%" fill="#cccccc"/><path fill="#333333" d="M92.69 156.965q1.52 0 2.72-.51t2.02-1.42q.82-.92 1.26-2.22.44-1.31.44-2.93v-16.89h5.24v16.89q0 2.52-.81 4.65-.81 2.14-2.32 3.69t-3.67 2.41q-2.17.87-4.88.87-2.73 0-4.89-.87-2.17-.86-3.68-2.41t-2.32-3.69q-.81-2.13-.81-4.65v-16.89h5.25v16.87q0 1.62.44 2.93.43 1.3 1.26 2.23.83.92 2.03 1.43t2.72.51m21.67-9.93v8.97q.81 1 1.78 1.41t2.1.41q1.09 0 1.97-.41.87-.41 1.49-1.25.61-.84.94-2.12.33-1.27.33-3.01 0-1.75-.28-2.97t-.81-1.98q-.52-.76-1.27-1.11t-1.71-.35q-1.5 0-2.56.63-1.05.63-1.98 1.78m-.65-4.97.39 1.85q1.23-1.38 2.79-2.24t3.67-.86q1.63 0 2.99.68 1.36.69 2.34 1.98.99 1.3 1.52 3.2.54 1.9.54 4.36 0 2.24-.61 4.15-.6 1.92-1.72 3.32t-2.71 2.19-3.56.79q-1.68 0-2.87-.51-1.19-.52-2.12-1.44v8.19h-4.82v-26.54h2.94q.94 0 1.23.88m22.8 4.97v8.97q.82 1 1.78 1.41.97.41 2.1.41 1.09 0 1.97-.41t1.49-1.25.95-2.12q.33-1.27.33-3.01 0-1.75-.29-2.97-.28-1.22-.81-1.98-.52-.76-1.27-1.11t-1.71-.35q-1.5 0-2.55.63-1.06.63-1.99 1.78m-.65-4.97.39 1.85q1.23-1.38 2.79-2.24t3.67-.86q1.64 0 2.99.68 1.36.69 2.34 1.98.99 1.3 1.52 3.2.54 1.9.54 4.36 0 2.24-.6 4.15-.61 1.92-1.73 3.32t-2.71 2.19-3.56.79q-1.68 0-2.87-.51-1.19-.52-2.12-1.44v8.19h-4.82v-26.54h2.95q.93 0 1.22.88m21.79 6.83h9.08q0-.94-.26-1.77t-.79-1.45q-.53-.63-1.34-.99t-1.88-.36q-2.08 0-3.28 1.19t-1.53 3.38m12.28 2.9h-12.38q.12 1.54.54 2.66.43 1.12 1.14 1.86.7.73 1.66 1.09.97.36 2.14.36t2.02-.28q.84-.27 1.48-.6.63-.33 1.11-.6.48-.28.93-.28.6 0 .89.45l1.39 1.76q-.8.93-1.8 1.57-.99.63-2.07 1.01-1.09.38-2.21.54-1.12.15-2.17.15-2.09 0-3.88-.69-1.8-.69-3.12-2.05-1.33-1.35-2.09-3.35t-.76-4.63q0-2.05.66-3.85.67-1.81 1.91-3.14 1.23-1.34 3.02-2.12 1.78-.78 4.03-.78 1.89 0 3.49.61 1.59.6 2.75 1.76 1.15 1.16 1.8 2.85.65 1.68.65 3.85 0 1.09-.23 1.47-.24.38-.9.38m8.99-9.4.29 2.26q.94-1.79 2.23-2.81 1.28-1.03 3.04-1.03 1.38 0 2.22.61l-.31 3.6q-.1.36-.28.5-.19.15-.5.15-.29 0-.87-.1-.57-.1-1.12-.1-.8 0-1.42.24-.63.23-1.12.67-.5.44-.88 1.06-.38.63-.71 1.43v12.32h-4.82v-20.01h2.83q.74 0 1.03.27.29.26.39.94m47.15-9.4h3.96v28.2h-4.62v-18.21q0-1.09.12-2.36l-8.53 16.01q-.6 1.15-1.85 1.15h-.74q-1.25 0-1.85-1.15l-8.62-16.07q.06.64.1 1.27.04.62.04 1.15v18.21h-4.63v-28.2h3.96q.35 0 .61.02.25.02.46.1.2.08.37.25.16.18.32.47l8.44 15.66q.33.62.62 1.29.28.66.55 1.36.27-.72.57-1.39.29-.68.62-1.3l8.33-15.62q.15-.29.33-.47.17-.17.38-.25.2-.08.46-.1.25-.02.6-.02m20.05 23.03v-3.37q-2.09.1-3.51.36-1.43.26-2.28.67-.86.41-1.23.96-.37.54-.37 1.19 0 1.27.75 1.81.75.55 1.96.55 1.48 0 2.56-.54t2.12-1.63m-10.18-10.51-.86-1.54q3.45-3.16 8.31-3.16 1.75 0 3.14.58 1.38.57 2.34 1.6.95 1.02 1.45 2.44.5 1.43.5 3.12v12.64h-2.19q-.68 0-1.05-.2-.37-.21-.59-.83l-.42-1.45q-.76.69-1.49 1.2-.72.52-1.5.87t-1.66.54q-.89.18-1.96.18-1.27 0-2.34-.34-1.08-.34-1.86-1.02-.78-.69-1.21-1.7-.42-1.01-.42-2.36 0-.76.25-1.51t.83-1.43q.57-.69 1.49-1.29.92-.61 2.25-1.05 1.34-.45 3.11-.73 1.78-.29 4.06-.35v-1.17q0-2-.86-2.97-.86-.96-2.48-.96-1.17 0-1.94.27t-1.35.61q-.59.34-1.07.62-.47.27-1.06.27-.51 0-.86-.26-.35-.27-.56-.62m23.65-3.12.29 2.26q.94-1.79 2.23-2.81 1.28-1.03 3.04-1.03 1.38 0 2.22.61l-.31 3.6q-.1.36-.28.5-.19.15-.5.15-.29 0-.87-.1-.57-.1-1.12-.1-.8 0-1.42.24-.63.23-1.12.67-.5.44-.88 1.06-.38.63-.71 1.43v12.32h-4.82v-20.01h2.83q.74 0 1.03.27.29.26.39.94m10.45-1.21h4.84v20.01h-4.84zm5.5-5.83q0 .63-.25 1.17-.25.55-.67.96t-.99.65q-.56.24-1.21.24-.62 0-1.18-.24-.55-.24-.96-.65t-.66-.96q-.24-.54-.24-1.17 0-.64.24-1.21.25-.56.66-.97t.96-.65q.56-.25 1.18-.25.65 0 1.21.25.57.24.99.65t.67.97q.25.57.25 1.21m8.43 6.71.33 1.58q.6-.6 1.28-1.12.67-.52 1.42-.88t1.61-.56q.86-.21 1.87-.21 1.64 0 2.91.56 1.26.55 2.11 1.56.85 1 1.29 2.4.44 1.39.44 3.07v12.73h-4.82v-12.73q0-1.84-.84-2.84t-2.55-1q-1.25 0-2.34.56-1.09.57-2.07 1.54v14.47h-4.82v-20.01h2.95q.93 0 1.23.88m21.62 6.83h9.09q0-.94-.26-1.77-.27-.83-.79-1.45-.53-.63-1.34-.99t-1.88-.36q-2.09 0-3.29 1.19t-1.53 3.38m12.29 2.9H305.5q.11 1.54.54 2.66t1.13 1.86q.7.73 1.67 1.09.96.36 2.13.36t2.02-.28q.85-.27 1.48-.6.64-.33 1.12-.6.47-.28.92-.28.61 0 .9.45l1.38 1.76q-.8.93-1.79 1.57-.99.63-2.08 1.01-1.08.38-2.2.54-1.12.15-2.17.15-2.09 0-3.88-.69-1.8-.69-3.12-2.05-1.33-1.35-2.09-3.35t-.76-4.63q0-2.05.66-3.85.66-1.81 1.9-3.14 1.24-1.34 3.02-2.12 1.79-.78 4.03-.78 1.89 0 3.49.61 1.6.6 2.75 1.76t1.81 2.85q.65 1.68.65 3.85 0 1.09-.24 1.47-.23.38-.89.38"/></svg>