<svg xmlns="http://www.w3.org/2000/svg" width="400" height="300" viewBox="0 0 400 300"><rect width="100%" height="100%" fill="#cccccc"/><path fill="#333333" d="M90.44 156.45q1.41 0 2.52-.46 1.1-.47 1.86-1.32.75-.84 1.16-2.05.4-1.21.4-2.7v-15.59h4.85v15.59q0 2.32-.75 4.29t-2.14 3.4q-1.4 1.44-3.4 2.24-1.99.8-4.5.8-2.52 0-4.51-.8-2-.8-3.4-2.24-1.39-1.43-2.14-3.4t-.75-4.29v-15.59h4.85v15.57q0 1.5.4 2.7.41 1.21 1.17 2.06.77.86 1.87 1.33 1.11.46 2.51.46m20-9.16v8.28q.76.92 1.65 1.3t1.93.38q1.01 0 1.82-.38t1.38-1.15q.57-.78.87-1.96.31-1.18.31-2.78 0-1.62-.26-2.74-.26-1.13-.75-1.83t-1.18-1.03q-.69-.32-1.57-.32-1.39 0-2.36.58-.97.59-1.84 1.65m-.59-4.59.36 1.71q1.13-1.28 2.57-2.07t3.39-.79q1.51 0 2.76.63t2.16 1.83q.91 1.19 1.4 2.95.5 1.75.5 4.02 0 2.07-.56 3.84-.56 1.76-1.59 3.06-1.04 1.29-2.5 2.02-1.47.73-3.29.73-1.55 0-2.65-.48-1.09-.47-1.96-1.32v7.56H106v-24.5h2.71q.87 0 1.14.81m21.04 4.59v8.28q.76.92 1.65 1.3t1.93.38q1.01 0 1.82-.38t1.38-1.15q.56-.78.87-1.96t.31-2.78q0-1.62-.26-2.74-.27-1.13-.75-1.83-.49-.7-1.18-1.03-.69-.32-1.58-.32-1.38 0-2.35.58-.98.59-1.84 1.65m-.59-4.59.36 1.71q1.13-1.28 2.57-2.07t3.38-.79q1.52 0 2.77.63t2.16 1.83q.91 1.19 1.4 2.95.5 1.75.5 4.02 0 2.07-.56 3.84-.56 1.76-1.59 3.06-1.04 1.29-2.51 2.02-1.46.73-3.28.73-1.55 0-2.65-.48-1.1-.47-1.96-1.32v7.56h-4.45v-24.5h2.72q.87 0 1.14.81m20.1 6.3h8.39q0-.86-.24-1.63-.25-.76-.73-1.34-.49-.57-1.23-.91-.75-.33-1.74-.33-1.93 0-3.03 1.1-1.11 1.1-1.42 3.11m11.34 2.68h-11.43q.11 1.43.51 2.46.39 1.04 1.04 1.71.65.68 1.54 1.01t1.97.33 1.86-.25q.79-.25 1.37-.56.59-.3 1.03-.56.44-.25.85-.25.56 0 .83.42l1.28 1.62q-.74.86-1.66 1.44-.92.59-1.91.94-1 .35-2.04.5-1.03.14-2.01.14-1.92 0-3.58-.64-1.65-.64-2.88-1.89-1.22-1.25-1.92-3.1-.71-1.84-.71-4.27 0-1.89.62-3.56.61-1.66 1.75-2.89 1.14-1.24 2.79-1.96t3.72-.72q1.74 0 3.22.56t2.54 1.63 1.66 2.63q.61 1.56.61 3.55 0 1.01-.22 1.36t-.83.35m8.3-8.67.27 2.09q.86-1.66 2.05-2.61 1.19-.94 2.81-.94 1.28 0 2.05.56l-.29 3.33q-.09.32-.26.46-.17.13-.46.13-.27 0-.8-.09t-1.03-.09q-.74 0-1.32.22-.57.21-1.03.62-.46.4-.81.98t-.66 1.31v11.38h-4.44v-18.47h2.61q.68 0 .95.24.27.25.36.88m42.07 4.34q0 2.86-.96 5.25-.95 2.4-2.68 4.12-1.73 1.73-4.16 2.69-2.43.95-5.4.95h-9.92v-26.03h9.92q2.97 0 5.4.96 2.43.97 4.16 2.69t2.68 4.11q.96 2.39.96 5.26m-4.97 0q0-2.15-.57-3.85t-1.64-2.88-2.59-1.81-3.43-.63h-5.06v18.33h5.06q1.91 0 3.43-.63t2.59-1.81 1.64-2.88.57-3.84m8.67-5.46h4.47v18.47h-4.47zm5.08-5.38q0 .58-.23 1.08-.24.5-.62.88-.39.38-.91.6-.53.23-1.12.23-.58 0-1.09-.23-.51-.22-.89-.6t-.6-.88q-.23-.5-.23-1.08 0-.59.23-1.12.22-.52.6-.9.38-.37.89-.6.51-.22 1.09-.22.59 0 1.12.22.52.23.91.6.38.38.62.9.23.53.23 1.12m16.2 7.38-1.01 1.6q-.18.29-.38.41-.19.11-.5.11-.32 0-.69-.18t-.86-.4q-.48-.23-1.1-.41-.63-.18-1.47-.18-1.32 0-2.06.56-.75.56-.75 1.46 0 .59.39 1 .38.4 1.02.71t1.45.55 1.65.53 1.65.66 1.45.93q.63.57 1.02 1.36t.39 1.91q0 1.33-.48 2.46-.48 1.12-1.41 1.94-.94.82-2.31 1.28-1.38.46-3.18.46-.96 0-1.86-.17-.91-.17-1.75-.48t-1.55-.72-1.25-.9l1.03-1.69q.19-.31.46-.47t.69-.16q.41 0 .78.23.37.24.86.51.48.27 1.14.5t1.66.23q.8 0 1.36-.19.57-.18.94-.49t.54-.71q.17-.41.17-.84 0-.65-.39-1.06-.38-.41-1.02-.72t-1.46-.55-1.67-.53q-.86-.29-1.68-.68-.82-.38-1.46-.98-.64-.59-1.02-1.45-.39-.87-.39-2.09 0-1.14.45-2.16.45-1.03 1.32-1.79.88-.77 2.18-1.23 1.31-.46 3.02-.46 1.9 0 3.47.63t2.61 1.66m7.99 3.4v8.28q.76.92 1.65 1.3t1.94.38q1 0 1.81-.38t1.38-1.15q.57-.78.87-1.96.31-1.18.31-2.78 0-1.62-.26-2.74-.26-1.13-.75-1.83t-1.18-1.03q-.69-.32-1.57-.32-1.39 0-2.36.58-.97.59-1.84 1.65m-.59-4.59.36 1.71q1.13-1.28 2.57-2.07t3.39-.79q1.51 0 2.76.63t2.16 1.83q.91 1.19 1.4 2.95.5 1.75.5 4.02 0 2.07-.56 3.84-.56 1.76-1.59 3.06-1.04 1.29-2.5 2.02-1.47.73-3.29.73-1.55 0-2.65-.48-1.09-.47-1.96-1.32v7.56h-4.44v-24.5h2.72q.86 0 1.13.81m24.77-1.1q2.05 0 3.73.67 1.69.67 2.88 1.89 1.2 1.22 1.85 2.99.65 1.76.65 3.94 0 2.2-.65 3.96t-1.85 3.01q-1.19 1.24-2.88 1.9-1.68.67-3.73.67-2.07 0-3.76-.67-1.7-.66-2.89-1.9-1.2-1.25-1.86-3.01-.65-1.76-.65-3.96 0-2.18.65-3.94.66-1.77 1.86-2.99 1.19-1.22 2.89-1.89 1.69-.67 3.76-.67m0 15.61q2.3 0 3.41-1.55t1.11-4.53q0-2.99-1.11-4.56-1.11-1.56-3.41-1.56-2.34 0-3.47 1.57-1.12 1.58-1.12 4.55t1.12 4.52q1.13 1.56 3.47 1.56m24.78-13.32-1 1.6q-.18.29-.38.41-.2.11-.51.11-.32 0-.69-.18t-.85-.4q-.49-.23-1.11-.41t-1.47-.18q-1.31 0-2.06.56t-.75 1.46q0 .59.39 1 .39.4 1.03.71t1.45.55 1.64.53q.84.29 1.65.66t1.45.93q.64.57 1.02 1.36.39.79.39 1.91 0 1.33-.48 2.46-.47 1.12-1.41 1.94-.93.82-2.31 1.28t-3.18.46q-.95 0-1.86-.17t-1.75-.48q-.83-.31-1.55-.72-.71-.41-1.25-.9l1.03-1.69q.2-.31.47-.47t.68-.16q.42 0 .78.23.37.24.86.51t1.14.5q.66.23 1.67.23.79 0 1.36-.19.56-.18.93-.49t.54-.71q.17-.41.17-.84 0-.65-.38-1.06-.39-.41-1.03-.72t-1.46-.55-1.67-.53q-.86-.29-1.68-.68-.81-.38-1.45-.98-.64-.59-1.03-1.45-.39-.87-.39-2.09 0-1.14.45-2.16.45-1.03 1.33-1.79.87-.77 2.17-1.23 1.31-.46 3.02-.46 1.91 0 3.47.63 1.57.63 2.61 1.66m13.31 11.7v-3.11q-1.93.09-3.24.33-1.32.24-2.11.62t-1.13.88q-.35.51-.35 1.1 0 1.17.7 1.67.69.51 1.81.51 1.36 0 2.36-.5 1-.49 1.96-1.5m-9.4-9.7-.79-1.42q3.18-2.92 7.67-2.92 1.62 0 2.89.53 1.28.53 2.16 1.48.89.94 1.34 2.26.46 1.31.46 2.88v11.66h-2.01q-.63 0-.97-.19-.35-.19-.54-.76l-.4-1.34q-.7.63-1.37 1.11-.66.48-1.38.8-.72.33-1.54.5t-1.81.17q-1.17 0-2.16-.32-.99-.31-1.71-.94t-1.12-1.57q-.39-.93-.39-2.18 0-.7.23-1.39t.76-1.32q.54-.63 1.38-1.19.85-.56 2.08-.97 1.23-.42 2.87-.68t3.75-.31v-1.08q0-1.86-.8-2.75-.79-.89-2.28-.89-1.08 0-1.79.25t-1.25.57l-.99.57q-.44.25-.98.25-.46 0-.79-.25-.32-.24-.52-.56m17.96-12.28h4.45v26.75h-4.45z"/></svg>