<svg xmlns="http://www.w3.org/2000/svg" width="400" height="300" viewBox="0 0 400 300"><rect width="100%" height="100%" fill="#cccccc"/><path fill="#333333" d="M91.51 156.09q1.33 0 2.38-.44 1.04-.44 1.76-1.24.71-.8 1.09-1.94t.38-2.55V135.2h4.58v14.72q0 2.19-.71 4.05-.7 1.87-2.02 3.22t-3.21 2.11q-1.88.75-4.25.75-2.38 0-4.26-.75-1.89-.76-3.21-2.11-1.31-1.35-2.02-3.22-.71-1.86-.71-4.05V135.2h4.58v14.7q0 1.41.38 2.55t1.1 1.95q.73.81 1.77 1.25 1.05.44 2.37.44m18.89-8.65v7.82q.72.86 1.56 1.22t1.82.36q.96 0 1.72-.36.77-.36 1.3-1.09.54-.73.83-1.84t.29-2.63q0-1.53-.25-2.59t-.71-1.73q-.46-.66-1.11-.96-.65-.31-1.49-.31-1.31 0-2.22.55-.92.55-1.74 1.56m-.56-4.34.34 1.62q1.07-1.21 2.43-1.96t3.2-.75q1.43 0 2.61.6 1.18.59 2.04 1.73.86 1.13 1.32 2.78.47 1.66.47 3.8 0 1.96-.53 3.62-.52 1.67-1.5 2.89-.98 1.23-2.36 1.92-1.39.69-3.11.69-1.46 0-2.5-.46-1.03-.45-1.85-1.25v7.15h-4.2v-23.14h2.57q.82 0 1.07.76m19.87 4.34v7.82q.72.86 1.56 1.22t1.83.36q.95 0 1.71-.36.77-.36 1.3-1.09.54-.73.83-1.84t.29-2.63q0-1.53-.25-2.59t-.7-1.73q-.46-.66-1.12-.96-.65-.31-1.49-.31-1.3 0-2.22.55t-1.74 1.56m-.56-4.34.34 1.62q1.07-1.21 2.43-1.96t3.2-.75q1.43 0 2.61.6 1.18.59 2.04 1.73.86 1.13 1.32 2.78.47 1.66.47 3.8 0 1.96-.52 3.62-.53 1.67-1.51 2.89-.98 1.23-2.36 1.92-1.39.69-3.1.69-1.47 0-2.5-.46-1.04-.45-1.86-1.25v7.15h-4.2v-23.14h2.57q.82 0 1.07.76m18.99 5.95h7.92q0-.81-.23-1.54-.23-.72-.68-1.26-.46-.55-1.17-.86-.7-.32-1.64-.32-1.82 0-2.86 1.04-1.05 1.04-1.34 2.94m10.71 2.54h-10.79q.1 1.34.47 2.32.38.97.99 1.61t1.45.95q.84.32 1.86.32t1.76-.24 1.29-.53q.56-.29.97-.52.42-.24.81-.24.53 0 .78.39l1.21 1.53q-.7.81-1.56 1.37-.87.55-1.81.88-.95.33-1.93.47-.97.14-1.89.14-1.82 0-3.38-.61-1.57-.6-2.72-1.78-1.16-1.19-1.82-2.93-.67-1.74-.67-4.04 0-1.78.58-3.35.58-1.58 1.66-2.74t2.63-1.84q1.56-.68 3.52-.68 1.64 0 3.04.52 1.39.53 2.4 1.54 1 1.01 1.57 2.48t.57 3.36q0 .95-.21 1.28-.2.34-.78.34m7.84-8.2.25 1.97q.82-1.56 1.94-2.45 1.12-.9 2.65-.9 1.21 0 1.94.53l-.27 3.15q-.09.3-.25.43t-.43.13q-.26 0-.76-.09-.5-.08-.97-.08-.7 0-1.25.2-.54.21-.97.59-.44.38-.77.92-.33.55-.62 1.25v10.74h-4.2v-17.44h2.47q.64 0 .9.23.25.23.34.82m22.47 4.17h3.42q1.26 0 2.19-.32.94-.31 1.56-.9t.92-1.43q.31-.84.31-1.88 0-.98-.31-1.78-.3-.8-.91-1.36-.62-.56-1.55-.86-.94-.3-2.21-.3h-3.42zm-4.57-12.36h7.99q2.46 0 4.27.58 1.8.57 2.97 1.61t1.74 2.48q.57 1.45.57 3.16 0 1.79-.59 3.28-.6 1.48-1.79 2.56-1.19 1.07-2.98 1.66-1.79.6-4.19.6h-3.42v8.65h-4.57zm23.7 13.85h7.92q0-.81-.23-1.54-.23-.72-.69-1.26-.46-.55-1.16-.86-.71-.32-1.64-.32-1.82 0-2.87 1.04-1.04 1.04-1.33 2.94m10.71 2.54h-10.8q.1 1.34.48 2.32.37.97.98 1.61.62.64 1.46.95.84.32 1.86.32t1.76-.24 1.29-.53.97-.52q.42-.24.81-.24.52 0 .78.39l1.21 1.53q-.7.81-1.57 1.37-.86.55-1.81.88-.94.33-1.92.47t-1.89.14q-1.82 0-3.39-.61-1.56-.6-2.72-1.78-1.15-1.19-1.82-2.93-.66-1.74-.66-4.04 0-1.78.58-3.35.58-1.58 1.66-2.74t2.63-1.84q1.56-.68 3.51-.68 1.65 0 3.04.52 1.4.53 2.4 1.54t1.57 2.48.57 3.36q0 .95-.2 1.28-.2.34-.78.34m15.72-7.37-.95 1.52q-.17.27-.36.38-.18.11-.47.11-.31 0-.66-.17t-.8-.38q-.46-.21-1.05-.38t-1.39-.17q-1.24 0-1.94.52-.71.53-.71 1.38 0 .56.37.94.36.39.97.67.6.29 1.37.52.76.23 1.55.5.79.28 1.56.63.76.34 1.36.88.61.53.97 1.28.37.75.37 1.8 0 1.26-.45 2.33-.45 1.06-1.34 1.83-.88.77-2.18 1.21-1.3.43-3 .43-.9 0-1.76-.16t-1.65-.45-1.46-.68-1.18-.85l.97-1.6q.18-.29.44-.44.25-.15.64-.15.4 0 .74.22.35.22.81.47.46.26 1.08.48t1.57.22q.75 0 1.29-.18.53-.18.88-.47.35-.28.51-.67.16-.38.16-.79 0-.61-.36-1-.37-.39-.97-.68-.61-.29-1.38-.52t-1.58-.5-1.58-.64q-.77-.36-1.38-.92-.6-.57-.97-1.38-.36-.82-.36-1.97 0-1.07.42-2.04.43-.97 1.25-1.69.83-.73 2.06-1.16t2.85-.43q1.8 0 3.28.59 1.48.6 2.46 1.56m9.17 15.83q-2.28 0-3.5-1.28-1.21-1.29-1.21-3.55v-9.74h-1.79q-.34 0-.58-.22-.23-.22-.23-.66v-1.67l2.8-.46.88-4.76q.09-.34.33-.52.24-.19.61-.19h2.18v5.49h4.65v2.99h-4.65v9.45q0 .82.39 1.28.4.46 1.1.46.39 0 .66-.09.26-.1.45-.2.2-.1.35-.2.16-.09.31-.09.19 0 .31.09.11.1.25.28l1.26 2.04q-.92.77-2.11 1.16t-2.46.39m6.97-17.71h4.21v17.44h-4.21zm4.79-5.09q0 .55-.22 1.02-.22.48-.59.84-.36.35-.86.57-.49.21-1.05.21-.54 0-1.03-.21-.48-.22-.84-.57-.36-.36-.57-.84-.21-.47-.21-1.02 0-.56.21-1.05t.57-.85.84-.57q.49-.21 1.03-.21.56 0 1.05.21.5.21.86.57.37.36.59.85t.22 1.05m17.31 7.25-1.11 1.53q-.19.23-.36.37-.18.14-.52.14-.33 0-.63-.2-.31-.19-.73-.44-.43-.25-1.01-.44-.59-.2-1.46-.2-1.1 0-1.94.4-.83.4-1.38 1.15t-.83 1.81q-.27 1.06-.27 2.4 0 1.4.3 2.49.3 1.08.86 1.82t1.36 1.13q.8.38 1.8.38t1.62-.25q.62-.24 1.05-.54.42-.3.74-.55.31-.24.7-.24.51 0 .77.39l1.21 1.53q-.7.81-1.52 1.37-.81.55-1.69.88-.87.33-1.8.47t-1.85.14q-1.61 0-3.04-.61-1.43-.6-2.5-1.76-1.07-1.15-1.69-2.83-.62-1.67-.62-3.82 0-1.92.55-3.56.56-1.64 1.63-2.84 1.07-1.19 2.65-1.87t3.64-.68q1.95 0 3.42.62 1.47.63 2.65 1.81m2.92-2.16h4.22v17.44h-4.22zm4.79-5.09q0 .55-.22 1.02-.22.48-.58.84-.37.35-.86.57-.5.21-1.06.21-.54 0-1.02-.21-.49-.22-.85-.57-.35-.36-.57-.84-.21-.47-.21-1.02 0-.56.21-1.05.22-.49.57-.85.36-.36.85-.57.48-.21 1.02-.21.56 0 1.06.21.49.21.86.57.36.36.58.85t.22 1.05m14.66 17.36v-7.82q-.72-.87-1.56-1.22-.84-.36-1.81-.36-.95 0-1.72.36-.76.35-1.3 1.08-.55.72-.84 1.83-.29 1.12-.29 2.63 0 1.53.25 2.59t.71 1.74q.45.67 1.12.97.66.29 1.48.29 1.31 0 2.22-.54.92-.55 1.74-1.55m0-20.09h4.2v25.26h-2.57q-.83 0-1.05-.77l-.36-1.68q-1.06 1.21-2.42 1.96-1.37.75-3.19.75-1.43 0-2.62-.6t-2.05-1.73-1.32-2.79q-.47-1.67-.47-3.81 0-1.94.53-3.6.52-1.67 1.51-2.89.98-1.23 2.36-1.92t3.1-.69q1.46 0 2.49.46 1.04.46 1.86 1.24zm11.66 14.53h7.92q0-.81-.23-1.54-.23-.72-.69-1.26-.46-.55-1.16-.86-.71-.32-1.64-.32-1.82 0-2.87 1.04-1.04 1.04-1.33 2.94m10.71 2.54h-10.8q.11 1.34.48 2.32.37.97.99 1.61.61.64 1.45.95.84.32 1.86.32t1.76-.24 1.29-.53q.56-.29.97-.52.42-.24.81-.24.53 0 .78.39l1.21 1.53q-.7.81-1.57 1.37-.86.55-1.81.88-.94.33-1.92.47-.97.14-1.89.14-1.82 0-3.39-.61-1.56-.6-2.72-1.78-1.15-1.19-1.81-2.93-.67-1.74-.67-4.04 0-1.78.58-3.35.58-1.58 1.66-2.74t2.63-1.84q1.56-.68 3.51-.68 1.65 0 3.05.52 1.39.53 2.39 1.54 1.01 1.01 1.58 2.48t.57 3.36q0 .95-.21 1.28-.2.34-.78.34"/></svg>