<svg xmlns="http://www.w3.org/2000/svg" width="400" height="300" viewBox="0 0 400 300"><rect width="100%" height="100%" fill="#cccccc"/><path fill="#333333" d="M87.885 156.09q1.33 0 2.37-.44 1.05-.44 1.76-1.24.72-.8 1.1-1.94t.38-2.55V135.2h4.57v14.72q0 2.19-.7 4.05-.71 1.87-2.03 3.22-1.31 1.35-3.2 2.11-1.89.75-4.25.75-2.38 0-4.27-.75-1.88-.76-3.2-2.11t-2.02-3.22q-.71-1.86-.71-4.05V135.2h4.57v14.7q0 1.41.39 2.55.38 1.14 1.1 1.95t1.77 1.25q1.04.44 2.37.44m18.89-8.65v7.82q.71.86 1.55 1.22t1.83.36q.95 0 1.72-.36.76-.36 1.3-1.09.53-.73.82-1.84t.29-2.63q0-1.53-.25-2.59-.24-1.06-.7-1.73-.46-.66-1.11-.96-.66-.31-1.49-.31-1.31 0-2.23.55t-1.73 1.56m-.56-4.34.34 1.62q1.07-1.21 2.43-1.96t3.19-.75q1.43 0 2.61.6 1.18.59 2.04 1.73.86 1.13 1.33 2.78.47 1.66.47 3.8 0 1.96-.53 3.62-.53 1.67-1.5 2.89-.98 1.23-2.37 1.92-1.38.69-3.1.69-1.46 0-2.5-.46-1.04-.45-1.85-1.25v7.15h-4.2v-23.14h2.57q.81 0 1.07.76m19.87 4.34v7.82q.71.86 1.56 1.22.84.36 1.82.36.95 0 1.72-.36.76-.36 1.3-1.09t.82-1.84q.29-1.11.29-2.63 0-1.53-.24-2.59-.25-1.06-.71-1.73-.46-.66-1.11-.96-.66-.31-1.49-.31-1.31 0-2.23.55-.91.55-1.73 1.56m-.56-4.34.34 1.62q1.07-1.21 2.43-1.96t3.2-.75q1.42 0 2.6.6 1.19.59 2.05 1.73.85 1.13 1.32 2.78.47 1.66.47 3.8 0 1.96-.53 3.62-.53 1.67-1.5 2.89-.98 1.23-2.37 1.92-1.38.69-3.1.69-1.46 0-2.5-.46-1.03-.45-1.85-1.25v7.15h-4.2v-23.14h2.57q.81 0 1.07.76m18.99 5.95h7.92q0-.81-.23-1.54-.23-.72-.69-1.26-.46-.55-1.16-.86-.71-.32-1.64-.32-1.82 0-2.87 1.04-1.04 1.04-1.33 2.94m10.71 2.54h-10.8q.1 1.34.48 2.32.37.97.98 1.61.62.64 1.46.95.84.32 1.86.32t1.76-.24 1.29-.53.97-.52q.42-.24.81-.24.52 0 .78.39l1.21 1.53q-.7.81-1.57 1.37-.86.55-1.81.88-.94.33-1.92.47t-1.89.14q-1.82 0-3.39-.61-1.56-.6-2.72-1.78-1.15-1.19-1.82-2.93-.66-1.74-.66-4.04 0-1.78.58-3.35.58-1.58 1.66-2.74t2.63-1.84q1.56-.68 3.51-.68 1.65 0 3.04.52 1.4.53 2.4 1.54t1.57 2.48.57 3.36q0 .95-.2 1.28-.2.34-.78.34m7.83-8.2.26 1.97q.82-1.56 1.94-2.45 1.12-.9 2.65-.9 1.21 0 1.94.53l-.27 3.15q-.09.3-.25.43t-.43.13q-.26 0-.76-.09-.5-.08-.98-.08-.7 0-1.24.2-.54.21-.98.59-.43.38-.76.92-.33.55-.62 1.25v10.74h-4.2v-17.44h2.46q.65 0 .9.23.26.23.34.82m22.48 12.62h9.82v3.77h-14.39V135.2h4.57zm12.56-13.67h4.22v17.44h-4.22zm4.8-5.09q0 .55-.23 1.02-.22.48-.58.84-.37.35-.86.57-.49.21-1.05.21-.55 0-1.03-.21-.49-.22-.84-.57-.36-.36-.57-.84-.22-.47-.22-1.02 0-.56.22-1.05.21-.49.57-.85.35-.36.84-.57.48-.21 1.03-.21.56 0 1.05.21t.86.57q.36.36.58.85.23.49.23 1.05m16.11 5.09h3.32l-6.92 17.44h-3.81l-6.92-17.44h3.47q.47 0 .79.22.31.22.42.56l3.36 9.32q.27.81.48 1.59.2.79.35 1.57.17-.78.38-1.57.2-.78.49-1.59l3.44-9.32q.11-.34.42-.56t.73-.22m8.86 6.71h7.92q0-.81-.23-1.54-.23-.72-.69-1.26-.46-.55-1.16-.86-.71-.32-1.64-.32-1.82 0-2.87 1.04-1.04 1.04-1.33 2.94m10.71 2.54h-10.8q.11 1.34.48 2.32.37.97.99 1.61.61.64 1.45.95.84.32 1.86.32t1.76-.24 1.29-.53.97-.52q.42-.24.81-.24.53 0 .78.39l1.21 1.53q-.7.81-1.57 1.37-.86.55-1.81.88-.94.33-1.92.47t-1.89.14q-1.82 0-3.39-.61-1.56-.6-2.72-1.78-1.15-1.19-1.82-2.93-.66-1.74-.66-4.04 0-1.78.58-3.35.58-1.58 1.66-2.74t2.63-1.84q1.56-.68 3.51-.68 1.65 0 3.05.52 1.39.53 2.39 1.54 1.01 1.01 1.58 2.48.56 1.47.56 3.36 0 .95-.2 1.28-.2.34-.78.34m15.72-7.37-.95 1.52q-.17.27-.36.38-.18.11-.47.11-.31 0-.66-.17-.34-.17-.8-.38t-1.05-.38-1.38-.17q-1.25 0-1.95.52-.71.53-.71 1.38 0 .56.37.94.36.39.97.67.6.29 1.37.52.76.23 1.55.5.79.28 1.56.63.76.34 1.37.88.6.53.97 1.28.36.75.36 1.8 0 1.26-.45 2.33-.45 1.06-1.33 1.83-.89.77-2.19 1.21-1.3.43-3 .43-.9 0-1.76-.16t-1.65-.45-1.46-.68-1.18-.85l.97-1.6q.18-.29.44-.44.25-.15.65-.15.39 0 .74.22.34.22.8.47.46.26 1.08.48t1.57.22q.75 0 1.29-.18.53-.18.88-.47.35-.28.51-.67.16-.38.16-.79 0-.61-.36-1-.37-.39-.97-.68t-1.38-.52q-.77-.23-1.58-.5t-1.58-.64q-.77-.36-1.38-.92-.6-.57-.97-1.38-.36-.82-.36-1.97 0-1.07.42-2.04.43-.97 1.25-1.69.83-.73 2.06-1.16t2.85-.43q1.8 0 3.28.59 1.48.6 2.46 1.56m9.17 15.83q-2.28 0-3.5-1.28-1.21-1.29-1.21-3.55v-9.74h-1.79q-.34 0-.58-.22-.23-.22-.23-.66v-1.67l2.8-.46.89-4.76q.08-.34.32-.52.24-.19.61-.19h2.18v5.49h4.65v2.99h-4.65v9.45q0 .82.4 1.28t1.09.46q.39 0 .66-.09.26-.1.46-.2.19-.1.34-.2.16-.09.31-.09.19 0 .31.09.12.1.25.28l1.26 2.04q-.92.77-2.11 1.16t-2.46.39m14.55-17.98q1.94 0 3.53.62 1.59.63 2.72 1.79t1.74 2.82q.61 1.67.61 3.72 0 2.08-.61 3.74-.61 1.67-1.74 2.84-1.13 1.18-2.72 1.81t-3.53.63q-1.96 0-3.55-.63-1.6-.63-2.73-1.81-1.13-1.17-1.75-2.84-.62-1.66-.62-3.74 0-2.05.62-3.72.62-1.66 1.75-2.82t2.73-1.79q1.59-.62 3.55-.62m0 14.73q2.17 0 3.22-1.46t1.05-4.28-1.05-4.3-3.22-1.48q-2.21 0-3.27 1.49-1.07 1.48-1.07 4.29 0 2.8 1.07 4.27 1.06 1.47 3.27 1.47m25.41-12.3-1.1 1.53q-.19.23-.37.37t-.52.14q-.32 0-.62-.2-.31-.19-.74-.44-.42-.25-1.01-.44-.58-.2-1.45-.2-1.11 0-1.94.4t-1.38 1.15q-.56.75-.83 1.81t-.27 2.4q0 1.4.3 2.49.29 1.08.86 1.82.56.74 1.36 1.13.79.38 1.8.38 1 0 1.62-.25.62-.24 1.05-.54.42-.3.74-.55.31-.24.7-.24.51 0 .77.39l1.2 1.53q-.69.81-1.51 1.37-.82.55-1.69.88-.88.33-1.8.47-.93.14-1.85.14-1.61 0-3.04-.61-1.43-.6-2.5-1.76-1.07-1.15-1.69-2.83-.62-1.67-.62-3.82 0-1.92.55-3.56t1.62-2.84q1.08-1.19 2.66-1.87t3.63-.68q1.96 0 3.43.62 1.47.63 2.64 1.81m2.79-9.98h4.2v14.47h.78q.43 0 .67-.12.25-.11.51-.45l4.33-5.35q.27-.36.6-.55.34-.18.86-.18h3.84l-5.42 6.47q-.58.77-1.26 1.18.36.25.64.59t.54.73l5.81 8.47h-3.79q-.49 0-.85-.16t-.6-.59l-4.45-6.61q-.24-.39-.49-.51-.26-.12-.77-.12h-.95v7.99h-4.2z"/></svg>