<svg xmlns="http://www.w3.org/2000/svg" width="400" height="300" viewBox="0 0 400 300"><rect width="100%" height="100%" fill="#cccccc"/><path fill="#333333" d="M86.76 155.385q1.17 0 2.09-.4.92-.39 1.55-1.09t.97-1.71.34-2.25v-12.99h4.03v12.99q0 1.94-.62 3.58t-1.79 2.83q-1.16 1.2-2.82 1.86-1.67.67-3.75.67-2.1 0-3.77-.67-1.66-.66-2.83-1.86-1.16-1.19-1.78-2.83t-.62-3.58v-12.99h4.03v12.98q0 1.24.34 2.25.34 1 .97 1.71.64.71 1.56 1.1.93.4 2.1.4m16.66-7.64v6.9q.63.76 1.37 1.08.75.32 1.62.32.84 0 1.51-.32.68-.32 1.15-.96t.73-1.63q.25-.98.25-2.31 0-1.35-.22-2.29-.21-.94-.62-1.53-.4-.58-.98-.85t-1.31-.27q-1.16 0-1.97.49-.81.48-1.53 1.37m-.49-3.82.3 1.42q.94-1.06 2.14-1.72t2.82-.66q1.26 0 2.3.52 1.05.52 1.8 1.52.76 1 1.17 2.46.42 1.46.42 3.36 0 1.72-.47 3.19-.46 1.47-1.33 2.55-.86 1.08-2.08 1.69-1.22.6-2.74.6-1.29 0-2.2-.39-.92-.4-1.64-1.1v6.29h-3.7v-20.41h2.26q.72 0 .95.68m17.53 3.82v6.9q.63.76 1.37 1.08.75.32 1.62.32.84 0 1.51-.32.68-.32 1.15-.96t.73-1.63q.25-.98.25-2.31 0-1.35-.22-2.29-.21-.94-.62-1.53-.4-.58-.98-.85t-1.31-.27q-1.16 0-1.97.49-.81.48-1.53 1.37m-.49-3.82.3 1.42q.94-1.06 2.14-1.72t2.82-.66q1.26 0 2.3.52 1.05.52 1.8 1.52.76 1 1.17 2.46.42 1.46.42 3.36 0 1.72-.47 3.19-.46 1.47-1.33 2.55-.86 1.08-2.08 1.69-1.22.6-2.74.6-1.29 0-2.2-.39-.92-.4-1.64-1.1v6.29h-3.7v-20.41h2.26q.72 0 .95.68m16.75 5.25h6.99q0-.73-.2-1.36-.2-.64-.61-1.12-.4-.48-1.03-.76-.62-.27-1.44-.27-1.61 0-2.53.91-.92.92-1.18 2.6m9.45 2.23h-9.52q.09 1.19.42 2.05t.87 1.42q.54.57 1.28.84.74.28 1.64.28t1.55-.21q.66-.21 1.14-.46.49-.26.86-.47t.71-.21q.47 0 .69.34l1.07 1.36q-.62.72-1.38 1.2-.77.49-1.6.78-.83.3-1.7.41-.86.12-1.67.12-1.6 0-2.98-.53t-2.4-1.57-1.61-2.58q-.58-1.54-.58-3.57 0-1.57.51-2.96t1.46-2.41q.95-1.03 2.32-1.63 1.38-.6 3.1-.6 1.46 0 2.69.47 1.23.46 2.11 1.35.89.9 1.39 2.19.5 1.3.5 2.97 0 .84-.18 1.13t-.69.29m6.92-7.23.22 1.74q.72-1.38 1.71-2.17.99-.78 2.34-.78 1.07 0 1.71.46l-.24 2.78q-.07.27-.22.38-.14.11-.38.11-.22 0-.67-.07-.44-.08-.86-.08-.61 0-1.09.18t-.87.52q-.38.34-.67.82t-.55 1.09v9.48h-3.7v-15.39h2.17q.57 0 .8.2.22.21.3.73m19.83 3.09h2.52q1.14 0 1.98-.28.85-.29 1.4-.79.55-.51.82-1.19.27-.69.27-1.52 0-1.65-1.09-2.53-1.09-.89-3.32-.89h-2.58zm7.47 3.36 5.43 8.01h-3.65q-1.03 0-1.5-.81l-4.56-6.94q-.25-.39-.56-.56-.31-.16-.91-.16h-1.72v8.47h-4.04v-21.69h6.62q2.2 0 3.78.46 1.59.46 2.6 1.28t1.49 1.97.48 2.53q0 1.1-.32 2.07-.32.98-.93 1.77-.61.8-1.5 1.4-.89.59-2.03.94.39.23.72.53.33.31.6.73m15.33 4.04v-2.6q-1.61.07-2.7.28-1.1.2-1.76.52-.66.31-.94.73-.29.42-.29.91 0 .98.58 1.4t1.51.42q1.14 0 1.97-.41t1.63-1.25m-7.83-8.09-.66-1.18q2.65-2.43 6.39-2.43 1.35 0 2.41.44 1.07.44 1.8 1.23.74.79 1.12 1.88t.38 2.4v9.72h-1.68q-.52 0-.81-.16-.28-.16-.45-.63l-.33-1.12q-.58.53-1.14.93-.55.4-1.15.66-.6.28-1.29.42-.68.14-1.5.14-.98 0-1.8-.26-.83-.26-1.43-.79-.6-.52-.93-1.3-.33-.79-.33-1.82 0-.58.2-1.16.19-.58.63-1.1.45-.53 1.15-.99.71-.47 1.73-.82 1.03-.34 2.4-.56 1.36-.22 3.12-.26v-.9q0-1.54-.66-2.29-.66-.74-1.91-.74-.9 0-1.49.21t-1.04.47q-.45.27-.82.48t-.82.21q-.39 0-.66-.21-.27-.2-.43-.47m24.58 7.5v-6.9q-.63-.76-1.37-1.08-.74-.31-1.6-.31-.84 0-1.51.31-.68.32-1.16.95-.48.64-.73 1.62-.26.99-.26 2.32 0 1.35.22 2.29t.62 1.53q.41.59.99.85.59.27 1.31.27 1.15 0 1.96-.48t1.53-1.37m0-17.73h3.71v22.29h-2.27q-.73 0-.93-.67l-.31-1.49q-.93 1.07-2.14 1.73-1.21.65-2.81.65-1.26 0-2.31-.52t-1.81-1.52-1.17-2.47-.41-3.36q0-1.71.46-3.18.47-1.47 1.34-2.55t2.08-1.69q1.22-.6 2.73-.6 1.29 0 2.21.4.91.4 1.63 1.1zm7.49 6.9h3.72v15.39h-3.72zm4.23-4.49q0 .49-.2.91-.19.42-.52.73-.32.31-.75.5-.44.19-.93.19-.48 0-.91-.19t-.74-.5q-.32-.31-.51-.73-.18-.42-.18-.91t.18-.92q.19-.44.51-.75.31-.32.74-.51.43-.18.91-.18.49 0 .93.18.43.19.75.51.33.31.52.75.2.43.2.92m10.08 4.25q1.71 0 3.11.56 1.4.55 2.4 1.57t1.54 2.49.54 3.29q0 1.83-.54 3.3-.54 1.46-1.54 2.5-1 1.03-2.4 1.59-1.4.55-3.11.55-1.73 0-3.14-.55-1.41-.56-2.41-1.59-.99-1.04-1.54-2.5-.55-1.47-.55-3.3 0-1.82.55-3.29t1.54-2.49q1-1.02 2.41-1.57 1.41-.56 3.14-.56m0 13q1.92 0 2.84-1.29t.92-3.77q0-2.5-.92-3.8t-2.84-1.3q-1.95 0-2.89 1.31t-.94 3.79q0 2.47.94 3.77.94 1.29 2.89 1.29m18.55-1.34v-2.6q-1.6.07-2.7.28-1.09.2-1.75.52-.66.31-.95.73-.28.42-.28.91 0 .98.57 1.4.58.42 1.51.42 1.14 0 1.97-.41.84-.41 1.63-1.25m-7.83-8.09-.66-1.18q2.66-2.43 6.39-2.43 1.35 0 2.42.44 1.06.44 1.8 1.23.73.79 1.11 1.88.39 1.09.39 2.4v9.72h-1.68q-.53 0-.81-.16-.29-.16-.45-.63l-.33-1.12q-.59.53-1.14.93-.56.4-1.16.66-.6.28-1.28.42t-1.51.14q-.97 0-1.8-.26-.82-.26-1.42-.79-.6-.52-.93-1.3-.33-.79-.33-1.82 0-.58.19-1.16.2-.58.64-1.1.44-.53 1.15-.99.7-.47 1.73-.82 1.03-.34 2.39-.56 1.37-.22 3.12-.26v-.9q0-1.54-.66-2.29-.66-.74-1.9-.74-.9 0-1.5.21-.59.21-1.04.47-.45.27-.82.48-.36.21-.81.21-.39 0-.66-.21-.27-.2-.44-.47m26.93-1.42-.98 1.35q-.16.21-.32.33t-.46.12q-.28 0-.55-.18-.27-.17-.65-.39-.37-.21-.89-.39-.52-.17-1.28-.17-.98 0-1.71.35-.74.35-1.23 1.01-.48.66-.72 1.6t-.24 2.13q0 1.22.26 2.18t.76 1.62q.49.65 1.2.99.7.34 1.59.34.88 0 1.43-.22t.92-.48q.38-.26.65-.48.28-.22.63-.22.45 0 .67.34l1.07 1.36q-.62.72-1.34 1.2-.72.49-1.49.78-.77.3-1.59.41-.82.12-1.63.12-1.42 0-2.68-.53t-2.21-1.55q-.94-1.02-1.49-2.5-.55-1.47-.55-3.36 0-1.7.49-3.15.49-1.44 1.43-2.5.95-1.06 2.34-1.66 1.4-.6 3.21-.6 1.73 0 3.02.56 1.3.55 2.34 1.59m7.59 13.72q-2.01 0-3.09-1.13-1.07-1.13-1.07-3.13v-8.6h-1.57q-.3 0-.51-.19t-.21-.58v-1.48l2.47-.4.78-4.2q.08-.3.29-.46.21-.17.54-.17h1.92v4.85h4.11v2.63h-4.11v8.35q0 .72.35 1.12t.97.4q.34 0 .57-.08.24-.08.41-.17t.31-.17q.13-.08.27-.08.16 0 .27.08.1.08.22.25l1.11 1.79q-.81.68-1.86 1.03-1.05.34-2.17.34m6.15-15.63h3.72v15.39h-3.72zm4.23-4.49q0 .49-.2.91-.19.42-.52.73-.32.31-.75.5-.44.19-.93.19-.48 0-.91-.19t-.74-.5q-.32-.31-.51-.73-.18-.42-.18-.91t.18-.92q.19-.44.51-.75.31-.32.74-.51.43-.18.91-.18.49 0 .93.18.43.19.75.51.33.31.52.75.2.43.2.92m14.22 4.49h2.92l-6.1 15.39h-3.36l-6.11-15.39h3.06q.42 0 .7.19.28.2.37.5l2.97 8.22q.24.72.42 1.41t.31 1.38q.15-.69.33-1.38t.44-1.41l3.03-8.22q.1-.3.37-.5.27-.19.65-.19m7.81 5.93h6.99q0-.73-.2-1.36-.2-.64-.61-1.12-.4-.48-1.03-.76-.62-.27-1.44-.27-1.61 0-2.53.91-.92.92-1.18 2.6m9.45 2.23h-9.52q.09 1.19.42 2.05t.87 1.42q.54.57 1.28.84.74.28 1.64.28t1.55-.21q.66-.21 1.14-.46.49-.26.86-.47t.71-.21q.47 0 .69.34l1.07 1.36q-.62.72-1.38 1.2-.77.49-1.6.78-.83.3-1.7.41-.86.12-1.67.12-1.6 0-2.98-.53t-2.4-1.57-1.61-2.58q-.58-1.54-.58-3.57 0-1.57.51-2.96t1.46-2.41q.95-1.03 2.32-1.63 1.38-.6 3.1-.6 1.46 0 2.69.47 1.23.46 2.11 1.35.89.9 1.39 2.19.5 1.3.5 2.97 0 .84-.18 1.13t-.69.29"/></svg>