<svg xmlns="http://www.w3.org/2000/svg" width="400" height="300" viewBox="0 0 400 300"><rect width="100%" height="100%" fill="#cccccc"/><path fill="#333333" d="M90.18 156.34q1.48 0 2.65-.5 1.17-.49 1.97-1.38.8-.9 1.22-2.17.43-1.27.43-2.85v-16.45h5.11v16.45q0 2.45-.79 4.53t-2.26 3.59-3.58 2.36q-2.11.84-4.75.84-2.66 0-4.77-.84-2.11-.85-3.58-2.36t-2.26-3.59-.79-4.53v-16.45h5.11v16.43q0 1.58.43 2.85t1.23 2.18q.81.9 1.98 1.39 1.17.5 2.65.5m21.11-9.67v8.74q.8.97 1.74 1.36.94.4 2.04.4 1.06 0 1.92-.4.85-.39 1.45-1.21t.92-2.06q.33-1.25.33-2.94 0-1.71-.28-2.9-.27-1.18-.79-1.92-.51-.75-1.24-1.09t-1.66-.34q-1.47 0-2.49.62-1.03.62-1.94 1.74m-.63-4.85.38 1.81q1.2-1.35 2.72-2.19t3.57-.84q1.6 0 2.92.67t2.28 1.93 1.48 3.11q.52 1.86.52 4.25 0 2.19-.59 4.05t-1.68 3.23-2.64 2.14q-1.55.76-3.47.76-1.63 0-2.79-.5t-2.07-1.39v7.98h-4.69v-25.86h2.87q.91 0 1.19.85m22.21 4.85v8.74q.8.97 1.74 1.36.94.4 2.04.4 1.07 0 1.92-.4.86-.39 1.46-1.21t.92-2.06q.32-1.25.32-2.94 0-1.71-.27-2.9-.28-1.18-.79-1.92-.52-.75-1.25-1.09t-1.66-.34q-1.46 0-2.49.62-1.02.62-1.94 1.74m-.62-4.85.38 1.81q1.19-1.35 2.71-2.19t3.58-.84q1.59 0 2.91.67t2.28 1.93 1.48 3.11q.53 1.86.53 4.25 0 2.19-.59 4.05t-1.68 3.23q-1.1 1.37-2.65 2.14-1.54.76-3.46.76-1.64 0-2.8-.5-1.15-.5-2.07-1.39v7.98h-4.69v-25.86h2.87q.91 0 1.2.85m21.22 6.65h8.85q0-.91-.25-1.72-.26-.81-.77-1.41-.52-.61-1.3-.96-.79-.35-1.84-.35-2.03 0-3.2 1.15-1.17 1.16-1.49 3.29m11.97 2.83h-12.07q.12 1.5.54 2.6.41 1.09 1.1 1.8.68.71 1.62 1.06.94.36 2.08.36t1.97-.27 1.44-.59q.62-.32 1.09-.59.46-.26.9-.26.59 0 .87.43l1.35 1.71q-.78.92-1.75 1.53-.96.62-2.02.99-1.05.37-2.15.52-1.09.15-2.11.15-2.04 0-3.79-.67-1.74-.67-3.04-1.99-1.29-1.33-2.03-3.27-.74-1.95-.74-4.51 0-2 .65-3.76.64-1.75 1.85-3.06 1.21-1.3 2.94-2.06 1.74-.76 3.93-.76 1.84 0 3.4.59t2.68 1.72 1.75 2.77q.64 1.65.64 3.76 0 1.06-.23 1.43-.22.37-.87.37m8.76-9.16.28 2.21q.92-1.75 2.17-2.75t2.96-1q1.35 0 2.17.59l-.3 3.52q-.1.34-.28.48-.18.15-.48.15-.29 0-.85-.1-.56-.09-1.09-.09-.78 0-1.39.22-.61.23-1.09.66-.49.43-.86 1.04-.37.6-.69 1.38v12.01h-4.69v-19.49h2.75q.72 0 1.01.25.28.26.38.92m35.91-6.57-1.27 2.41q-.23.4-.49.58t-.64.18q-.39 0-.86-.29-.47-.3-1.11-.66-.65-.36-1.51-.65-.87-.3-2.04-.3-1.07 0-1.87.26-.79.26-1.34.71-.54.46-.8 1.09-.27.64-.27 1.4 0 .97.54 1.62.54.64 1.44 1.1.89.45 2.03.81 1.14.37 2.34.77 1.19.41 2.33.95 1.14.55 2.04 1.37.89.83 1.43 2.03.54 1.19.54 2.9 0 1.86-.63 3.49-.64 1.62-1.87 2.83-1.22 1.21-2.99 1.9t-4.05.69q-1.31 0-2.58-.25-1.27-.26-2.44-.73-1.17-.48-2.2-1.14-1.02-.67-1.82-1.49l1.5-2.45q.19-.26.5-.44.3-.18.64-.18.48 0 1.03.39t1.31.86 1.77.86q1.02.39 2.45.39 2.18 0 3.38-1.03 1.2-1.04 1.2-2.97 0-1.09-.55-1.77-.54-.69-1.43-1.15-.89-.47-2.03-.79t-2.32-.7-2.32-.92q-1.14-.53-2.03-1.38-.9-.86-1.44-2.14t-.54-3.16q0-1.5.6-2.93.6-1.42 1.74-2.53 1.14-1.1 2.81-1.76 1.67-.67 3.84-.67 2.43 0 4.48.76t3.5 2.13m7.9 12.9h8.86q0-.91-.26-1.72t-.77-1.41q-.51-.61-1.3-.96t-1.83-.35q-2.04 0-3.21 1.15-1.16 1.16-1.49 3.29m11.97 2.83h-12.06q.11 1.5.53 2.6.42 1.09 1.1 1.8.69.71 1.63 1.06.94.36 2.08.36t1.96-.27q.83-.27 1.45-.59.61-.32 1.08-.59.47-.26.9-.26.59 0 .88.43l1.35 1.71q-.78.92-1.75 1.53-.97.62-2.03.99-1.05.37-2.14.52-1.1.15-2.12.15-2.03 0-3.78-.67t-3.04-1.99q-1.29-1.33-2.04-3.27-.74-1.95-.74-4.51 0-2 .65-3.76.65-1.75 1.85-3.06 1.21-1.3 2.95-2.06t3.92-.76q1.84 0 3.4.59t2.68 1.72 1.76 2.77q.63 1.65.63 3.76 0 1.06-.22 1.43-.23.37-.88.37m28.88-10.33h3.57l-6.19 19.49h-3.76q-.65 0-.89-.84l-3.5-11.26q-.17-.57-.31-1.13-.15-.56-.24-1.13-.12.57-.26 1.15t-.31 1.15l-3.55 11.22q-.23.84-1.01.84h-3.61l-6.18-19.49h3.75q.51 0 .87.24.36.25.48.63l2.79 10.41q.21.86.37 1.67.16.82.27 1.64.21-.82.45-1.64.24-.81.5-1.67l3.23-10.45q.12-.38.45-.63.33-.24.81-.24h2.07q.49 0 .84.24.36.25.47.63l3.14 10.45q.24.86.46 1.68.22.83.43 1.65.25-1.62.7-3.33l2.87-10.41q.13-.38.48-.63.34-.24.81-.24m16.53 14.45v-3.28q-2.03.09-3.42.35-1.38.26-2.22.66-.84.39-1.2.93-.36.53-.36 1.16 0 1.23.73 1.76t1.91.53q1.45 0 2.5-.52 1.06-.52 2.06-1.59m-9.92-10.24-.83-1.5q3.36-3.08 8.09-3.08 1.71 0 3.06.57 1.35.56 2.28 1.55.93 1 1.42 2.39.48 1.39.48 3.04v12.31h-2.13q-.66 0-1.02-.2t-.57-.81l-.42-1.4q-.74.66-1.44 1.17-.71.5-1.47.84t-1.62.52q-.87.18-1.91.18-1.24 0-2.28-.33-1.05-.33-1.81-1-.76-.66-1.17-1.65-.42-.99-.42-2.3 0-.74.24-1.47.25-.73.81-1.4.56-.66 1.46-1.25.89-.59 2.19-1.03 1.3-.43 3.03-.71t3.95-.33v-1.14q0-1.96-.83-2.9-.84-.94-2.42-.94-1.14 0-1.89.27-.75.26-1.32.59-.57.34-1.03.6-.47.27-1.04.27-.49 0-.83-.26-.35-.25-.56-.6m26.03 5.06q.88 0 1.52-.24.65-.24 1.08-.66.43-.41.64-1 .22-.59.22-1.29 0-1.45-.86-2.29-.87-.85-2.6-.85-1.72 0-2.59.85-.86.84-.86 2.29 0 .68.21 1.27.22.59.65 1.02.43.42 1.08.66.66.24 1.51.24m5.31 11.09q0-.57-.35-.93-.34-.36-.93-.56t-1.38-.29q-.78-.1-1.67-.14-.88-.05-1.82-.09t-1.83-.15q-.78.44-1.27 1.02-.48.59-.48 1.37 0 .51.25.96.26.45.82.77t1.45.5q.9.19 2.19.19 1.31 0 2.26-.2t1.57-.56q.62-.35.9-.83.29-.49.29-1.06m-.94-19.7h5.61v1.75q0 .83-1.01 1.03l-1.75.32q.4 1.01.4 2.2 0 1.45-.58 2.61-.58 1.17-1.6 1.99-1.03.82-2.42 1.26-1.4.45-3.02.45-.57 0-1.1-.06-.53-.05-1.04-.15-.91.55-.91 1.24 0 .59.54.86.54.28 1.43.39t2.03.14 2.34.13q1.2.09 2.34.33t2.03.75 1.44 1.4q.54.88.54 2.27 0 1.29-.64 2.5-.64 1.22-1.84 2.17-1.21.95-2.97 1.53-1.75.58-4 .58-2.2 0-3.83-.43-1.64-.43-2.72-1.14t-1.62-1.64q-.53-.93-.53-1.94 0-1.37.83-2.29t2.27-1.47q-.78-.4-1.24-1.07-.45-.66-.45-1.74 0-.44.16-.91.16-.46.47-.92.32-.45.79-.86.48-.41 1.12-.73-1.48-.8-2.32-2.13-.85-1.33-.85-3.12 0-1.44.58-2.61t1.62-2q1.03-.82 2.45-1.26 1.41-.44 3.08-.44 1.26 0 2.36.26t2.01.75m12.28 6.84H317q0-.91-.25-1.72-.26-.81-.77-1.41-.52-.61-1.31-.96-.78-.35-1.83-.35-2.03 0-3.2 1.15-1.17 1.16-1.49 3.29m11.97 2.83h-12.07q.12 1.5.54 2.6.41 1.09 1.1 1.8.68.71 1.62 1.06.94.36 2.08.36t1.97-.27 1.44-.59q.62-.32 1.09-.59.46-.26.9-.26.59 0 .87.43l1.35 1.71q-.78.92-1.75 1.53-.97.62-2.02.99t-2.15.52q-1.09.15-2.12.15-2.03 0-3.78-.67-1.74-.67-3.04-1.99-1.29-1.33-2.03-3.27-.74-1.95-.74-4.51 0-2 .65-3.76.64-1.75 1.85-3.06 1.2-1.3 2.94-2.06t3.93-.76q1.84 0 3.4.59t2.68 1.72 1.75 2.77q.64 1.65.64 3.76 0 1.06-.23 1.43t-.87.37"/></svg>