<svg xmlns="http://www.w3.org/2000/svg" width="400" height="300" viewBox="0 0 400 300"><rect width="100%" height="100%" fill="#cccccc"/><path fill="#333333" d="M89.105 155.02q1.13 0 2.02-.37.89-.38 1.5-1.06t.94-1.66q.32-.97.32-2.17V137.2h3.91v12.56q0 1.87-.61 3.46-.6 1.59-1.72 2.74-1.13 1.15-2.74 1.8-1.6.64-3.62.64-2.03 0-3.64-.64-1.61-.65-2.73-1.8-1.13-1.15-1.73-2.74t-.6-3.46V137.2h3.9v12.55q0 1.2.33 2.17.32.97.94 1.66t1.51 1.07q.89.37 2.02.37m16.11-7.38v6.67q.61.74 1.33 1.05.71.3 1.55.3.82 0 1.47-.3.65-.31 1.11-.93t.7-1.57q.25-.95.25-2.24 0-1.31-.21-2.22-.21-.9-.6-1.47-.4-.56-.95-.82-.56-.27-1.27-.27-1.12 0-1.9.48-.78.47-1.48 1.32m-.48-3.69.29 1.37q.91-1.03 2.07-1.66 1.16-.64 2.73-.64 1.22 0 2.23.5 1 .51 1.74 1.48.73.96 1.13 2.37.4 1.42.4 3.25 0 1.66-.45 3.08t-1.29 2.47q-.83 1.04-2.01 1.63t-2.65.59q-1.25 0-2.13-.39-.88-.38-1.58-1.06v6.09h-3.58v-19.74h2.19q.69 0 .91.66m16.95 3.69v6.67q.61.74 1.33 1.05.72.3 1.56.3.81 0 1.46-.3.65-.31 1.11-.93t.7-1.57q.25-.95.25-2.24 0-1.31-.21-2.22-.21-.9-.6-1.47-.39-.56-.95-.82-.56-.27-1.27-.27-1.12 0-1.9.48-.78.47-1.48 1.32m-.48-3.69.29 1.37q.92-1.03 2.08-1.66 1.16-.64 2.72-.64 1.22 0 2.23.5 1.01.51 1.74 1.48.73.96 1.13 2.37.4 1.42.4 3.25 0 1.66-.45 3.08t-1.28 2.47q-.84 1.04-2.02 1.63t-2.65.59q-1.24 0-2.13-.39-.88-.38-1.58-1.06v6.09h-3.58v-19.74h2.19q.7 0 .91.66m16.2 5.07h6.76q0-.7-.2-1.31-.19-.62-.59-1.08-.39-.47-.99-.73-.6-.27-1.4-.27-1.55 0-2.44.88-.89.89-1.14 2.51m9.13 2.16h-9.2q.08 1.15.4 1.98t.84 1.38q.53.54 1.24.81.72.27 1.59.27t1.5-.21q.63-.2 1.1-.44.48-.25.83-.45.36-.21.69-.21.45 0 .67.34l1.03 1.3q-.6.7-1.34 1.17t-1.54.75q-.81.29-1.64.4-.83.12-1.62.12-1.55 0-2.88-.52-1.34-.51-2.32-1.52-.99-1.01-1.55-2.49-.57-1.49-.57-3.45 0-1.52.49-2.86.5-1.34 1.42-2.34.92-.99 2.24-1.57 1.33-.58 3-.58 1.41 0 2.59.45 1.19.45 2.05 1.31.85.87 1.34 2.12t.49 2.86q0 .82-.18 1.1-.17.28-.67.28m6.69-6.99.22 1.68q.69-1.33 1.65-2.09t2.26-.76q1.03 0 1.65.45l-.23 2.68q-.07.26-.21.37t-.37.11q-.21 0-.64-.07-.43-.08-.84-.08-.59 0-1.05.18-.47.17-.84.5-.37.32-.65.79-.28.46-.53 1.06v9.16h-3.58v-14.88h2.1q.55 0 .77.2.22.19.29.7m27.4-5.02-.97 1.85q-.17.3-.37.44-.19.14-.48.14-.31 0-.66-.23-.36-.22-.85-.5-.49-.27-1.15-.5-.66-.22-1.56-.22-.81 0-1.42.19-.61.2-1.03.55-.41.34-.61.83t-.2 1.07q0 .73.41 1.23.41.49 1.09.84t1.55.62q.87.28 1.79.59.91.31 1.78.72.87.42 1.55 1.05t1.1 1.54q.41.92.41 2.22 0 1.42-.48 2.66-.49 1.24-1.43 2.16-.93.92-2.28 1.45t-3.09.53q-1 0-1.97-.19-.97-.2-1.86-.56t-1.68-.87q-.78-.51-1.39-1.13l1.15-1.87q.14-.21.37-.34.23-.14.5-.14.36 0 .78.3.42.29 1 .65.58.37 1.35.66.78.3 1.87.3 1.67 0 2.58-.79t.91-2.27q0-.82-.41-1.35-.41-.52-1.1-.87-.68-.36-1.55-.61-.87-.24-1.77-.53-.89-.29-1.76-.7-.87-.4-1.56-1.06-.68-.65-1.09-1.63t-.41-2.41q0-1.15.45-2.23.46-1.09 1.33-1.93t2.15-1.35q1.27-.51 2.92-.51 1.86 0 3.43.58 1.56.58 2.66 1.62m8.17 19.23q-1.95 0-2.98-1.09-1.04-1.1-1.04-3.03v-8.3h-1.52q-.29 0-.49-.19-.21-.19-.21-.57v-1.42l2.4-.39.75-4.06q.07-.29.27-.45.21-.16.53-.16h1.85v4.68h3.98v2.56h-3.98v8.06q0 .69.34 1.08.34.4.94.4.33 0 .56-.08.22-.08.39-.17t.3-.17.26-.08q.16 0 .26.08t.22.24l1.07 1.74q-.78.66-1.8.99-1.01.33-2.1.33m12.41-15.34q1.65 0 3.01.54 1.35.53 2.32 1.52.96.99 1.48 2.41.53 1.42.53 3.17 0 1.77-.53 3.19-.52 1.42-1.48 2.42-.97 1-2.32 1.54-1.36.54-3.01.54-1.67 0-3.03-.54t-2.33-1.54q-.96-1-1.49-2.42t-.53-3.19q0-1.75.53-3.17t1.49-2.41q.97-.99 2.33-1.52 1.36-.54 3.03-.54m0 12.57q1.86 0 2.75-1.24.89-1.25.89-3.66t-.89-3.67-2.75-1.26q-1.89 0-2.79 1.27-.91 1.27-.91 3.66t.91 3.65q.9 1.25 2.79 1.25m13.24-11.44.22 1.68q.69-1.33 1.65-2.09t2.26-.76q1.03 0 1.65.45l-.23 2.68q-.07.26-.21.37t-.37.11q-.22 0-.64-.07-.43-.08-.84-.08-.59 0-1.06.18-.46.17-.83.5-.37.32-.65.79-.28.46-.53 1.06v9.16h-3.58v-14.88h2.1q.55 0 .77.2.22.19.29.7m11.24 13.98h-3.59v-14.88h2.19q.7 0 .92.66l.23 1.1q.39-.44.82-.8t.91-.62q.49-.26 1.05-.42.55-.15 1.22-.15 1.41 0 2.31.76.91.76 1.36 2.02.35-.73.87-1.26t1.15-.87q.62-.33 1.32-.49.71-.16 1.42-.16 1.23 0 2.19.38.95.37 1.6 1.1.66.72 1 1.77.34 1.04.34 2.39v9.47h-3.58v-9.47q0-1.42-.63-2.14-.62-.72-1.82-.72-.55 0-1.03.19-.47.19-.82.55-.36.35-.56.89t-.2 1.23v9.47h-3.6v-9.47q0-1.49-.6-2.17-.6-.69-1.76-.69-.79 0-1.46.39-.67.38-1.25 1.05zm39.22-14.88h2.72l-4.72 14.88h-2.87q-.5 0-.69-.64l-2.66-8.6q-.13-.43-.24-.86t-.18-.86q-.09.43-.2.88-.11.44-.24.87l-2.71 8.57q-.17.64-.77.64h-2.75l-4.72-14.88h2.86q.39 0 .67.19.27.19.36.48l2.13 7.95q.16.65.28 1.27.13.63.21 1.25.16-.62.34-1.25l.39-1.27 2.46-7.98q.09-.29.34-.48.26-.19.62-.19h1.58q.38 0 .65.19t.35.48l2.39 7.98q.19.65.36 1.28t.33 1.25q.18-1.23.53-2.53l2.19-7.95q.1-.29.36-.48.27-.19.63-.19m12.61 11.04v-2.51q-1.55.07-2.61.27-1.06.19-1.69.5-.64.3-.92.71-.27.4-.27.88 0 .94.56 1.35.55.41 1.45.41 1.11 0 1.91-.4t1.57-1.21m-7.57-7.82-.63-1.14q2.56-2.35 6.17-2.35 1.31 0 2.34.43 1.03.42 1.74 1.18.71.77 1.08 1.82.37 1.06.37 2.32v9.4h-1.63q-.5 0-.78-.15-.27-.15-.43-.62l-.32-1.07q-.57.51-1.11.89-.53.38-1.11.65-.58.26-1.24.39-.66.14-1.46.14-.94 0-1.74-.25-.8-.26-1.38-.76-.58-.51-.9-1.26-.31-.76-.31-1.76 0-.56.18-1.12.19-.56.62-1.07t1.11-.96 1.67-.78q1-.33 2.32-.54t3.01-.26v-.87q0-1.49-.63-2.21-.64-.72-1.85-.72-.87 0-1.44.21-.57.2-1.01.45-.43.26-.79.46-.35.2-.79.2-.37 0-.64-.19-.26-.2-.42-.46m19.39 11.89q-1.94 0-2.98-1.09-1.04-1.1-1.04-3.03v-8.3h-1.52q-.29 0-.49-.19t-.2-.57v-1.42l2.39-.39.75-4.06q.07-.29.28-.45.2-.16.52-.16h1.86v4.68h3.97v2.56h-3.97v8.06q0 .69.34 1.08.34.4.93.4.34 0 .56-.08t.39-.17.3-.17.26-.08q.16 0 .26.08t.22.24l1.07 1.74q-.78.66-1.8.99-1.01.33-2.1.33m8.66-9.38h6.75q0-.7-.19-1.31-.2-.62-.59-1.08-.39-.47-.99-.73-.6-.27-1.4-.27-1.55 0-2.44.88-.9.89-1.14 2.51m9.13 2.16h-9.21q.09 1.15.41 1.98t.84 1.38q.52.54 1.24.81t1.59.27 1.5-.21q.63-.2 1.1-.44.47-.25.83-.45.35-.21.69-.21.45 0 .66.34l1.03 1.3q-.59.7-1.33 1.17t-1.54.75q-.81.29-1.64.4-.84.12-1.62.12-1.55 0-2.89-.52-1.33-.51-2.32-1.52-.98-1.01-1.55-2.49-.56-1.49-.56-3.45 0-1.52.49-2.86t1.41-2.34q.93-.99 2.25-1.57 1.33-.58 3-.58 1.4 0 2.59.45t2.05 1.31q.85.87 1.34 2.12.48 1.25.48 2.86 0 .82-.17 1.1t-.67.28m6.69-6.99.21 1.68q.7-1.33 1.66-2.09.95-.76 2.26-.76 1.03 0 1.65.45l-.23 2.68q-.07.26-.21.37t-.37.11q-.22 0-.65-.07-.42-.08-.83-.08-.59 0-1.06.18-.46.17-.83.5-.37.32-.65.79-.29.46-.53 1.06v9.16h-3.58v-14.88h2.1q.55 0 .77.2.21.19.29.7"/></svg>