<svg xmlns="http://www.w3.org/2000/svg" width="400" height="300" viewBox="0 0 400 300"><rect width="100%" height="100%" fill="#cccccc"/><path fill="#333333" d="M91.02 156.88q1.56 0 2.79-.52t2.07-1.46 1.29-2.28.45-3V132.3H103v17.32q0 2.58-.83 4.77t-2.38 3.78-3.77 2.48-5 .89q-2.8 0-5.02-.89t-3.77-2.48-2.38-3.78-.83-4.77V132.3h5.38v17.3q0 1.66.45 3t1.3 2.29 2.08 1.47 2.79.52m22.22-10.18v9.2q.84 1.02 1.83 1.44t2.15.42q1.12 0 2.02-.42t1.53-1.28.97-2.17.34-3.09q0-1.8-.29-3.05t-.83-2.03-1.31-1.14-1.75-.36q-1.54 0-2.62.65t-2.04 1.83m-.66-5.1.4 1.9q1.26-1.42 2.86-2.3t3.76-.88q1.68 0 3.07.7t2.4 2.03 1.56 3.28.55 4.47q0 2.3-.62 4.26t-1.77 3.4-2.78 2.25-3.65.81q-1.72 0-2.94-.53t-2.18-1.47v8.4h-4.94V140.7h3.02q.96 0 1.26.9m23.38 5.1v9.2q.84 1.02 1.83 1.44t2.15.42q1.12 0 2.02-.42t1.53-1.28.97-2.17.34-3.09q0-1.8-.29-3.05t-.83-2.03-1.31-1.14-1.75-.36q-1.54 0-2.62.65t-2.04 1.83m-.66-5.1.4 1.9q1.26-1.42 2.86-2.3t3.76-.88q1.68 0 3.07.7t2.4 2.03 1.56 3.28.55 4.47q0 2.3-.62 4.26t-1.77 3.4-2.78 2.25-3.65.81q-1.72 0-2.94-.53t-2.18-1.47v8.4h-4.94V140.7h3.02q.96 0 1.26.9m22.34 7h9.32q0-.96-.27-1.81t-.81-1.49-1.37-1.01-1.93-.37q-2.14 0-3.37 1.22t-1.57 3.46m12.6 2.98h-12.7q.12 1.58.56 2.73t1.16 1.9 1.71 1.12 2.19.37 2.07-.28 1.52-.62 1.14-.62.95-.28q.62 0 .92.46l1.42 1.8q-.82.96-1.84 1.61t-2.13 1.04-2.26.55-2.23.16q-2.14 0-3.98-.71t-3.2-2.1-2.14-3.44-.78-4.75q0-2.1.68-3.95t1.95-3.22 3.1-2.17 4.13-.8q1.94 0 3.58.62t2.82 1.81 1.85 2.92.67 3.95q0 1.12-.24 1.51t-.92.39m9.22-9.64.3 2.32q.96-1.84 2.28-2.89t3.12-1.05q1.42 0 2.28.62l-.32 3.7q-.1.36-.29.51t-.51.15q-.3 0-.89-.1t-1.15-.1q-.82 0-1.46.24t-1.15.69-.9 1.09-.73 1.46v12.64h-4.94V140.7h2.9q.76 0 1.06.27t.4.97m48.36-9.64h4.06v28.92h-4.74v-18.68q0-1.12.12-2.42l-8.74 16.42q-.62 1.18-1.9 1.18h-.76q-1.28 0-1.9-1.18l-8.84-16.48q.06.66.1 1.3t.04 1.18v18.68h-4.74V132.3h4.06q.36 0 .62.02t.47.1.38.26.33.48l8.66 16.06q.34.64.63 1.32t.57 1.4q.28-.74.58-1.43t.64-1.33l8.54-16.02q.16-.3.34-.48t.39-.26.47-.1.62-.02m9.88 8.4h4.96v20.52h-4.96zm5.64-5.98q0 .64-.26 1.2t-.69.98-1.01.67-1.24.25q-.64 0-1.21-.25t-.99-.67-.67-.98-.25-1.2q0-.66.25-1.24t.67-1 .99-.67 1.21-.25q.66 0 1.24.25t1.01.67.69 1 .26 1.24m8.64 6.88.34 1.62q.62-.62 1.31-1.15t1.46-.9 1.65-.58 1.92-.21q1.68 0 2.98.57t2.17 1.6 1.32 2.46.45 3.15v13.06h-4.94v-13.06q0-1.88-.86-2.91t-2.62-1.03q-1.28 0-2.4.58t-2.12 1.58v14.84h-4.94V140.7h3.02q.96 0 1.26.9m18.44-.9h4.96v20.52h-4.96zm5.64-5.98q0 .64-.26 1.2t-.69.98-1.01.67-1.24.25q-.64 0-1.21-.25t-.99-.67-.67-.98-.25-1.2q0-.66.25-1.24t.67-1 .99-.67 1.21-.25q.66 0 1.24.25t1.01.67.69 1 .26 1.24m8.64 6.88.34 1.62q.62-.62 1.31-1.15t1.46-.9 1.65-.58 1.92-.21q1.68 0 2.98.57t2.17 1.6 1.32 2.46.45 3.15v13.06h-4.94v-13.06q0-1.88-.86-2.91t-2.62-1.03q-1.28 0-2.4.58t-2.12 1.58v14.84h-4.94V140.7h3.02q.96 0 1.26.9m25.78 8.86q.92 0 1.6-.25t1.13-.69.68-1.06.23-1.36q0-1.52-.91-2.41t-2.73-.89-2.73.89-.91 2.41q0 .72.23 1.34t.68 1.07 1.14.7 1.59.25m5.58 11.68q0-.6-.36-.98t-.98-.59-1.45-.31-1.76-.15-1.92-.09-1.93-.16q-.82.46-1.33 1.08t-.51 1.44q0 .54.27 1.01t.86.81 1.53.53 2.3.19q1.38 0 2.38-.21t1.65-.58.95-.88.3-1.11m-.98-20.74h5.9v1.84q0 .88-1.06 1.08l-1.84.34q.42 1.06.42 2.32 0 1.52-.61 2.75t-1.69 2.09-2.55 1.33-3.17.47q-.6 0-1.16-.06t-1.1-.16q-.96.58-.96 1.3 0 .62.57.91t1.51.41 2.14.15 2.46.13 2.46.35 2.14.79 1.51 1.47.57 2.39q0 1.36-.67 2.64t-1.94 2.28-3.12 1.61-4.21.61q-2.32 0-4.04-.45t-2.86-1.2-1.7-1.73-.56-2.04q0-1.44.87-2.41t2.39-1.55q-.82-.42-1.3-1.12t-.48-1.84q0-.46.17-.95t.5-.97.83-.91 1.18-.77q-1.56-.84-2.45-2.24t-.89-3.28q0-1.52.61-2.75t1.7-2.1 2.58-1.33 3.25-.46q1.32 0 2.48.27t2.12.79"/></svg>