<svg xmlns="http://www.w3.org/2000/svg" width="400" height="300" viewBox="0 0 400 300"><rect width="100%" height="100%" fill="#cccccc"/><path fill="#333333" d="M91.985 156.785q1.48 0 2.65-.5 1.16-.49 1.96-1.38.8-.9 1.23-2.17t.43-2.85v-16.45h5.11v16.45q0 2.45-.79 4.53t-2.26 3.59q-1.48 1.51-3.58 2.36-2.11.84-4.75.84-2.66 0-4.77-.84-2.11-.85-3.58-2.36-1.48-1.51-2.27-3.59-.78-2.08-.78-4.53v-16.45h5.11v16.43q0 1.58.42 2.85.43 1.27 1.24 2.18.81.9 1.98 1.39 1.16.5 2.65.5m21.1-9.67v8.74q.8.97 1.74 1.36.94.4 2.05.4 1.06 0 1.91-.4.86-.39 1.46-1.21t.92-2.06q.32-1.25.32-2.94 0-1.71-.27-2.9-.28-1.18-.79-1.92-.51-.75-1.25-1.09-.73-.34-1.66-.34-1.46 0-2.49.62-1.02.62-1.94 1.74m-.62-4.85.38 1.81q1.19-1.35 2.71-2.19t3.58-.84q1.59 0 2.91.67t2.28 1.93 1.49 3.11q.52 1.86.52 4.25 0 2.19-.59 4.05t-1.68 3.23q-1.1 1.37-2.64 2.14-1.55.76-3.47.76-1.64 0-2.79-.5-1.16-.5-2.08-1.39v7.98h-4.69v-25.86h2.87q.91 0 1.2.85m22.21 4.85v8.74q.8.97 1.74 1.36.94.4 2.04.4 1.06 0 1.92-.4.85-.39 1.45-1.21t.92-2.06q.33-1.25.33-2.94 0-1.71-.28-2.9-.27-1.18-.79-1.92-.51-.75-1.24-1.09t-1.66-.34q-1.47 0-2.49.62-1.03.62-1.94 1.74m-.63-4.85.38 1.81q1.2-1.35 2.72-2.19t3.57-.84q1.6 0 2.92.67t2.28 1.93 1.48 3.11q.52 1.86.52 4.25 0 2.19-.59 4.05t-1.68 3.23-2.64 2.14q-1.55.76-3.47.76-1.63 0-2.79-.5t-2.07-1.39v7.98h-4.69v-25.86h2.86q.92 0 1.2.85m21.22 6.65h8.86q0-.91-.26-1.72-.25-.81-.77-1.41-.51-.61-1.3-.96t-1.83-.35q-2.04 0-3.2 1.15-1.17 1.16-1.5 3.29m11.97 2.83h-12.06q.11 1.5.53 2.6.42 1.09 1.1 1.8.69.71 1.63 1.06.94.36 2.08.36t1.97-.27q.82-.27 1.44-.59t1.08-.59q.47-.26.9-.26.59 0 .88.43l1.35 1.71q-.78.92-1.75 1.53-.97.62-2.02.99-1.06.37-2.15.52t-2.12.15q-2.03 0-3.78-.67t-3.04-1.99q-1.29-1.33-2.03-3.27-.74-1.95-.74-4.51 0-2 .64-3.76.65-1.75 1.85-3.06 1.21-1.3 2.95-2.06t3.92-.76q1.85 0 3.4.59 1.56.59 2.68 1.72t1.76 2.77q.64 1.65.64 3.76 0 1.06-.23 1.43t-.88.37m8.76-9.16.29 2.21q.91-1.75 2.16-2.75 1.26-1 2.97-1 1.35 0 2.16.59l-.3 3.52q-.09.34-.27.48-.19.15-.49.15-.28 0-.84-.1-.57-.09-1.1-.09-.78 0-1.38.22-.61.23-1.1.66-.48.43-.85 1.04-.37.6-.7 1.38v12.01h-4.69v-19.49h2.76q.72 0 1 .25.29.26.38.92m35.91-6.57-1.27 2.41q-.23.4-.48.58-.26.18-.64.18-.4 0-.86-.29-.47-.3-1.12-.66-.64-.36-1.51-.65-.86-.3-2.04-.3-1.06 0-1.86.26t-1.34.71q-.54.46-.81 1.09-.26.64-.26 1.4 0 .97.54 1.62.54.64 1.43 1.1.89.45 2.03.81 1.14.37 2.34.77 1.2.41 2.34.95 1.14.55 2.03 1.37.89.83 1.44 2.03.54 1.19.54 2.9 0 1.86-.64 3.49-.64 1.62-1.86 2.83-1.23 1.21-2.99 1.9-1.77.69-4.05.69-1.31 0-2.58-.25-1.28-.26-2.45-.73-1.16-.48-2.19-1.14-1.03-.67-1.82-1.49l1.5-2.45q.19-.26.49-.44t.65-.18q.47 0 1.02.39t1.31.86 1.78.86 2.44.39q2.19 0 3.38-1.03 1.2-1.04 1.2-2.97 0-1.09-.54-1.77-.54-.69-1.44-1.15-.89-.47-2.03-.79t-2.32-.7q-1.17-.38-2.31-.92-1.14-.53-2.04-1.38-.89-.86-1.43-2.14t-.54-3.16q0-1.5.6-2.93.59-1.42 1.73-2.53 1.14-1.1 2.82-1.76 1.67-.67 3.83-.67 2.44 0 4.49.76t3.49 2.13m8.9 11.1v8.74q.79.97 1.73 1.36.94.4 2.05.4 1.06 0 1.92-.4.85-.39 1.45-1.21t.92-2.06q.32-1.25.32-2.94 0-1.71-.27-2.9-.28-1.18-.79-1.92-.51-.75-1.24-1.09-.74-.34-1.67-.34-1.46 0-2.49.62-1.02.62-1.93 1.74m-.63-4.85.38 1.81q1.2-1.35 2.72-2.19t3.57-.84q1.59 0 2.91.67t2.28 1.93 1.49 3.11q.52 1.86.52 4.25 0 2.19-.59 4.05t-1.68 3.23-2.64 2.14q-1.55.76-3.47.76-1.63 0-2.79-.5t-2.07-1.39v7.98h-4.7v-25.86h2.87q.91 0 1.2.85m21.22 6.65h8.86q0-.91-.26-1.72t-.77-1.41q-.51-.61-1.3-.96t-1.84-.35q-2.03 0-3.2 1.15-1.17 1.16-1.49 3.29m11.97 2.83h-12.06q.11 1.5.53 2.6.42 1.09 1.1 1.8t1.63 1.06q.94.36 2.08.36t1.96-.27q.83-.27 1.45-.59.61-.32 1.08-.59.46-.26.9-.26.59 0 .88.43l1.34 1.71q-.77.92-1.74 1.53-.97.62-2.03.99-1.05.37-2.14.52-1.1.15-2.12.15-2.04 0-3.78-.67-1.75-.67-3.04-1.99-1.3-1.33-2.04-3.27-.74-1.95-.74-4.51 0-2 .65-3.76.64-1.75 1.85-3.06 1.21-1.3 2.95-2.06 1.73-.76 3.92-.76 1.84 0 3.4.59t2.68 1.72 1.76 2.77q.63 1.65.63 3.76 0 1.06-.22 1.43-.23.37-.88.37m19.82-7.92-1.24 1.71q-.21.26-.4.42-.2.15-.58.15-.37 0-.71-.22t-.81-.49q-.48-.28-1.13-.5-.66-.22-1.63-.22-1.23 0-2.17.45-.93.45-1.54 1.28-.62.84-.93 2.03-.3 1.18-.3 2.68 0 1.56.33 2.78.34 1.22.96 2.04.63.83 1.52 1.26.9.42 2.02.42t1.81-.27q.69-.28 1.17-.61.47-.33.83-.61.35-.27.78-.27.57 0 .86.43l1.35 1.71q-.78.92-1.69 1.53-.91.62-1.89.99t-2.02.52q-1.03.15-2.06.15-1.8 0-3.4-.67t-2.79-1.97q-1.2-1.29-1.89-3.16-.7-1.87-.7-4.27 0-2.14.62-3.98.62-1.83 1.82-3.17 1.19-1.34 2.96-2.1t4.07-.76q2.18 0 3.82.71 1.65.7 2.96 2.01m3.27-2.41h4.71v19.49h-4.71zm5.35-5.69q0 .61-.24 1.14-.25.54-.66.94t-.96.63q-.55.24-1.18.24-.6 0-1.14-.24-.55-.23-.95-.63-.39-.4-.63-.94-.24-.53-.24-1.14 0-.62.24-1.17t.63-.95q.4-.4.95-.64.54-.24 1.14-.24.63 0 1.18.24t.96.64.66.95q.24.55.24 1.17m7.85 13.19h8.86q0-.91-.26-1.72t-.77-1.41q-.51-.61-1.3-.96t-1.84-.35q-2.03 0-3.2 1.15-1.17 1.16-1.49 3.29m11.97 2.83h-12.06q.11 1.5.53 2.6.42 1.09 1.1 1.8t1.63 1.06q.94.36 2.08.36t1.96-.27q.83-.27 1.45-.59.61-.32 1.08-.59.46-.26.9-.26.59 0 .88.43l1.34 1.71q-.77.92-1.74 1.53-.97.62-2.03.99-1.05.37-2.14.52-1.1.15-2.12.15-2.04 0-3.78-.67-1.75-.67-3.04-1.99-1.3-1.33-2.04-3.27-.74-1.95-.74-4.51 0-2 .65-3.76.64-1.75 1.85-3.06 1.21-1.3 2.95-2.06 1.73-.76 3.92-.76 1.84 0 3.4.59t2.68 1.72 1.76 2.77q.63 1.65.63 3.76 0 1.06-.22 1.43-.23.37-.88.37m17.58-8.22-1.07 1.69q-.19.3-.4.42-.21.13-.53.13-.34 0-.73-.19t-.9-.43q-.52-.24-1.17-.43-.66-.19-1.55-.19-1.39 0-2.17.59-.79.59-.79 1.54 0 .63.41 1.05.4.43 1.08.75.67.33 1.53.58.85.26 1.74.57.88.3 1.73.69.86.39 1.53.99.68.59 1.09 1.43t.41 2.02q0 1.4-.51 2.59-.5 1.19-1.49 2.05t-2.44 1.35q-1.45.48-3.35.48-1.01 0-1.97-.18t-1.84-.5q-.89-.32-1.64-.76t-1.32-.95l1.08-1.79q.21-.32.5-.49.28-.17.72-.17t.83.25q.39.24.9.53.51.28 1.21.53.69.25 1.75.25.84 0 1.44-.2t.99-.53q.39-.32.57-.75.18-.42.18-.88 0-.68-.41-1.12t-1.08-.76q-.68-.32-1.54-.58-.87-.26-1.77-.56t-1.77-.71q-.86-.41-1.54-1.04-.67-.62-1.08-1.54-.41-.91-.41-2.2 0-1.2.48-2.28.47-1.08 1.39-1.89t2.3-1.29q1.38-.49 3.18-.49 2.02 0 3.67.67 1.65.66 2.76 1.75"/></svg>