<svg xmlns="http://www.w3.org/2000/svg" width="400" height="300" viewBox="0 0 400 300"><rect width="100%" height="100%" fill="#cccccc"/><path fill="#333333" d="M89.37 156.275q1.37 0 2.44-.45 1.08-.46 1.82-1.28.73-.82 1.12-2 .4-1.17.4-2.62v-15.16h4.71v15.16q0 2.26-.73 4.17-.73 1.92-2.08 3.31-1.36 1.39-3.3 2.17t-4.38.78q-2.45 0-4.39-.78t-3.3-2.17q-1.35-1.39-2.08-3.31-.73-1.91-.73-4.17v-15.16h4.71v15.14q0 1.45.39 2.63.4 1.17 1.14 2 .75.83 1.82 1.29 1.08.45 2.44.45m19.45-8.91v8.05q.73.9 1.6 1.26.86.37 1.88.37.98 0 1.77-.37.78-.36 1.33-1.12.56-.75.85-1.89.3-1.15.3-2.71 0-1.57-.25-2.67-.26-1.09-.73-1.77-.47-.69-1.15-1-.67-.32-1.53-.32-1.34 0-2.29.57-.94.57-1.78 1.6m-.58-4.46.35 1.66q1.1-1.24 2.5-2.01t3.29-.77q1.47 0 2.69.61 1.21.62 2.1 1.78.88 1.16 1.36 2.87t.48 3.91q0 2.01-.54 3.73-.54 1.71-1.55 2.97-1 1.26-2.43 1.97t-3.19.71q-1.51 0-2.58-.46-1.06-.47-1.9-1.29v7.35h-4.33v-23.82h2.65q.84 0 1.1.79m20.46 4.46v8.05q.73.9 1.6 1.26.86.37 1.88.37.98 0 1.77-.37.78-.36 1.33-1.12.56-.75.85-1.89.3-1.15.3-2.71 0-1.57-.25-2.67-.26-1.09-.73-1.77-.47-.69-1.15-1-.67-.32-1.53-.32-1.34 0-2.29.57-.94.57-1.78 1.6m-.58-4.46.35 1.66q1.1-1.24 2.5-2.01t3.29-.77q1.47 0 2.69.61 1.21.62 2.1 1.78.88 1.16 1.36 2.87t.48 3.91q0 2.01-.54 3.73-.54 1.71-1.55 2.97-1 1.26-2.43 1.97t-3.19.71q-1.51 0-2.58-.46-1.06-.47-1.9-1.29v7.35h-4.33v-23.82h2.65q.84 0 1.1.79m19.55 6.13h8.15q0-.84-.24-1.59-.23-.74-.7-1.3-.48-.56-1.2-.88-.73-.33-1.69-.33-1.87 0-2.95 1.07t-1.37 3.03m11.02 2.6h-11.11q.1 1.39.49 2.39.38 1.01 1.01 1.67.63.65 1.5.98.87.32 1.92.32t1.81-.25q.76-.24 1.33-.54t.99-.54q.43-.25.84-.25.54 0 .8.41l1.24 1.57q-.71.84-1.61 1.41-.89.57-1.86.91t-1.98.48q-1 .14-1.95.14-1.87 0-3.48-.62t-2.8-1.84q-1.19-1.21-1.87-3.01-.69-1.79-.69-4.15 0-1.84.6-3.46.59-1.62 1.7-2.82 1.12-1.2 2.72-1.9t3.61-.7q1.7 0 3.13.55 1.44.54 2.47 1.58t1.62 2.56q.59 1.51.59 3.45 0 .98-.21 1.32t-.81.34m8.07-8.43.26 2.03q.84-1.61 2-2.53 1.15-.92 2.73-.92 1.24 0 1.99.54l-.28 3.24q-.09.32-.25.45-.17.13-.45.13-.26 0-.78-.09-.51-.09-1-.09-.72 0-1.28.21t-1.01.61q-.44.39-.79.95-.34.56-.63 1.28v11.06h-4.33v-17.96h2.54q.67 0 .93.24t.35.85m34.39-4.69h-11.24v7.49h9.49v3.76h-9.49v10.31h-4.72v-25.31h15.96zm6.58 10.52h8.15q0-.84-.24-1.59-.23-.74-.7-1.3-.48-.56-1.2-.88-.73-.33-1.69-.33-1.87 0-2.95 1.07t-1.37 3.03m11.02 2.6h-11.11q.1 1.39.49 2.39.38 1.01 1.01 1.67.63.65 1.5.98.87.32 1.92.32t1.81-.25q.76-.24 1.33-.54t.99-.54q.43-.25.84-.25.54 0 .8.41l1.24 1.57q-.71.84-1.61 1.41-.89.57-1.86.91t-1.98.48q-1 .14-1.95.14-1.87 0-3.48-.62t-2.8-1.84q-1.19-1.21-1.87-3.01-.69-1.79-.69-4.15 0-1.84.6-3.46.59-1.62 1.7-2.82 1.12-1.2 2.72-1.9t3.61-.7q1.7 0 3.13.55 1.44.54 2.47 1.58t1.62 2.56q.59 1.51.59 3.45 0 .98-.21 1.32t-.81.34m8.07-8.43.26 2.03q.84-1.61 2-2.53 1.15-.92 2.73-.92 1.24 0 1.99.54l-.28 3.24q-.09.32-.25.45-.17.13-.45.13-.26 0-.78-.09-.51-.09-1-.09-.72 0-1.28.21t-1.01.61q-.44.39-.79.95-.34.56-.63 1.28v11.06H223v-17.96h2.54q.67 0 .93.24t.35.85m15.22 17.15q-2.34 0-3.59-1.32t-1.25-3.65v-10.03h-1.84q-.35 0-.6-.23-.24-.22-.24-.68v-1.71l2.89-.48.91-4.9q.08-.35.33-.54.24-.19.63-.19h2.24v5.65h4.79v3.08h-4.79v9.73q0 .84.41 1.31.41.48 1.13.48.4 0 .67-.1t.47-.2q.21-.11.36-.2.16-.1.32-.1.19 0 .31.1.13.09.27.29l1.29 2.1q-.94.78-2.17 1.19-1.22.4-2.54.4m7.18-18.24h4.34v17.96h-4.34zm4.93-5.23q0 .56-.22 1.05-.23.49-.61.86-.37.37-.88.59-.51.21-1.09.21-.56 0-1.06-.21-.49-.22-.86-.59t-.59-.86-.22-1.05q0-.58.22-1.08.22-.51.59-.88t.86-.58q.5-.22 1.06-.22.58 0 1.09.22.51.21.88.58.38.37.61.88.22.5.22 1.08m3.87-2.82h4.32v26.01h-4.32zm8.79 8.05h4.34v17.96h-4.34zm4.93-5.23q0 .56-.23 1.05-.22.49-.6.86t-.88.59q-.51.21-1.09.21-.56 0-1.06-.21-.5-.22-.86-.59-.37-.37-.59-.86t-.22-1.05q0-.58.22-1.08.22-.51.59-.88.36-.37.86-.58.5-.22 1.06-.22.58 0 1.09.22.5.21.88.58t.6.88q.23.5.23 1.08m16.71 5.23v1.79q0 .45-.15.89-.16.44-.42.72l-8.53 11.23h8.84v3.33h-13.86v-1.8q0-.3.14-.71t.42-.78l8.61-11.36h-8.66v-3.31zm6.6 6.92h8.16q0-.84-.24-1.59-.24-.74-.71-1.3t-1.2-.88q-.72-.33-1.69-.33-1.87 0-2.95 1.07-1.07 1.07-1.37 3.03m11.03 2.6h-11.12q.11 1.39.49 2.39.39 1.01 1.02 1.67.63.65 1.5.98.86.32 1.91.32t1.81-.25q.76-.24 1.33-.54t1-.54q.43-.25.83-.25.54 0 .81.41l1.24 1.57q-.72.84-1.61 1.41t-1.87.91q-.97.34-1.97.48-1.01.14-1.95.14-1.88 0-3.49-.62t-2.8-1.84q-1.19-1.21-1.87-3.01-.68-1.79-.68-4.15 0-1.84.59-3.46.6-1.62 1.71-2.82t2.71-1.9 3.62-.7q1.69 0 3.13.55 1.43.54 2.47 1.58 1.03 1.04 1.61 2.56.59 1.51.59 3.45 0 .98-.21 1.32t-.8.34m8.06-8.43.27 2.03q.84-1.61 1.99-2.53 1.16-.92 2.73-.92 1.24 0 2 .54l-.28 3.24q-.09.32-.26.45-.16.13-.44.13-.27 0-.78-.09-.52-.09-1.01-.09-.72 0-1.28.21t-1 .61q-.45.39-.79.95t-.64 1.28v11.06h-4.32v-17.96h2.54q.66 0 .92.24.27.24.35.85"/></svg>