<svg xmlns="http://www.w3.org/2000/svg" width="400" height="300" viewBox="0 0 400 300"><rect width="100%" height="100%" fill="#cccccc"/><path fill="#333333" d="M86.225 154.905q1.13 0 2.02-.37.9-.38 1.51-1.06.6-.68.93-1.66.33-.97.33-2.17v-12.56h3.9v12.56q0 1.87-.6 3.46-.61 1.59-1.73 2.74t-2.73 1.8q-1.61.64-3.63.64-2.03 0-3.64-.64-1.61-.65-2.73-1.8t-1.73-2.74q-.6-1.59-.6-3.46v-12.56h3.9v12.55q0 1.2.33 2.17.32.97.94 1.66t1.51 1.07q.89.37 2.02.37m16.11-7.38v6.67q.61.74 1.33 1.05.72.3 1.56.3.81 0 1.46-.3.65-.31 1.11-.93t.7-1.57q.25-.95.25-2.24 0-1.31-.21-2.22-.21-.9-.6-1.47-.39-.56-.95-.82-.56-.27-1.27-.27-1.12 0-1.9.48-.78.47-1.48 1.32m-.48-3.69.29 1.37q.92-1.03 2.08-1.66 1.16-.64 2.72-.64 1.22 0 2.23.5 1.01.51 1.74 1.48.73.96 1.13 2.37.4 1.42.4 3.25 0 1.66-.45 3.08t-1.29 2.47q-.83 1.04-2.01 1.63t-2.65.59q-1.24 0-2.13-.39-.88-.38-1.58-1.06v6.09h-3.58v-19.74h2.19q.7 0 .91.66m16.95 3.69v6.67q.61.74 1.33 1.05.72.3 1.56.3.81 0 1.46-.3.66-.31 1.11-.93.46-.62.71-1.57.24-.95.24-2.24 0-1.31-.21-2.22-.21-.9-.6-1.47-.39-.56-.95-.82-.56-.27-1.27-.27-1.11 0-1.9.48-.78.47-1.48 1.32m-.48-3.69.29 1.37q.92-1.03 2.08-1.66 1.16-.64 2.72-.64 1.22 0 2.23.5 1.01.51 1.74 1.48.73.96 1.13 2.37.4 1.42.4 3.25 0 1.66-.45 3.08t-1.28 2.47q-.84 1.04-2.02 1.63t-2.64.59q-1.25 0-2.14-.39-.88-.38-1.58-1.06v6.09h-3.58v-19.74h2.19q.7 0 .91.66m16.2 5.07h6.76q0-.7-.2-1.31-.19-.62-.58-1.08-.4-.47-1-.73-.6-.27-1.4-.27-1.55 0-2.44.88-.89.89-1.14 2.51m9.14 2.16h-9.21q.09 1.15.4 1.98.32.83.85 1.38.52.54 1.24.81.71.27 1.58.27t1.5-.21q.63-.2 1.11-.44.47-.25.82-.45.36-.21.69-.21.45 0 .67.34l1.03 1.3q-.6.7-1.34 1.17t-1.54.75q-.81.29-1.64.4-.83.12-1.62.12-1.55 0-2.88-.52-1.34-.51-2.32-1.52-.99-1.01-1.55-2.49-.57-1.49-.57-3.45 0-1.52.49-2.86.5-1.34 1.42-2.34.92-.99 2.25-1.57 1.32-.58 2.99-.58 1.41 0 2.6.45 1.18.45 2.04 1.31.86.87 1.34 2.12.49 1.25.49 2.86 0 .82-.18 1.1-.17.28-.66.28m6.68-6.99.22 1.68q.69-1.33 1.65-2.09t2.26-.76q1.03 0 1.66.45l-.24 2.68q-.07.26-.21.37-.13.11-.37.11-.21 0-.64-.07-.43-.08-.83-.08-.6 0-1.06.18-.47.17-.84.5-.37.32-.65.79-.28.46-.53 1.06v9.16h-3.58v-14.88h2.1q.55 0 .77.2.22.19.29.7m40.11-6.99h3.06l-6.51 20.97h-3.53l-4.58-14.33q-.19-.52-.35-1.27-.08.36-.17.68t-.19.59l-4.62 14.33h-3.54l-6.5-20.97h3.26q.51 0 .85.24t.46.65l3.57 12.54q.11.46.22 1.01.11.54.23 1.14.11-.61.25-1.15t.3-1l4.11-12.54q.12-.34.46-.61.34-.28.83-.28h1.15q.51 0 .83.25t.48.64l4.1 12.54q.3.9.55 2.07.19-1.14.42-2.07l3.57-12.54q.08-.37.44-.63.35-.26.85-.26m12.93 17.13v-2.51q-1.55.07-2.61.27-1.06.19-1.69.5-.64.3-.92.71-.27.4-.27.88 0 .94.55 1.35.56.41 1.46.41 1.1 0 1.91-.4.8-.4 1.57-1.21m-7.57-7.82-.64-1.14q2.57-2.35 6.18-2.35 1.31 0 2.34.43 1.03.42 1.74 1.18.71.77 1.08 1.82.37 1.06.37 2.32v9.4h-1.63q-.51 0-.78-.15-.28-.15-.44-.62l-.31-1.07q-.57.51-1.11.89-.53.38-1.11.65-.58.26-1.24.39-.66.14-1.46.14-.94 0-1.74-.25-.8-.26-1.38-.76-.58-.51-.9-1.26-.32-.76-.32-1.76 0-.56.19-1.12t.62-1.07 1.11-.96 1.67-.78q1-.33 2.32-.54t3.01-.26v-.87q0-1.49-.64-2.21-.63-.72-1.84-.72-.87 0-1.44.21-.57.2-1.01.45-.43.26-.79.46-.35.2-.79.2-.38 0-.64-.19-.26-.2-.42-.46m24.32-1.61-.81 1.29q-.15.23-.31.33-.16.09-.4.09-.26 0-.56-.14-.3-.15-.69-.33t-.89-.32q-.5-.15-1.18-.15-1.06 0-1.66.45-.61.45-.61 1.17 0 .48.32.81.31.33.82.57.52.25 1.17.44.65.2 1.33.43.67.23 1.32.53.66.3 1.17.76.52.45.83 1.09t.31 1.54q0 1.07-.39 1.98-.38.9-1.13 1.56-.76.66-1.87 1.03t-2.56.37q-.76 0-1.5-.14-.73-.13-1.4-.38-.68-.25-1.25-.58t-1.01-.72l.83-1.37q.16-.24.38-.37.21-.14.55-.14.33 0 .63.19.29.19.69.41.39.22.92.4.53.19 1.34.19.64 0 1.09-.15.46-.15.76-.4.29-.24.43-.57t.14-.67q0-.53-.31-.86t-.83-.58q-.51-.25-1.17-.44-.66-.2-1.35-.43t-1.35-.54q-.66-.32-1.17-.79-.52-.48-.83-1.18-.31-.69-.31-1.68 0-.91.36-1.74t1.07-1.44q.7-.62 1.75-.99t2.43-.37q1.54 0 2.8.51t2.1 1.33m7.81 13.5q-1.94 0-2.97-1.09-1.04-1.1-1.04-3.03v-8.3h-1.52q-.29 0-.5-.19-.2-.19-.2-.57v-1.42l2.39-.39.76-4.06q.07-.29.27-.45t.52-.16h1.86v4.68h3.97v2.56h-3.97v8.06q0 .69.34 1.08.34.4.94.4.33 0 .55-.08.23-.08.4-.17.16-.09.29-.17t.26-.08q.16 0 .26.08.11.08.22.24l1.08 1.74q-.79.66-1.8.99-1.02.33-2.11.33m8.66-9.38h6.76q0-.7-.2-1.31-.19-.62-.58-1.08-.4-.47-1-.73-.6-.27-1.4-.27-1.55 0-2.44.88-.89.89-1.14 2.51m9.14 2.16h-9.21q.09 1.15.4 1.98.32.83.85 1.38.52.54 1.24.81.71.27 1.58.27t1.5-.21q.63-.2 1.11-.44.47-.25.82-.45.36-.21.69-.21.45 0 .67.34l1.03 1.3q-.6.7-1.34 1.17t-1.54.75q-.81.29-1.64.4-.83.12-1.62.12-1.55 0-2.88-.52-1.34-.51-2.32-1.52-.99-1.01-1.55-2.49-.57-1.49-.57-3.45 0-1.52.49-2.86.5-1.34 1.42-2.34.92-.99 2.25-1.57 1.32-.58 2.99-.58 1.41 0 2.6.45 1.18.45 2.04 1.31.86.87 1.34 2.12.49 1.25.49 2.86 0 .82-.18 1.1-.17.28-.66.28m22.04-7.89h2.72l-4.72 14.88h-2.88q-.49 0-.68-.64l-2.67-8.6q-.13-.43-.23-.86-.11-.43-.19-.86-.08.43-.19.88-.11.44-.24.87l-2.71 8.57q-.18.64-.77.64h-2.76l-4.71-14.88h2.86q.39 0 .67.19.27.19.36.48l2.13 7.95q.16.65.28 1.27.13.63.21 1.25.16-.62.34-1.25.18-.62.39-1.27l2.46-7.98q.09-.29.34-.48.26-.19.62-.19h1.58q.38 0 .65.19.26.19.35.48l2.39 7.98q.19.65.36 1.28.16.63.32 1.25.19-1.23.54-2.53l2.19-7.95q.1-.29.36-.48t.63-.19m12.61 11.04v-2.51q-1.55.07-2.61.27-1.06.19-1.7.5-.63.3-.91.71-.27.4-.27.88 0 .94.55 1.35.56.41 1.46.41 1.1 0 1.91-.4.8-.4 1.57-1.21m-7.57-7.82-.64-1.14q2.57-2.35 6.18-2.35 1.31 0 2.34.43 1.03.42 1.74 1.18.71.77 1.08 1.82.37 1.06.37 2.32v9.4h-1.63q-.51 0-.78-.15-.28-.15-.44-.62l-.32-1.07q-.56.51-1.1.89-.53.38-1.11.65-.58.26-1.24.39-.66.14-1.46.14-.94 0-1.74-.25-.8-.26-1.38-.76-.58-.51-.9-1.26-.32-.76-.32-1.76 0-.56.19-1.12t.62-1.07 1.11-.96 1.67-.78q1-.33 2.32-.54 1.31-.21 3.01-.26v-.87q0-1.49-.64-2.21-.63-.72-1.84-.72-.87 0-1.44.21-.57.2-1.01.45-.43.26-.79.46-.35.2-.79.2-.38 0-.64-.19-.26-.2-.42-.46m19.39 11.89q-1.94 0-2.98-1.09-1.04-1.1-1.04-3.03v-8.3h-1.52q-.29 0-.49-.19-.21-.19-.21-.57v-1.42l2.4-.39.75-4.06q.07-.29.28-.45.2-.16.52-.16h1.85v4.68h3.98v2.56h-3.98v8.06q0 .69.34 1.08.35.4.94.4.33 0 .56-.08.22-.08.39-.17t.3-.17.26-.08q.16 0 .26.08t.22.24l1.07 1.74q-.78.66-1.8.99-1.01.33-2.1.33m8.66-9.38h6.75q0-.7-.19-1.31-.2-.62-.59-1.08-.39-.47-.99-.73-.61-.27-1.4-.27-1.55 0-2.45.88-.89.89-1.13 2.51m9.13 2.16h-9.21q.09 1.15.41 1.98t.84 1.38q.52.54 1.24.81t1.59.27 1.5-.21q.63-.2 1.1-.44.47-.25.83-.45.35-.21.69-.21.44 0 .66.34l1.03 1.3q-.59.7-1.33 1.17t-1.55.75q-.8.29-1.63.4-.84.12-1.62.12-1.55 0-2.89-.52-1.33-.51-2.32-1.52-.98-1.01-1.55-2.49-.56-1.49-.56-3.45 0-1.52.49-2.86t1.41-2.34q.92-.99 2.25-1.57t2.99-.58q1.41 0 2.6.45t2.04 1.31q.86.87 1.35 2.12.48 1.25.48 2.86 0 .82-.17 1.1-.18.28-.67.28m6.68-6.99.22 1.68q.7-1.33 1.66-2.09.95-.76 2.26-.76 1.03 0 1.65.45l-.23 2.68q-.07.26-.21.37t-.37.11q-.22 0-.65-.07-.42-.08-.83-.08-.6 0-1.06.18-.46.17-.83.5-.37.32-.66.79-.28.46-.52 1.06v9.16h-3.59v-14.88h2.11q.55 0 .76.2.22.19.29.7"/></svg>