<svg xmlns="http://www.w3.org/2000/svg" width="400" height="300" viewBox="0 0 400 300"><rect width="100%" height="100%" fill="#cccccc"/><path fill="#333333" d="M91.535 156.995q1.52 0 2.72-.51t2.02-1.42q.81-.92 1.25-2.22.44-1.31.44-2.93v-16.89h5.25v16.89q0 2.52-.81 4.65-.81 2.14-2.32 3.69t-3.68 2.41q-2.16.87-4.87.87-2.73 0-4.9-.87-2.16-.86-3.67-2.41t-2.32-3.69q-.81-2.13-.81-4.65v-16.89h5.24v16.87q0 1.62.44 2.93.44 1.3 1.27 2.23.83.92 2.03 1.43t2.72.51m21.66-9.93v8.97q.82 1 1.79 1.41.96.41 2.09.41 1.09 0 1.97-.41t1.49-1.25q.62-.84.95-2.12.33-1.27.33-3.01 0-1.75-.28-2.97-.29-1.22-.81-1.98-.53-.76-1.28-1.11t-1.71-.35q-1.5 0-2.55.63t-1.99 1.78m-.64-4.97.39 1.85q1.23-1.38 2.79-2.24t3.66-.86q1.64 0 3 .68 1.35.69 2.34 1.98.98 1.3 1.52 3.2.53 1.9.53 4.36 0 2.24-.6 4.15-.61 1.92-1.73 3.32t-2.71 2.19-3.56.79q-1.67 0-2.86-.51-1.19-.52-2.13-1.44v8.19h-4.82v-26.54h2.95q.94 0 1.23.88m22.79 4.97v8.97q.82 1 1.79 1.41.96.41 2.09.41 1.1 0 1.97-.41.88-.41 1.49-1.25.62-.84.95-2.12.33-1.27.33-3.01 0-1.75-.28-2.97t-.81-1.98-1.28-1.11-1.7-.35q-1.5 0-2.56.63-1.05.63-1.99 1.78m-.64-4.97.39 1.85q1.23-1.38 2.79-2.24t3.66-.86q1.64 0 3 .68 1.35.69 2.34 1.98.98 1.3 1.52 3.2.53 1.9.53 4.36 0 2.24-.6 4.15-.6 1.92-1.73 3.32-1.12 1.4-2.71 2.19t-3.55.79q-1.68 0-2.87-.51-1.19-.52-2.13-1.44v8.19h-4.81v-26.54h2.94q.94 0 1.23.88m21.78 6.83h9.09q0-.94-.27-1.77-.26-.83-.78-1.45-.53-.63-1.34-.99t-1.88-.36q-2.09 0-3.29 1.19t-1.53 3.38m12.29 2.9h-12.39q.12 1.54.55 2.66t1.13 1.86q.7.73 1.67 1.09.96.36 2.13.36t2.02-.28q.85-.27 1.48-.6.64-.33 1.11-.6.48-.28.93-.28.61 0 .9.45l1.38 1.76q-.8.93-1.79 1.57-1 .63-2.08 1.01t-2.2.54q-1.12.15-2.18.15-2.08 0-3.88-.69-1.79-.69-3.12-2.05-1.32-1.35-2.08-3.35t-.76-4.63q0-2.05.66-3.85.66-1.81 1.9-3.14 1.24-1.34 3.02-2.12 1.79-.78 4.03-.78 1.89 0 3.49.61 1.6.6 2.75 1.76t1.8 2.85q.66 1.68.66 3.85 0 1.09-.24 1.47-.23.38-.89.38m8.99-9.4.29 2.26q.93-1.79 2.22-2.81 1.29-1.03 3.04-1.03 1.39 0 2.23.61l-.32 3.6q-.09.36-.28.5-.18.15-.5.15-.29 0-.86-.1-.58-.1-1.12-.1-.8 0-1.43.24-.62.23-1.12.67t-.88 1.06q-.38.63-.71 1.43v12.32h-4.82v-20.01h2.83q.74 0 1.04.27.29.26.39.94m25.77 14.47h11.28v4.33h-16.52v-28.2h5.24zm24.83-.84v-3.37q-2.09.1-3.51.36-1.43.26-2.28.67-.86.41-1.23.96-.37.54-.37 1.19 0 1.27.75 1.81.75.55 1.96.55 1.48 0 2.56-.54t2.12-1.63m-10.18-10.51-.86-1.54q3.45-3.16 8.31-3.16 1.75 0 3.14.58 1.38.57 2.34 1.6.95 1.02 1.45 2.44.5 1.43.5 3.12v12.64h-2.19q-.68 0-1.05-.2-.37-.21-.58-.83l-.43-1.45q-.76.69-1.49 1.2-.72.52-1.5.87t-1.66.54q-.89.18-1.96.18-1.27 0-2.34-.34-1.08-.34-1.86-1.02-.78-.69-1.21-1.7-.42-1.01-.42-2.36 0-.76.25-1.51t.83-1.43q.57-.69 1.49-1.29.92-.61 2.25-1.05 1.34-.45 3.11-.73 1.78-.29 4.06-.35v-1.17q0-2-.86-2.97-.86-.96-2.48-.96-1.17 0-1.94.27t-1.35.61q-.59.34-1.06.62-.48.27-1.07.27-.5 0-.86-.26-.35-.27-.56-.62m23.57-3.45.34 1.58q.6-.6 1.27-1.12.68-.52 1.43-.88t1.61-.56q.85-.21 1.87-.21 1.64 0 2.9.56 1.27.55 2.12 1.56.85 1 1.29 2.4.43 1.39.43 3.07v12.73h-4.81v-12.73q0-1.84-.84-2.84t-2.55-1q-1.25 0-2.34.56-1.1.57-2.07 1.54v14.47h-4.82v-20.01h2.95q.93 0 1.22.88m30.39 13.2v-8.97q-.82-.99-1.79-1.4-.96-.41-2.08-.41-1.09 0-1.96.41-.88.41-1.51 1.24-.62.83-.95 2.1-.33 1.28-.33 3.01 0 1.76.28 2.98t.81 1.99 1.29 1.11 1.69.34q1.5 0 2.56-.62 1.05-.63 1.99-1.78m0-23.05h4.81v28.98h-2.94q-.96 0-1.21-.88l-.41-1.93q-1.21 1.39-2.78 2.24-1.57.86-3.66.86-1.63 0-3-.68-1.36-.68-2.35-1.98-.98-1.3-1.52-3.21t-.54-4.37q0-2.22.61-4.13.6-1.91 1.73-3.31 1.14-1.41 2.71-2.2 1.58-.79 3.55-.79 1.68 0 2.87.53t2.13 1.42zm15.79 28.98h-4.82v-16.38l-1.73-.27q-.57-.12-.91-.4-.34-.29-.34-.81v-1.97h2.98v-1.48q0-1.72.52-3.08.52-1.37 1.48-2.32.97-.96 2.35-1.47 1.39-.5 3.12-.5 1.39 0 2.58.37l-.1 2.41q-.02.28-.16.44-.13.17-.36.26-.22.08-.51.11-.3.03-.63.03-.86 0-1.53.19-.67.18-1.14.64t-.71 1.21q-.25.75-.25 1.86v1.33h5.21v3.43h-5.05zm7.92-20.01h4.83v20.01h-4.83zm5.5-5.83q0 .63-.26 1.17-.25.55-.67.96t-.98.65q-.57.24-1.21.24-.63 0-1.18-.24-.56-.24-.97-.65t-.65-.96q-.25-.54-.25-1.17 0-.64.25-1.21.24-.56.65-.97t.97-.65q.55-.25 1.18-.25.64 0 1.21.25.56.24.98.65t.67.97q.26.57.26 1.21m4.31-3.14h4.81v28.98h-4.81zm9.69 0h4.81v28.98h-4.81z"/></svg>