<svg xmlns="http://www.w3.org/2000/svg" width="400" height="300" viewBox="0 0 400 300"><rect width="100%" height="100%" fill="#cccccc"/><path fill="#333333" d="M86.95 155.195q1.13 0 2.02-.37.9-.38 1.5-1.06.61-.68.94-1.66.33-.97.33-2.17v-12.56h3.9v12.56q0 1.87-.61 3.46-.6 1.59-1.72 2.74t-2.73 1.8q-1.61.64-3.63.64-2.03 0-3.64-.64-1.61-.65-2.73-1.8-1.13-1.15-1.73-2.74t-.6-3.46v-12.56h3.9v12.55q0 1.2.33 2.17.32.97.94 1.66t1.51 1.07q.89.37 2.02.37m16.11-7.38v6.67q.61.74 1.33 1.05.71.3 1.56.3.81 0 1.46-.3.65-.31 1.11-.93t.7-1.57q.25-.95.25-2.24 0-1.31-.21-2.22-.21-.9-.6-1.47-.39-.56-.95-.82-.56-.27-1.27-.27-1.12 0-1.9.48-.78.47-1.48 1.32m-.48-3.69.29 1.37q.92-1.03 2.08-1.66 1.16-.64 2.72-.64 1.22 0 2.23.5 1 .51 1.74 1.48.73.96 1.13 2.37.4 1.42.4 3.25 0 1.66-.45 3.08t-1.29 2.47q-.83 1.04-2.01 1.63t-2.65.59q-1.24 0-2.13-.39-.88-.38-1.58-1.06v6.09h-3.58v-19.74h2.19q.69 0 .91.66m16.95 3.69v6.67q.61.74 1.33 1.05.72.3 1.56.3.81 0 1.46-.3.65-.31 1.11-.93t.7-1.57q.25-.95.25-2.24 0-1.31-.21-2.22-.21-.9-.6-1.47-.39-.56-.95-.82-.56-.27-1.27-.27-1.12 0-1.9.48-.78.47-1.48 1.32m-.48-3.69.29 1.37q.92-1.03 2.08-1.66 1.16-.64 2.72-.64 1.22 0 2.23.5 1.01.51 1.74 1.48.73.96 1.13 2.37.4 1.42.4 3.25 0 1.66-.45 3.08t-1.28 2.47q-.84 1.04-2.02 1.63t-2.65.59q-1.24 0-2.13-.39-.88-.38-1.58-1.06v6.09h-3.58v-19.74h2.19q.7 0 .91.66m16.2 5.07h6.76q0-.7-.2-1.31-.19-.62-.59-1.08-.39-.47-.99-.73-.6-.27-1.4-.27-1.55 0-2.44.88-.89.89-1.14 2.51m9.14 2.16h-9.21q.08 1.15.4 1.98t.84 1.38q.53.54 1.24.81.72.27 1.59.27t1.5-.21q.63-.2 1.1-.44.48-.25.83-.45.36-.21.69-.21.45 0 .67.34l1.03 1.3q-.6.7-1.34 1.17t-1.54.75q-.81.29-1.64.4-.83.12-1.62.12-1.55 0-2.88-.52-1.34-.51-2.32-1.52-.99-1.01-1.55-2.49-.57-1.49-.57-3.45 0-1.52.49-2.86.5-1.34 1.42-2.34.92-.99 2.24-1.57 1.33-.58 3-.58 1.41 0 2.59.45 1.19.45 2.05 1.31.85.87 1.34 2.12t.49 2.86q0 .82-.18 1.1-.17.28-.66.28m6.68-6.99.22 1.68q.69-1.33 1.65-2.09t2.26-.76q1.03 0 1.66.45l-.24 2.68q-.07.26-.21.37-.13.11-.37.11-.21 0-.64-.07-.43-.08-.84-.08-.59 0-1.05.18-.47.17-.84.5-.37.32-.65.79-.28.46-.53 1.06v9.16h-3.58v-14.88h2.1q.55 0 .77.2.22.19.29.7m19.68 6.06h6.67l-2.56-6.97q-.18-.47-.39-1.1-.2-.64-.4-1.38-.19.74-.39 1.38-.21.65-.4 1.13zm5.32-13.05 8.23 20.97h-3.01q-.51 0-.83-.25-.32-.26-.48-.63l-1.56-4.28h-8.69l-1.56 4.28q-.12.33-.45.6-.34.28-.83.28h-3.05l8.25-20.97zm19.18 16.56v-6.67q-.59-.74-1.32-1.04-.72-.31-1.55-.31-.81 0-1.46.31-.66.3-1.12.92-.46.61-.71 1.56t-.25 2.24q0 1.31.21 2.22.21.9.6 1.48.4.57.96.82.57.26 1.26.26 1.12 0 1.9-.47.79-.46 1.48-1.32m1.39-10.47h2.19v19.74h-3.58v-6.75q-.88.95-2 1.53t-2.6.58q-1.21 0-2.23-.51-1.01-.51-1.75-1.47-.73-.97-1.13-2.39t-.4-3.25q0-1.65.45-3.07t1.29-2.46q.85-1.05 2.02-1.64 1.17-.58 2.64-.58 1.39 0 2.33.48.95.47 1.69 1.29l.18-.84q.19-.66.9-.66m14.97 0h3.58v14.88H213q-.71 0-.9-.65l-.25-1.19q-.91.93-2.01 1.5t-2.6.57q-1.22 0-2.15-.41-.94-.41-1.57-1.17-.64-.75-.97-1.79-.32-1.04-.32-2.28v-9.46h3.58v9.46q0 1.36.63 2.11.63.74 1.89.74.93 0 1.74-.41t1.54-1.14zm14.98 11.04v-2.51q-1.56.07-2.61.27-1.06.19-1.7.5-.64.3-.91.71-.28.4-.28.88 0 .94.56 1.35t1.46.41q1.1 0 1.9-.4.81-.4 1.58-1.21m-7.57-7.82-.64-1.14q2.57-2.35 6.18-2.35 1.3 0 2.33.43 1.03.42 1.74 1.18.71.77 1.08 1.82.37 1.06.37 2.32v9.4h-1.62q-.51 0-.79-.15-.27-.15-.43-.62l-.32-1.07q-.57.51-1.1.89-.54.38-1.12.65-.58.26-1.24.39-.66.14-1.46.14-.94 0-1.74-.25-.79-.26-1.37-.76-.58-.51-.9-1.26-.32-.76-.32-1.76 0-.56.19-1.12t.61-1.07q.43-.51 1.11-.96t1.68-.78q.99-.33 2.31-.54t3.02-.26v-.87q0-1.49-.64-2.21t-1.84-.72q-.87 0-1.45.21-.57.2-1 .45-.44.26-.79.46-.36.2-.79.2-.38 0-.64-.19-.26-.2-.42-.46m26.02-1.38-.94 1.31q-.16.2-.31.32-.15.11-.44.11-.28 0-.54-.16-.26-.17-.62-.38t-.86-.38q-.51-.16-1.24-.16-.95 0-1.66.34t-1.18.98q-.47.63-.7 1.54t-.23 2.05q0 1.19.25 2.12t.73 1.56 1.16.96q.68.32 1.54.32.85 0 1.38-.21t.89-.46q.37-.26.64-.47.26-.21.6-.21.43 0 .65.34l1.03 1.3q-.6.7-1.29 1.17-.7.47-1.44.75-.75.29-1.54.4-.79.12-1.57.12-1.38 0-2.6-.52-1.22-.51-2.13-1.5-.91-.98-1.44-2.41t-.53-3.26q0-1.64.47-3.04.47-1.39 1.38-2.42.92-1.02 2.26-1.6 1.35-.58 3.11-.58 1.67 0 2.92.54 1.25.53 2.25 1.53m11.62-1.84h3.58v14.88h-2.19q-.71 0-.9-.65l-.24-1.19q-.92.93-2.02 1.5t-2.6.57q-1.21 0-2.15-.41-.93-.41-1.57-1.17-.64-.75-.97-1.79-.32-1.04-.32-2.28v-9.46h3.58v9.46q0 1.36.63 2.11.63.74 1.89.74.93 0 1.74-.41t1.54-1.14zm7.16-6.67h3.58v21.55h-3.58zm12.12 21.78q-1.94 0-2.98-1.09-1.03-1.1-1.03-3.03v-8.3h-1.53q-.29 0-.49-.19t-.2-.57v-1.42l2.39-.39.76-4.06q.07-.29.27-.45t.52-.16h1.86v4.68h3.97v2.56h-3.97v8.06q0 .69.34 1.08.34.4.93.4.34 0 .56-.08.23-.08.39-.17.17-.09.3-.17t.26-.08q.16 0 .26.08.11.08.22.24l1.07 1.74q-.78.66-1.79.99-1.02.33-2.11.33m15.07-15.11h3.58v14.88h-2.19q-.71 0-.9-.65l-.24-1.19q-.92.93-2.02 1.5t-2.6.57q-1.21 0-2.15-.41-.93-.41-1.57-1.17-.64-.75-.97-1.79-.32-1.04-.32-2.28v-9.46h3.58v9.46q0 1.36.63 2.11.63.74 1.89.74.93 0 1.74-.41t1.54-1.14zm10.28.9.22 1.68q.69-1.33 1.65-2.09t2.26-.76q1.03 0 1.66.45l-.24 2.68q-.07.26-.21.37-.13.11-.37.11-.21 0-.64-.07-.43-.08-.84-.08-.59 0-1.05.18-.47.17-.84.5-.37.32-.65.79-.28.46-.53 1.06v9.16h-3.58v-14.88h2.1q.55 0 .77.2.22.19.29.7m10.48 4.83h6.76q0-.7-.2-1.31-.19-.62-.58-1.08-.39-.47-1-.73-.6-.27-1.4-.27-1.55 0-2.44.88-.89.89-1.14 2.51m9.14 2.16h-9.21q.09 1.15.41 1.98t.84 1.38q.52.54 1.24.81t1.59.27 1.5-.21q.63-.2 1.1-.44.47-.25.82-.45.36-.21.69-.21.45 0 .67.34l1.03 1.3q-.59.7-1.33 1.17t-1.55.75q-.8.29-1.64.4-.83.12-1.61.12-1.56 0-2.89-.52-1.33-.51-2.32-1.52t-1.55-2.49q-.57-1.49-.57-3.45 0-1.52.5-2.86.49-1.34 1.41-2.34.92-.99 2.25-1.57 1.32-.58 2.99-.58 1.41 0 2.6.45t2.04 1.31q.86.87 1.34 2.12.49 1.25.49 2.86 0 .82-.17 1.1-.18.28-.67.28"/></svg>