<svg xmlns="http://www.w3.org/2000/svg" width="400" height="300" viewBox="0 0 400 300"><rect width="100%" height="100%" fill="#cccccc"/><path fill="#333333" d="M88.43 156.09q1.33 0 2.37-.44 1.05-.44 1.76-1.24.72-.8 1.1-1.94t.38-2.55V135.2h4.57v14.72q0 2.19-.7 4.05-.71 1.87-2.02 3.22-1.32 1.35-3.21 2.11-1.89.75-4.25.75-2.38 0-4.27-.75-1.88-.76-3.2-2.11t-2.02-3.22q-.71-1.86-.71-4.05V135.2h4.57v14.7q0 1.41.39 2.55.38 1.14 1.1 1.95t1.77 1.25 2.37.44m18.89-8.65v7.82q.71.86 1.55 1.22.85.36 1.83.36.95 0 1.72-.36.76-.36 1.3-1.09.53-.73.82-1.84t.29-2.63q0-1.53-.24-2.59-.25-1.06-.71-1.73-.46-.66-1.11-.96-.66-.31-1.49-.31-1.31 0-2.23.55t-1.73 1.56m-.56-4.34.34 1.62q1.07-1.21 2.43-1.96t3.19-.75q1.43 0 2.61.6 1.19.59 2.04 1.73.86 1.13 1.33 2.78.47 1.66.47 3.8 0 1.96-.53 3.62-.53 1.67-1.5 2.89-.98 1.23-2.37 1.92-1.38.69-3.1.69-1.46 0-2.5-.46-1.04-.45-1.85-1.25v7.15h-4.2v-23.14h2.57q.81 0 1.07.76m19.87 4.34v7.82q.71.86 1.56 1.22.84.36 1.82.36.96 0 1.72-.36.77-.36 1.3-1.09.54-.73.83-1.84.28-1.11.28-2.63 0-1.53-.24-2.59-.25-1.06-.71-1.73-.46-.66-1.11-.96-.66-.31-1.49-.31-1.31 0-2.23.55-.91.55-1.73 1.56m-.56-4.34.34 1.62q1.07-1.21 2.43-1.96t3.2-.75q1.42 0 2.61.6 1.18.59 2.04 1.73.85 1.13 1.32 2.78.47 1.66.47 3.8 0 1.96-.53 3.62-.52 1.67-1.5 2.89-.98 1.23-2.37 1.92-1.38.69-3.1.69-1.46 0-2.5-.46-1.03-.45-1.85-1.25v7.15h-4.2v-23.14H125q.81 0 1.07.76m18.99 5.95h7.92q0-.81-.23-1.54-.23-.72-.69-1.26-.46-.55-1.16-.86-.71-.32-1.64-.32-1.82 0-2.87 1.04-1.04 1.04-1.33 2.94m10.71 2.54h-10.8q.11 1.34.48 2.32.37.97.98 1.61.62.64 1.46.95.84.32 1.86.32t1.76-.24 1.29-.53.97-.52q.42-.24.81-.24.53 0 .78.39l1.21 1.53q-.7.81-1.57 1.37-.86.55-1.81.88-.94.33-1.92.47t-1.89.14q-1.82 0-3.39-.61-1.56-.6-2.72-1.78-1.15-1.19-1.82-2.93-.66-1.74-.66-4.04 0-1.78.58-3.35.58-1.58 1.66-2.74t2.63-1.84q1.56-.68 3.51-.68 1.65 0 3.05.52 1.39.53 2.39 1.54t1.57 2.48.57 3.36q0 .95-.2 1.28-.2.34-.78.34m7.84-8.2.25 1.97q.82-1.56 1.94-2.45 1.12-.9 2.65-.9 1.21 0 1.94.53l-.27 3.15q-.09.3-.25.43t-.43.13q-.26 0-.76-.09-.5-.08-.98-.08-.69 0-1.24.2-.54.21-.98.59-.43.38-.76.92-.33.55-.62 1.25v10.74h-4.2v-17.44h2.46q.65 0 .91.23.25.23.34.82m32.13-5.88-1.14 2.16q-.21.36-.44.52t-.57.16q-.35 0-.77-.26-.42-.27-.99-.59-.58-.32-1.36-.59-.77-.26-1.82-.26-.96 0-1.67.23t-1.2.64q-.48.4-.72.97t-.24 1.25q0 .87.49 1.45.48.58 1.28.98.8.41 1.82.73 1.02.33 2.09.69 1.07.37 2.09.85 1.02.49 1.82 1.23t1.28 1.81q.49 1.07.49 2.6 0 1.66-.57 3.12-.57 1.45-1.67 2.53-1.09 1.08-2.68 1.7-1.58.62-3.62.62-1.17 0-2.31-.23t-2.18-.65q-1.05-.43-1.97-1.02-.91-.6-1.63-1.33l1.34-2.19q.17-.24.45-.4.27-.16.57-.16.43 0 .92.35.5.34 1.18.77.68.42 1.58.77.91.35 2.19.35 1.95 0 3.03-.92 1.07-.93 1.07-2.67 0-.96-.49-1.58-.48-.61-1.28-1.02-.8-.42-1.82-.71t-2.07-.63q-1.06-.34-2.08-.82-1.02-.47-1.82-1.24-.8-.76-1.28-1.91-.49-1.15-.49-2.83 0-1.34.54-2.62.54-1.27 1.56-2.26 1.02-.98 2.51-1.58 1.5-.59 3.44-.59 2.17 0 4.01.68 1.83.68 3.13 1.9m7.07 11.54h7.92q0-.81-.23-1.54-.23-.72-.69-1.26-.46-.55-1.16-.86-.71-.32-1.64-.32-1.82 0-2.87 1.04-1.04 1.04-1.33 2.94m10.71 2.54h-10.8q.1 1.34.48 2.32.37.97.98 1.61.62.64 1.46.95.84.32 1.86.32t1.76-.24 1.29-.53.97-.52q.42-.24.81-.24.52 0 .78.39l1.21 1.53q-.7.81-1.57 1.37-.86.55-1.81.88-.94.33-1.92.47t-1.89.14q-1.82 0-3.39-.61-1.56-.6-2.72-1.78-1.15-1.19-1.82-2.93-.66-1.74-.66-4.04 0-1.78.58-3.35.58-1.58 1.66-2.74t2.63-1.84q1.56-.68 3.51-.68 1.65 0 3.04.52 1.4.53 2.4 1.54t1.57 2.48.57 3.36q0 .95-.2 1.28-.2.34-.78.34m15.08 3.02v-7.82q-.72-.87-1.56-1.22-.84-.36-1.81-.36-.95 0-1.72.36-.76.35-1.31 1.08-.54.72-.83 1.83-.29 1.12-.29 2.63 0 1.53.25 2.59t.7 1.74q.46.67 1.13.97.66.29 1.48.29 1.3 0 2.22-.54.92-.55 1.74-1.55m0-20.09h4.2v25.26h-2.57q-.83 0-1.06-.77l-.35-1.68q-1.06 1.21-2.43 1.96-1.36.75-3.18.75-1.43 0-2.62-.6t-2.05-1.73-1.33-2.79q-.46-1.67-.46-3.81 0-1.94.52-3.6.53-1.67 1.52-2.89.98-1.23 2.36-1.92t3.09-.69q1.47 0 2.5.46 1.04.46 1.86 1.24zm8.48 7.82h4.22v17.44h-4.22zm4.79-5.09q0 .55-.22 1.02-.22.48-.58.84-.37.35-.86.57-.5.21-1.06.21-.54 0-1.03-.21-.48-.22-.84-.57-.35-.36-.57-.84-.21-.47-.21-1.02 0-.56.21-1.05.22-.49.57-.85.36-.36.84-.57.49-.21 1.03-.21.56 0 1.06.21.49.21.86.57.36.36.58.85t.22 1.05m7.91 22.53h-4.2v-17.44h2.57q.81 0 1.07.76l.27 1.29q.46-.51.96-.93.5-.43 1.07-.73.57-.31 1.22-.49.66-.17 1.44-.17 1.65 0 2.71.89 1.07.89 1.59 2.37.41-.87 1.02-1.49t1.35-1.01q.73-.39 1.55-.58.83-.18 1.66-.18 1.44 0 2.57.44 1.12.44 1.88 1.29.77.85 1.17 2.07.4 1.23.4 2.81v11.1h-4.2v-11.1q0-1.67-.73-2.51t-2.15-.84q-.64 0-1.19.22-.56.22-.97.64-.42.41-.66 1.04t-.24 1.45v11.1h-4.21v-11.1q0-1.75-.71-2.55-.7-.8-2.06-.8-.92 0-1.71.45t-1.47 1.23zm27.59-10.73h7.92q0-.81-.23-1.54-.23-.72-.69-1.26-.46-.55-1.16-.86-.71-.32-1.64-.32-1.82 0-2.87 1.04-1.04 1.04-1.33 2.94m10.71 2.54h-10.8q.11 1.34.48 2.32.37.97.99 1.61.61.64 1.45.95.84.32 1.86.32t1.76-.24 1.29-.53q.56-.29.97-.52.42-.24.81-.24.53 0 .78.39l1.21 1.53q-.7.81-1.57 1.37-.86.55-1.81.88-.94.33-1.92.47-.97.14-1.89.14-1.82 0-3.39-.61-1.56-.6-2.72-1.78-1.15-1.19-1.81-2.93-.67-1.74-.67-4.04 0-1.78.58-3.35.58-1.58 1.66-2.74t2.63-1.84q1.56-.68 3.51-.68 1.65 0 3.05.52 1.39.53 2.39 1.54 1.01 1.01 1.58 2.48t.57 3.36q0 .95-.21 1.28-.2.34-.78.34m7.77-8.49.29 1.38q.52-.53 1.11-.98t1.24-.76q.66-.32 1.4-.5.75-.17 1.64-.17 1.42 0 2.53.48 1.1.48 1.84 1.36t1.13 2.09q.38 1.22.38 2.68v11.1h-4.2v-11.1q0-1.6-.73-2.47-.73-.88-2.23-.88-1.09 0-2.04.49-.95.5-1.8 1.35v12.61h-4.2v-17.44h2.57q.81 0 1.07.76m21.35 16.95q-2.28 0-3.49-1.28-1.22-1.29-1.22-3.55v-9.74h-1.78q-.34 0-.58-.22t-.24-.66v-1.67l2.81-.46.88-4.76q.08-.34.32-.52.24-.19.61-.19h2.18v5.49h4.66v2.99h-4.66v9.45q0 .82.4 1.28t1.1.46q.39 0 .65-.09.26-.1.46-.2t.35-.2q.15-.09.3-.09.19 0 .31.09.12.1.26.28l1.25 2.04q-.91.77-2.1 1.16t-2.47.39"/></svg>