<svg xmlns="http://www.w3.org/2000/svg" width="400" height="300" viewBox="0 0 400 300"><rect width="100%" height="100%" fill="#cccccc"/><path fill="#333333" d="M89.25 154.64q1.02 0 1.82-.34t1.34-.95q.55-.61.84-1.48t.29-1.95v-11.26h3.5v11.26q0 1.68-.54 3.1t-1.54 2.46q-1.01 1.03-2.46 1.61-1.44.58-3.25.58-1.82 0-3.26-.58t-2.45-1.61q-1.01-1.04-1.55-2.46t-.54-3.1v-11.26h3.5v11.25q0 1.08.29 1.95.3.87.85 1.49.55.61 1.35.95t1.81.34m14.45-6.62V154q.54.66 1.19.94.64.27 1.39.27.73 0 1.32-.27.58-.28.99-.83.41-.56.63-1.41.22-.86.22-2.01 0-1.17-.18-1.99-.19-.81-.54-1.32-.36-.5-.86-.74-.5-.23-1.13-.23-1 0-1.71.42-.7.42-1.32 1.19m-.43-3.31.26 1.23q.82-.92 1.86-1.49 1.04-.58 2.44-.58 1.09 0 2 .46.9.45 1.56 1.32.65.86 1.01 2.13t.36 2.91q0 1.49-.4 2.77-.41 1.27-1.15 2.21-.75.93-1.81 1.46t-2.37.53q-1.12 0-1.92-.35-.79-.34-1.41-.96v5.47h-3.21v-17.7h1.96q.62 0 .82.59m15.2 3.31V154q.54.66 1.19.94.64.27 1.39.27.73 0 1.32-.27.58-.28.99-.83.41-.56.63-1.41.22-.86.22-2.01 0-1.17-.19-1.99-.19-.81-.54-1.32-.35-.5-.85-.74-.5-.23-1.14-.23-1 0-1.7.42t-1.32 1.19m-.43-3.31.26 1.23q.82-.92 1.86-1.49 1.04-.58 2.44-.58 1.09 0 2 .46.9.45 1.56 1.32.65.86 1.01 2.13t.36 2.91q0 1.49-.41 2.77-.4 1.27-1.15 2.21-.74.93-1.8 1.46t-2.38.53q-1.11 0-1.91-.35-.79-.34-1.41-.96v5.47h-3.22v-17.7h1.97q.62 0 .82.59m14.52 4.55h6.06q0-.63-.18-1.18t-.53-.97q-.35-.41-.89-.65-.54-.25-1.25-.25-1.39 0-2.19.8-.8.79-1.02 2.25m8.19 1.93h-8.26q.08 1.03.37 1.78.28.75.75 1.23.47.49 1.11.73.65.24 1.43.24t1.34-.18q.57-.18.99-.4t.74-.41q.32-.18.62-.18.4 0 .6.3l.92 1.17q-.53.62-1.2 1.05-.66.42-1.38.67-.72.26-1.47.36-.75.11-1.45.11-1.39 0-2.59-.47-1.19-.46-2.08-1.36-.88-.91-1.39-2.24t-.51-3.09q0-1.36.45-2.56.44-1.21 1.26-2.1.83-.89 2.02-1.41t2.68-.52q1.26 0 2.33.41 1.07.4 1.83 1.17.77.78 1.21 1.9.43 1.13.43 2.57 0 .73-.15.98-.16.25-.6.25m5.99-6.26.2 1.51q.62-1.2 1.48-1.88.86-.69 2.03-.69.92 0 1.48.41l-.21 2.4q-.07.24-.19.33-.12.1-.33.1-.2 0-.58-.06-.38-.07-.75-.07-.53 0-.95.16-.41.15-.74.45-.33.29-.59.7-.25.42-.47.95v8.22h-3.21v-13.34h1.88q.5 0 .69.18.2.17.26.63m30.38 3.13q0 2.07-.69 3.8t-1.93 2.97q-1.25 1.25-3.01 1.94-1.75.69-3.9.69h-7.16v-18.8h7.16q2.15 0 3.9.7 1.76.69 3.01 1.93 1.24 1.25 1.93 2.97.69 1.73.69 3.8m-3.59 0q0-1.55-.41-2.77-.41-1.23-1.18-2.08-.77-.86-1.87-1.31-1.1-.46-2.48-.46h-3.65v13.24h3.65q1.38 0 2.48-.46 1.1-.45 1.87-1.3.77-.86 1.18-2.08.41-1.23.41-2.78m8.7 1.2h6.06q0-.63-.18-1.18-.17-.55-.52-.97-.35-.41-.89-.65-.54-.25-1.26-.25-1.39 0-2.19.8-.8.79-1.02 2.25m8.19 1.93h-8.25q.07 1.03.36 1.78t.75 1.23q.47.49 1.12.73.64.24 1.42.24t1.34-.18q.57-.18.99-.4t.74-.41q.32-.18.62-.18.4 0 .6.3l.92 1.17q-.53.62-1.19 1.05-.67.42-1.39.67-.72.26-1.47.36-.75.11-1.45.11-1.39 0-2.58-.47-1.2-.46-2.08-1.36-.89-.91-1.4-2.24-.5-1.33-.5-3.09 0-1.36.44-2.56.44-1.21 1.27-2.1.82-.89 2.01-1.41t2.69-.52q1.26 0 2.32.41 1.07.4 1.84 1.17.76.78 1.2 1.9.43 1.13.43 2.57 0 .73-.15.98-.16.25-.6.25m7.31 6.27h-3.21v-10.92l-1.16-.18q-.38-.08-.61-.27-.22-.19-.22-.54v-1.31h1.99v-.99q0-1.14.34-2.05t.99-1.55q.64-.64 1.56-.98.93-.33 2.08-.33.93 0 1.72.24l-.06 1.62q-.02.18-.11.29t-.24.17-.34.08q-.2.01-.42.01-.57 0-1.02.13-.45.12-.76.43-.31.3-.47.8-.17.5-.17 1.24v.89h3.47v2.29h-3.36zm11.07-13.55q1.48 0 2.7.48 1.22.49 2.08 1.37t1.33 2.16q.47 1.27.47 2.84 0 1.59-.47 2.86-.47 1.28-1.33 2.18-.86.89-2.08 1.37-1.22.49-2.7.49-1.49 0-2.71-.49-1.23-.48-2.09-1.37-.87-.9-1.34-2.18-.47-1.27-.47-2.86 0-1.57.47-2.84.47-1.28 1.34-2.16.86-.88 2.09-1.37 1.22-.48 2.71-.48m0 11.27q1.67 0 2.47-1.11.8-1.12.8-3.28t-.8-3.29-2.47-1.13q-1.69 0-2.5 1.14t-.81 3.28q0 2.15.81 3.27t2.5 1.12m11.87-10.25.2 1.51q.62-1.2 1.48-1.88.86-.69 2.03-.69.92 0 1.48.41l-.21 2.4q-.06.24-.19.33-.12.1-.33.1-.19 0-.58-.06-.38-.07-.75-.07-.53 0-.94.16-.42.15-.75.45-.33.29-.59.7-.25.42-.47.95v8.22h-3.21v-13.34h1.88q.5 0 .69.18.2.17.26.63m9.4 4.33h6.06q0-.63-.18-1.18-.17-.55-.52-.97-.35-.41-.89-.65-.54-.25-1.26-.25-1.39 0-2.19.8-.8.79-1.02 2.25m8.19 1.93h-8.25q.07 1.03.36 1.78t.75 1.23q.47.49 1.12.73.64.24 1.42.24t1.34-.18q.57-.18.99-.4t.74-.41q.32-.18.62-.18.4 0 .6.3l.92 1.17q-.53.62-1.19 1.05-.67.42-1.39.67-.72.26-1.47.36-.75.11-1.45.11-1.39 0-2.58-.47-1.2-.46-2.08-1.36-.89-.91-1.4-2.24-.5-1.33-.5-3.09 0-1.36.44-2.56.44-1.21 1.27-2.1.82-.89 2.01-1.41t2.69-.52q1.26 0 2.32.41 1.07.4 1.84 1.17.76.78 1.2 1.9.43 1.13.43 2.57 0 .73-.15.98-.16.25-.6.25m12.03-5.63-.73 1.16q-.13.21-.28.29-.14.09-.36.09-.23 0-.5-.13t-.62-.29q-.35-.17-.8-.3t-1.06-.13q-.95 0-1.48.41-.54.4-.54 1.05 0 .43.28.72.27.29.74.51.46.23 1.04.4.59.18 1.19.38.61.21 1.19.48.59.27 1.05.68.46.4.74.98.28.57.28 1.37 0 .97-.35 1.78-.34.81-1.02 1.4-.67.59-1.67.93-.99.33-2.29.33-.69 0-1.35-.13-.65-.12-1.26-.34-.6-.22-1.12-.52-.51-.3-.9-.65l.74-1.22q.14-.22.34-.34.19-.12.49-.12t.57.17.62.37q.35.19.82.36.48.17 1.2.17.58 0 .99-.14.41-.13.67-.36.27-.22.39-.51.13-.29.13-.6 0-.47-.28-.77t-.74-.52q-.47-.22-1.06-.4-.59-.17-1.21-.38-.61-.21-1.21-.49-.59-.28-1.05-.71t-.74-1.05-.28-1.51q0-.82.33-1.56.32-.74.95-1.29t1.57-.88q.95-.34 2.18-.34 1.38 0 2.51.46 1.13.45 1.89 1.19m7 12.11q-1.74 0-2.67-.98-.93-.99-.93-2.71v-7.45h-1.36q-.26 0-.45-.17-.18-.17-.18-.51v-1.27l2.15-.35.67-3.64q.07-.26.25-.41.18-.14.47-.14h1.66v4.2h3.56v2.29h-3.56v7.22q0 .63.31.98.3.35.84.35.3 0 .5-.07t.35-.15.26-.15q.12-.07.24-.07.14 0 .23.07t.2.21l.96 1.56q-.7.59-1.61.89t-1.89.3m12.27-3.66v-2.24q-1.39.06-2.34.24-.94.17-1.52.44-.57.28-.82.64-.24.37-.24.79 0 .85.5 1.21.5.37 1.3.37.99 0 1.71-.36.73-.36 1.41-1.09m-6.78-7-.57-1.03q2.3-2.11 5.53-2.11 1.17 0 2.1.39.92.38 1.56 1.06.63.69.97 1.64.33.94.33 2.08v8.42h-1.46q-.45 0-.7-.14-.25-.13-.39-.55l-.29-.96q-.5.45-.98.8-.49.34-1.01.58-.52.23-1.11.35-.59.13-1.3.13-.85 0-1.56-.23-.72-.23-1.24-.68-.52-.46-.8-1.13-.29-.68-.29-1.58 0-.5.17-1t.55-.96q.38-.45 1-.86.61-.4 1.5-.7t2.07-.49 2.7-.22v-.78q0-1.34-.57-1.99-.57-.64-1.65-.64-.78 0-1.29.18-.52.18-.91.41t-.7.41q-.32.18-.71.18-.34 0-.57-.17-.24-.18-.38-.41m17.38 10.66q-1.74 0-2.67-.98-.93-.99-.93-2.71v-7.45h-1.37q-.26 0-.44-.17t-.18-.51v-1.27l2.14-.35.68-3.64q.07-.26.25-.41.18-.14.47-.14h1.66v4.2h3.56v2.29h-3.56v7.22q0 .63.31.98.3.35.83.35.3 0 .5-.07.21-.07.36-.15l.26-.15q.12-.07.24-.07.14 0 .23.07t.19.21l.97 1.56q-.71.59-1.62.89t-1.88.3m5.33-13.55h3.22v13.34h-3.22zm3.67-3.89q0 .42-.17.78-.17.37-.45.64t-.66.44q-.38.16-.8.16t-.79-.16q-.37-.17-.64-.44-.28-.27-.44-.64-.16-.36-.16-.78t.16-.8.44-.65q.27-.27.64-.44.37-.16.79-.16t.8.16q.38.17.66.44t.45.65.17.8m8.73 3.68q1.48 0 2.7.48 1.21.49 2.08 1.37.86.88 1.33 2.16.47 1.27.47 2.84 0 1.59-.47 2.86-.47 1.28-1.33 2.18-.87.89-2.08 1.37-1.22.49-2.7.49-1.49 0-2.72-.49-1.22-.48-2.08-1.37-.87-.9-1.34-2.18-.48-1.27-.48-2.86 0-1.57.48-2.84.47-1.28 1.34-2.16.86-.88 2.08-1.37 1.23-.48 2.72-.48m0 11.27q1.67 0 2.47-1.11.79-1.12.79-3.28t-.79-3.29q-.8-1.13-2.47-1.13-1.69 0-2.5 1.14t-.81 3.28q0 2.15.81 3.27t2.5 1.12m11.82-10.47.22 1.05q.4-.4.85-.75.45-.34.95-.58t1.07-.38 1.25-.14q1.09 0 1.94.37.84.37 1.41 1.04.56.67.86 1.6.29.93.29 2.05v8.49h-3.21v-8.49q0-1.22-.56-1.89t-1.7-.67q-.84 0-1.56.38-.73.37-1.38 1.02v9.65h-3.21v-13.34h1.96q.62 0 .82.59"/></svg>