<svg xmlns="http://www.w3.org/2000/svg" width="400" height="300" viewBox="0 0 400 300"><rect width="100%" height="100%" fill="#cccccc"/><path fill="#333333" d="M111.975 137.915h3.58l-7.63 24.58h-4.13l-5.37-16.8q-.22-.61-.41-1.49-.1.42-.2.8-.11.37-.23.69l-5.42 16.8h-4.15l-7.61-24.58h3.82q.6 0 1 .28t.53.75l4.18 14.71q.14.54.27 1.18t.26 1.34q.14-.72.3-1.35t.35-1.17l4.83-14.71q.13-.39.53-.71t.98-.32h1.34q.6 0 .97.29t.56.74l4.81 14.71q.36 1.05.65 2.43.22-1.34.49-2.43l4.18-14.71q.11-.42.52-.73.42-.3 1-.3m15.16 20.08v-2.95q-1.82.09-3.06.32t-1.99.58q-.75.36-1.07.84-.32.47-.32 1.03 0 1.11.65 1.59.66.47 1.71.47 1.29 0 2.24-.47.94-.46 1.84-1.41m-8.87-9.17-.75-1.34q3.01-2.76 7.24-2.76 1.53 0 2.74.51 1.2.5 2.04 1.39.83.89 1.26 2.13.44 1.24.44 2.72v11.02h-1.91q-.59 0-.91-.18-.33-.18-.51-.72l-.38-1.26q-.66.6-1.29 1.05t-1.31.75q-.68.31-1.45.47-.78.16-1.71.16-1.11 0-2.04-.3-.94-.29-1.62-.89-.68-.59-1.05-1.48-.37-.88-.37-2.05 0-.67.22-1.32.22-.66.72-1.25.5-.6 1.3-1.12.8-.53 1.96-.92 1.17-.39 2.71-.64 1.55-.25 3.54-.3v-1.02q0-1.75-.75-2.59t-2.16-.84q-1.02 0-1.69.24t-1.18.53q-.51.3-.93.54-.41.24-.92.24-.44 0-.75-.23t-.49-.54m22.73 13.94q-2.28 0-3.5-1.28-1.21-1.29-1.21-3.55v-9.74h-1.79q-.34 0-.58-.22-.23-.22-.23-.66v-1.67l2.8-.46.88-4.76q.09-.34.33-.52.24-.19.61-.19h2.18v5.49h4.65v2.99h-4.65v9.45q0 .82.39 1.28.4.46 1.1.46.39 0 .66-.09.26-.1.45-.2.2-.1.35-.2.16-.09.31-.09.19 0 .31.09.11.1.25.28l1.26 2.04q-.92.77-2.11 1.16t-2.46.39m10.14-11h7.93q0-.81-.23-1.54-.23-.72-.69-1.26-.46-.55-1.17-.86-.7-.32-1.64-.32-1.82 0-2.86 1.04-1.05 1.04-1.34 2.94m10.71 2.54h-10.79q.1 1.34.48 2.32.37.97.98 1.61t1.45.95q.85.32 1.87.32t1.76-.24 1.29-.53.97-.52q.41-.24.8-.24.53 0 .79.39l1.2 1.53q-.69.81-1.56 1.37-.87.55-1.81.88t-1.92.47-1.9.14q-1.82 0-3.38-.61-1.56-.6-2.72-1.78-1.16-1.19-1.82-2.93t-.66-4.04q0-1.78.58-3.35.57-1.58 1.65-2.74t2.64-1.84q1.55-.68 3.51-.68 1.65 0 3.04.52 1.4.53 2.4 1.54t1.57 2.48.57 3.36q0 .95-.2 1.28-.21.34-.79.34m7.84-8.2.26 1.97q.81-1.56 1.93-2.45 1.13-.9 2.66-.9 1.2 0 1.93.53l-.27 3.15q-.08.3-.24.43-.17.13-.44.13-.25 0-.75-.09-.51-.08-.98-.08-.7 0-1.24.2-.55.21-.98.59t-.77.92q-.33.55-.62 1.25v10.74h-4.19v-17.44h2.46q.65 0 .9.23.26.23.34.82m22.48 4.17h3.41q1.26 0 2.2-.32.93-.31 1.55-.9t.93-1.43q.3-.84.3-1.88 0-.98-.3-1.78-.31-.8-.92-1.36t-1.55-.86q-.93-.3-2.21-.3h-3.41zm-4.58-12.36h7.99q2.47 0 4.27.58 1.8.57 2.97 1.61 1.18 1.04 1.75 2.48.57 1.45.57 3.16 0 1.79-.6 3.28-.59 1.48-1.78 2.56-1.19 1.07-2.99 1.66-1.79.6-4.19.6h-3.41v8.65h-4.58zm28.1 6.87q1.94 0 3.53.62 1.59.63 2.72 1.79t1.74 2.82q.62 1.67.62 3.72 0 2.08-.62 3.74-.61 1.67-1.74 2.84-1.13 1.18-2.72 1.81t-3.53.63q-1.95 0-3.55-.63t-2.73-1.81q-1.13-1.17-1.75-2.84-.62-1.66-.62-3.74 0-2.05.62-3.72.62-1.66 1.75-2.82t2.73-1.79q1.6-.62 3.55-.62m0 14.73q2.18 0 3.22-1.46 1.05-1.46 1.05-4.28t-1.05-4.3q-1.04-1.48-3.22-1.48-2.21 0-3.27 1.49-1.06 1.48-1.06 4.29 0 2.8 1.06 4.27t3.27 1.47m11.87-22.28h4.2v25.26h-4.2zm8.45 0h4.2v25.26h-4.2zm19.23 7.82h4.19v17.44h-2.56q-.84 0-1.06-.77l-.29-1.39q-1.07 1.09-2.36 1.76t-3.04.67q-1.43 0-2.53-.48-1.09-.49-1.84-1.37-.75-.89-1.13-2.1-.38-1.22-.38-2.68v-11.08h4.2v11.08q0 1.6.73 2.48.74.87 2.22.87 1.09 0 2.04-.48.96-.49 1.81-1.34zm14.16 17.71q-2.28 0-3.5-1.28-1.21-1.29-1.21-3.55v-9.74h-1.79q-.34 0-.58-.22-.23-.22-.23-.66v-1.67l2.8-.46.89-4.76q.08-.34.32-.52.24-.19.61-.19h2.18v5.49h4.65v2.99h-4.65v9.45q0 .82.4 1.28t1.09.46q.39 0 .66-.09.26-.1.46-.2.19-.1.34-.2.16-.09.31-.09.19 0 .31.09.12.1.25.28l1.26 2.04q-.92.77-2.11 1.16t-2.46.39m6.97-17.71h4.21v17.44h-4.21zm4.79-5.09q0 .55-.22 1.02-.22.48-.59.84-.36.35-.86.57-.49.21-1.05.21-.54 0-1.03-.21-.48-.22-.84-.57-.36-.36-.57-.84-.21-.47-.21-1.02 0-.56.21-1.05t.57-.85.84-.57q.49-.21 1.03-.21.56 0 1.05.21.5.21.86.57.37.36.59.85t.22 1.05m11.42 4.82q1.94 0 3.53.62 1.59.63 2.72 1.79t1.74 2.82q.62 1.67.62 3.72 0 2.08-.62 3.74-.61 1.67-1.74 2.84-1.13 1.18-2.72 1.81t-3.53.63q-1.95 0-3.55-.63t-2.73-1.81q-1.13-1.17-1.75-2.84-.62-1.66-.62-3.74 0-2.05.62-3.72.62-1.66 1.75-2.82t2.73-1.79q1.6-.62 3.55-.62m0 14.73q2.18 0 3.23-1.46 1.04-1.46 1.04-4.28t-1.04-4.3q-1.05-1.48-3.23-1.48-2.21 0-3.27 1.49-1.06 1.48-1.06 4.29 0 2.8 1.06 4.27t3.27 1.47m15.46-13.7.29 1.38q.52-.53 1.11-.98t1.24-.76q.66-.32 1.4-.5.75-.17 1.64-.17 1.42 0 2.53.48 1.1.48 1.84 1.36t1.12 2.09q.39 1.22.39 2.68v11.1h-4.2v-11.1q0-1.6-.73-2.47-.73-.88-2.23-.88-1.09 0-2.04.49-.95.5-1.8 1.35v12.61h-4.2v-17.44h2.57q.81 0 1.07.76"/></svg>